<?xml version="1.0" encoding="UTF-8" standalone="no"?>
<!-- Generator: Adobe Illustrator 19.0.0, SVG Export Plug-In . SVG Version: 6.00 Build 0)  -->

<svg
   xmlns:dc="http://purl.org/dc/elements/1.1/"
   xmlns:cc="http://creativecommons.org/ns#"
   xmlns:rdf="http://www.w3.org/1999/02/22-rdf-syntax-ns#"
   xmlns:svg="http://www.w3.org/2000/svg"
   xmlns="http://www.w3.org/2000/svg"
   xmlns:sodipodi="http://sodipodi.sourceforge.net/DTD/sodipodi-0.dtd"
   xmlns:inkscape="http://www.inkscape.org/namespaces/inkscape"
   version="1.0"
   id="svg55117"
   sodipodi:docname="AddAll.svg"
   inkscape:version="0.91 r13725"
   x="0px"
   y="0px"
   width="15mm"
   height="128.5mm"
   viewBox="-337 116.84 53.149607 455.31492"
   enable-background="new -337 116.8399963 45 380"
   xml:space="preserve"><metadata
     id="metadata100"><rdf:RDF><cc:Work
         rdf:about=""><dc:format>image/svg+xml</dc:format><dc:type
           rdf:resource="http://purl.org/dc/dcmitype/StillImage" /><dc:title /></cc:Work></rdf:RDF></metadata><defs
     id="defs98" /><sodipodi:namedview
     pagecolor="#ffffff"
     bordercolor="#666666"
     borderopacity="1"
     objecttolerance="10"
     gridtolerance="10"
     guidetolerance="10"
     inkscape:pageopacity="0"
     inkscape:pageshadow="2"
     inkscape:window-width="1525"
     inkscape:window-height="1008"
     id="namedview96"
     showgrid="false"
     inkscape:zoom="16.000002"
     inkscape:cx="32.044015"
     inkscape:cy="435.29627"
     inkscape:current-layer="svg55117"
     units="mm"
     inkscape:document-units="mm"
     inkscape:window-x="-208"
     inkscape:window-y="-26"
     inkscape:window-maximized="0"
     showguides="false" /><g
     id="g4174"><text
       transform="scale(0.99284073,1.0072109)"
       sodipodi:linespacing="125%"
       id="text3342"
       y="136.72969"
       x="-332.70807"
       style="font-style:normal;font-variant:normal;font-weight:normal;font-stretch:normal;font-size:16.65466881px;line-height:125%;font-family:'COM4t Fine Regular';-inkscape-font-specification:'COM4t Fine Regular, ';text-align:start;letter-spacing:0px;word-spacing:0px;writing-mode:lr-tb;text-anchor:start;fill:#000000;fill-opacity:1;stroke:none;stroke-width:1px;stroke-linecap:butt;stroke-linejoin:miter;stroke-opacity:1"
       xml:space="preserve"><tspan
         y="136.72969"
         x="-332.70807"
         id="tspan3344"
         sodipodi:role="line" /></text>
<text
       xml:space="preserve"
       style="font-style:normal;font-variant:normal;font-weight:normal;font-stretch:normal;font-size:16.65466881px;line-height:125%;font-family:'COM4t Fine Regular';-inkscape-font-specification:'COM4t Fine Regular, ';text-align:start;letter-spacing:0px;word-spacing:0px;writing-mode:lr-tb;text-anchor:start;fill:#000000;fill-opacity:1;stroke:none;stroke-width:1px;stroke-linecap:butt;stroke-linejoin:miter;stroke-opacity:1"
       x="-412.11899"
       y="196.57898"
       id="text4265"
       sodipodi:linespacing="125%"
       transform="scale(0.99284073,1.0072109)"><tspan
         sodipodi:role="line"
         id="tspan4267"
         x="-412.11899"
         y="196.57898" /></text>
<path
       d="m -337,116.83998 53.14961,0 0,455.31496 -53.14961,0 0,-455.31496 z"
       inkscape:export-ydpi="100.2962"
       inkscape:export-xdpi="100.2962"
       inkscape:export-filename="/home/vortico/src/cpp/VCV/Rack/plugins/Fundamental/res/Delay.png"
       inkscape:connector-curvature="0"
       id="path25061"
       style="fill:#f0f0f0" /><rect
       style="opacity:1;fill:#7fa6ab;fill-opacity:1;stroke:#000000;stroke-width:2.49190331;stroke-linecap:round;stroke-linejoin:round;stroke-miterlimit:4;stroke-dasharray:none;stroke-opacity:1"
       id="rect4161"
       width="39.77903"
       height="72.357582"
       x="-329.31473"
       y="204.74426"
       ry="3.0840514" /><rect
       ry="3.5175517"
       y="145.22168"
       x="-329.57117"
       height="37.66629"
       width="40.291954"
       id="rect4156"
       style="opacity:1;fill:#7fa6ab;fill-opacity:1;stroke:#000000;stroke-width:2.49190331;stroke-linecap:round;stroke-linejoin:round;stroke-miterlimit:4;stroke-dasharray:none;stroke-opacity:1" /><rect
       ry="3.0840514"
       y="463.34894"
       x="-329.31473"
       height="72.357582"
       width="39.77903"
       id="rect4191"
       style="opacity:1;fill:#7fa6ab;fill-opacity:1;stroke:#000000;stroke-width:2.49190331;stroke-linecap:round;stroke-linejoin:round;stroke-miterlimit:4;stroke-dasharray:none;stroke-opacity:1" /><g
       id="g4376"><path
         sodipodi:nodetypes="ccsssscssscssscsscssssssssscscscsccsccszsssscsssscccsscs"
         inkscape:connector-curvature="0"
         id="path4216"
         d="m -318.66329,570.20047 c -0.18908,-0.33888 0.1195,-1.03603 0.15953,-1.20315 -0.47246,0.13179 -1.47345,0.29384 -2.55741,0.22966 -1.32125,-0.0783 -2.26441,-0.3 -3.27347,-1.87662 -2.5345,-3.96014 0.53907,-8.95249 3.81873,-10.90914 1.21679,-0.72596 2.61349,-1.36291 3.934,-1.921 0.57698,-0.24388 2.19001,0.89785 0.78913,0.93538 -1.38415,0.61978 -2.3865,0.89106 -3.67512,1.69155 -3.23631,2.01033 -5.77757,6.44739 -4.09392,9.75468 0.62454,1.22676 1.95367,1.74039 3.41259,1.6333 0.38073,-0.028 1.27588,-0.1401 1.97928,-0.44384 0.52769,-1.11281 0.40995,-0.87687 0.70049,-1.51236 1.2273,-2.68464 2.34951,-4.78101 4.23835,-7.55321 0.86069,-1.26328 1.85982,-2.5296 2.75875,-3.6037 0.80766,-0.96498 1.51342,-1.91425 2.68407,-2.43683 1.79651,0.34725 -0.11673,1.58759 -0.63188,2.2689 -0.82444,1.09031 -1.6373,2.37971 -1.84577,3.75217 -0.0989,0.65104 -0.21756,1.50504 -0.27493,2.81727 1.25379,-1.21913 5.06384,-5.03201 7.71395,-6.92221 0.9167,-0.65383 1.8986,-1.2122 3.04081,-1.53408 1.24095,-0.34969 2.46494,-0.14385 3.4383,0.624 0.89251,0.70411 1.2628,1.80111 1.42371,2.96662 0.28297,2.04999 -0.48539,4.08599 -1.38317,5.88274 -0.90921,1.81955 -2.53674,3.19959 -4.25906,4.23305 -1.42308,0.8539 -3.1103,1.47111 -4.79405,1.25855 -1.32196,-0.16692 -1.96766,-1.19774 -2.18664,-2.55521 -0.37799,-2.34323 0.64175,-4.5728 1.9054,-6.60127 0.18702,-0.30023 0.30168,-0.51539 0.71475,-1.12383 -0.99059,0.87819 -1.78787,1.63551 -2.03803,1.89253 -1.15927,1.19105 -2.51559,2.31812 -3.57576,3.56002 -0.0375,1.29172 0.0523,2.55463 0.25354,3.81842 0.10746,0.67492 1.7233,1.3946 0.29668,1.53784 -1.20075,0.10084 -1.70959,-1.23575 -1.75145,-2.2288 -0.0172,-0.40871 -0.0402,-1.29173 -0.0766,-2.00455 -0.3684,0.31685 -0.49691,0.43955 -0.83197,0.7534 -1.5218,1.25142 -2.96676,2.46947 -4.19295,3.00922 -0.21263,0.0936 -0.40716,0.20536 -0.61756,0.3081 -0.058,0.13665 -0.55481,1.52381 -1.20227,1.5024 z m 13.59419,-2.54876 c 1.89063,-0.55583 3.76633,-1.49737 5.13434,-2.84014 0.83093,-0.81556 1.55659,-1.69777 2.1336,-2.67967 0.6759,-1.15011 1.08528,-2.30086 1.21369,-3.65515 0.10733,-1.13204 0.023,-2.21066 -0.31006,-3.22081 -0.41878,-1.27024 -2.03539,-0.9748 -3.00314,-0.59664 -1.11028,0.43381 -2.09188,1.16305 -3.1051,1.91604 1.41966,0.71532 -0.75654,1.73726 -1.19244,2.21633 -1.66999,1.8355 -3.01969,4.25649 -2.56619,6.80174 0.11348,0.63681 0.62178,2.3739 1.6953,2.0583 z m -10.55317,-1.03241 c 1.32997,-0.9842 3.03865,-2.70761 3.72978,-3.40465 0.11537,-1.02218 0.18803,-1.93753 0.30107,-3.0697 0.0707,-0.55397 0.25878,-1.53354 0.35858,-2.13654 -0.29057,0.2352 -0.56989,0.55151 -0.79529,0.84691 -1.90043,2.49045 -2.77173,4.08018 -4.10832,6.73562 -0.0583,0.11585 -0.58012,1.28193 -0.85745,1.99854 0.54833,-0.28912 0.87985,-0.60627 1.37163,-0.97018 z"
         style="fill:#042a3b;fill-opacity:1" /><path
         style="fill:#042a3b;fill-opacity:1"
         d="m -319.01684,569.80272 c -0.18908,-0.33888 0.1195,-1.03603 0.15953,-1.20315 -0.47246,0.13179 -1.47345,0.29384 -2.55741,0.22966 -1.32125,-0.0783 -2.26441,-0.3 -3.27347,-1.87662 -2.5345,-3.96014 0.53907,-8.95249 3.81873,-10.90914 1.21679,-0.72596 2.61349,-1.36291 3.934,-1.921 0.57698,-0.24388 2.19001,0.89785 0.78913,0.93538 -1.38415,0.61978 -2.3865,0.89106 -3.67512,1.69155 -3.23631,2.01033 -5.77757,6.44739 -4.09392,9.75468 0.62454,1.22676 1.95367,1.74039 3.41259,1.6333 0.38073,-0.028 1.27588,-0.1401 1.97928,-0.44384 0.52769,-1.11281 0.40995,-0.87687 0.70049,-1.51236 1.2273,-2.68464 2.34951,-4.78101 4.23835,-7.55321 0.86069,-1.26328 1.85982,-2.5296 2.75875,-3.6037 0.80766,-0.96498 1.51342,-1.91425 2.68407,-2.43683 1.79651,0.34725 -0.11673,1.58759 -0.63188,2.2689 -0.82444,1.09031 -1.6373,2.37971 -1.84577,3.75217 -0.0989,0.65104 -0.21756,1.50504 -0.27493,2.81727 1.25379,-1.21913 5.06384,-5.03201 7.71395,-6.92221 0.9167,-0.65383 1.8986,-1.2122 3.04081,-1.53408 1.24095,-0.34969 2.46494,-0.14385 3.4383,0.624 0.89251,0.70411 1.2628,1.80111 1.42371,2.96662 0.28297,2.04999 -0.48539,4.08599 -1.38317,5.88274 -0.90921,1.81955 -2.53674,3.19959 -4.25906,4.23305 -1.42308,0.8539 -3.1103,1.47111 -4.79405,1.25855 -1.32196,-0.16692 -1.96766,-1.19774 -2.18664,-2.55521 -0.37799,-2.34323 0.64175,-4.5728 1.9054,-6.60127 0.18702,-0.30023 0.30168,-0.51539 0.71475,-1.12383 -0.99059,0.87819 -1.78787,1.63551 -2.03803,1.89253 -1.15927,1.19105 -2.51559,2.31812 -3.57576,3.56002 -0.0375,1.29172 0.0523,2.55463 0.25354,3.81842 0.10746,0.67492 1.7233,1.3946 0.29668,1.53784 -1.20075,0.10084 -1.70959,-1.23575 -1.75145,-2.2288 -0.0172,-0.40871 -0.0402,-1.29173 -0.0766,-2.00455 -0.3684,0.31685 -0.49691,0.43955 -0.83197,0.7534 -1.5218,1.25142 -2.96676,2.46947 -4.19295,3.00922 -0.21263,0.0936 -0.40716,0.20536 -0.61756,0.3081 -0.058,0.13665 -0.55481,1.52381 -1.20227,1.5024 z m 13.59419,-2.54876 c 1.89063,-0.55583 3.76633,-1.49737 5.13434,-2.84014 0.83093,-0.81556 1.55659,-1.69777 2.1336,-2.67967 0.6759,-1.15011 1.08528,-2.30086 1.21369,-3.65515 0.10733,-1.13204 0.023,-2.21066 -0.31006,-3.22081 -0.41878,-1.27024 -2.03539,-0.9748 -3.00314,-0.59664 -1.11028,0.43381 -2.09188,1.16305 -3.1051,1.91604 1.41966,0.71532 -0.75654,1.73726 -1.19244,2.21633 -1.66999,1.8355 -3.01969,4.25649 -2.56619,6.80174 0.11348,0.63681 0.62178,2.3739 1.6953,2.0583 z m -10.55317,-1.03241 c 1.32997,-0.9842 3.03865,-2.70761 3.72978,-3.40465 0.11537,-1.02218 0.18803,-1.93753 0.30107,-3.0697 0.0707,-0.55397 0.25878,-1.53354 0.35858,-2.13654 -0.29057,0.2352 -0.56989,0.55151 -0.79529,0.84691 -1.90043,2.49045 -2.77173,4.08018 -4.10832,6.73562 -0.0583,0.11585 -0.58012,1.28193 -0.85745,1.99854 0.54833,-0.28912 0.87985,-0.60627 1.37163,-0.97018 z"
         id="path4224"
         inkscape:connector-curvature="0"
         sodipodi:nodetypes="ccsssscssscssscsscssssssssscscscsccsccszsssscsssscccsscs" /><path
         style="fill:#6bb7bf;fill-opacity:1"
         d="m -319.37993,569.24494 c -0.18908,-0.33888 0.11949,-1.03603 0.15952,-1.20315 -0.47245,0.13179 -1.47344,0.29384 -2.55741,0.22966 -1.32125,-0.0782 -2.2644,-0.3 -3.27347,-1.87662 -2.5345,-3.96014 0.53908,-8.95249 3.81873,-10.90914 1.2168,-0.72596 2.61349,-1.36291 3.934,-1.921 0.57698,-0.24388 2.19002,0.89785 0.78914,0.93538 -1.38416,0.61979 -2.3865,0.89106 -3.67512,1.69155 -3.23631,2.01033 -5.77757,6.44739 -4.09393,9.75468 0.62455,1.22676 1.95367,1.7404 3.41259,1.6333 0.38074,-0.028 1.27589,-0.14009 1.97928,-0.44384 0.52769,-1.11281 0.40996,-0.87687 0.70049,-1.51236 1.22731,-2.68464 2.34951,-4.78101 4.23835,-7.55321 0.86069,-1.26328 1.85983,-2.5296 2.75876,-3.6037 0.80765,-0.96498 1.51341,-1.91424 2.68406,-2.43683 1.79651,0.34725 -0.11672,1.5876 -0.63188,2.2689 -0.82444,1.09031 -1.63729,2.37971 -1.84577,3.75217 -0.0989,0.65104 -0.21756,1.50504 -0.27492,2.81727 1.25379,-1.21913 5.06383,-5.03201 7.71394,-6.9222 0.9167,-0.65384 1.89861,-1.21221 3.04081,-1.53409 1.24095,-0.34969 2.46494,-0.14385 3.4383,0.624 0.89251,0.70411 1.26281,1.80111 1.42372,2.96663 0.28296,2.04998 -0.4854,4.08598 -1.38318,5.88273 -0.9092,1.81956 -2.53673,3.19959 -4.25906,4.23305 -1.42307,0.8539 -3.1103,1.47111 -4.79404,1.25855 -1.32197,-0.16692 -1.96766,-1.19774 -2.18664,-2.55521 -0.378,-2.34323 0.64174,-4.5728 1.90539,-6.60127 0.18703,-0.30023 0.30169,-0.51539 0.71475,-1.12383 -0.99059,0.87819 -1.78786,1.63551 -2.03803,1.89253 -1.15926,1.19105 -2.51558,2.31812 -3.57576,3.56002 -0.0375,1.29173 0.0523,2.55464 0.25354,3.81842 0.10747,0.67492 1.72331,1.3946 0.29668,1.53784 -1.20075,0.10084 -1.70959,-1.23575 -1.75144,-2.2288 -0.0172,-0.40871 -0.0402,-1.29173 -0.0767,-2.00455 -0.3684,0.31685 -0.49691,0.43955 -0.83197,0.7534 -1.52179,1.25142 -2.96676,2.46947 -4.19295,3.00922 -0.21263,0.0936 -0.40715,0.20537 -0.61755,0.3081 -0.058,0.13665 -0.55482,1.52382 -1.20227,1.5024 z m 13.59418,-2.54876 c 1.89064,-0.55583 3.76634,-1.49737 5.13435,-2.84014 0.83092,-0.81555 1.55658,-1.69776 2.1336,-2.67967 0.67589,-1.15011 1.08527,-2.30086 1.21368,-3.65515 0.10733,-1.13203 0.023,-2.21066 -0.31006,-3.2208 -0.41877,-1.27025 -2.03539,-0.97481 -3.00314,-0.59665 -1.11028,0.43381 -2.09188,1.16305 -3.1051,1.91604 1.41967,0.71532 -0.75653,1.73726 -1.19243,2.21634 -1.67,1.83549 -3.0197,4.25649 -2.5662,6.80173 0.11348,0.63681 0.62178,2.3739 1.6953,2.0583 z m -10.55317,-1.03241 c 1.32997,-0.9842 3.03865,-2.70761 3.72978,-3.40465 0.11537,-1.02217 0.18804,-1.93753 0.30108,-3.0697 0.0707,-0.55397 0.25877,-1.53354 0.35857,-2.13653 -0.29057,0.23519 -0.56989,0.5515 -0.79529,0.8469 -1.90043,2.49045 -2.77173,4.08018 -4.10832,6.73562 -0.0583,0.11585 -0.58012,1.28193 -0.85744,1.99854 0.54833,-0.28911 0.87984,-0.60627 1.37162,-0.97018 z"
         id="path4161"
         inkscape:connector-curvature="0"
         sodipodi:nodetypes="ccsssscssscssscsscssssssssscscscsccsccszsssscsssscccsscs" /></g><g
       id="text4192"
       style="font-style:normal;font-variant:normal;font-weight:normal;font-stretch:normal;font-size:13.75000095px;line-height:125%;font-family:'URW Gothic L';-inkscape-font-specification:'URW Gothic L';letter-spacing:0px;word-spacing:0px;fill:#0b6790;fill-opacity:1;stroke:none;stroke-width:1px;stroke-linecap:butt;stroke-linejoin:miter;stroke-opacity:1"><path
         id="path4162"
         style="fill:#2c4451;fill-opacity:1"
         d="m -332.26556,132.60608 1.0725,0 1.485,-3.42375 4.73,0 1.47125,3.42375 1.11375,0 -4.3725,-10.16125 -1.14125,0 -4.35875,10.16125 z m 2.9425,-4.345 1.99375,-4.66125 1.9525,4.66125 -3.94625,0 z" /><path
         id="path4164"
         style="fill:#2c4451;fill-opacity:1"
         d="m -313.68608,122.44483 -1.0175,0 0,3.83625 c -0.74251,-0.89375 -1.77376,-1.375 -2.95626,-1.375 -2.26875,0 -4.00125,1.705 -4.00125,3.94625 0,2.2275 1.77375,3.9325 4.0975,3.9325 1.25125,0 2.10375,-0.45375 2.86001,-1.54 l 0,1.36125 1.0175,0 0,-10.16125 z m -4.00126,3.39625 c 1.66375,0 3.02501,1.33375 3.02501,2.98375 0,1.65 -1.32001,3.025 -2.92876,3.025 -1.71875,0 -3.03875,-1.32 -3.03875,-3.03875 0,-1.65 1.30625,-2.97 2.9425,-2.97 z" /><path
         id="path4166"
         style="fill:#2c4451;fill-opacity:1"
         d="m -304.25981,122.44483 -1.0175,0 0,3.83625 c -0.7425,-0.89375 -1.77375,-1.375 -2.95625,-1.375 -2.26875,0 -4.00125,1.705 -4.00125,3.94625 0,2.2275 1.77375,3.9325 4.0975,3.9325 1.25125,0 2.10375,-0.45375 2.86,-1.54 l 0,1.36125 1.0175,0 0,-10.16125 z m -4.00125,3.39625 c 1.66375,0 3.025,1.33375 3.025,2.98375 0,1.65 -1.32,3.025 -2.92875,3.025 -1.71875,0 -3.03875,-1.32 -3.03875,-3.03875 0,-1.65 1.30625,-2.97 2.9425,-2.97 z" /><path
         id="path4168"
         style=""
         d="m -303.23479,132.60608 1.0725,0 1.485,-3.42375 4.73,0 1.47125,3.42375 1.11375,0 -4.3725,-10.16125 -1.14125,0 -4.35875,10.16125 z m 2.9425,-4.345 1.99375,-4.66125 1.9525,4.66125 -3.94625,0 z" /><path
         id="path4170"
         style=""
         d="m -292.34157,132.60608 1.0175,0 0,-10.16125 -1.0175,0 0,10.16125 z" /><path
         id="path4172"
         style=""
         d="m -289.60231,132.60608 1.0175,0 0,-10.16125 -1.0175,0 0,10.16125 z" /></g><rect
       ry="3.0840514"
       y="290.9458"
       x="-329.31473"
       height="72.357582"
       width="39.77903"
       id="rect4300"
       style="opacity:1;fill:#7fa6ab;fill-opacity:1;stroke:#000000;stroke-width:2.49190331;stroke-linecap:round;stroke-linejoin:round;stroke-miterlimit:4;stroke-dasharray:none;stroke-opacity:1" /><rect
       style="opacity:1;fill:#7fa6ab;fill-opacity:1;stroke:#000000;stroke-width:2.49190331;stroke-linecap:round;stroke-linejoin:round;stroke-miterlimit:4;stroke-dasharray:none;stroke-opacity:1"
       id="rect4368"
       width="39.77903"
       height="72.357582"
       x="-329.31473"
       y="377.14737"
       ry="3.0840514" /></g></svg>