<?xml version="1.0" encoding="UTF-8" standalone="no"?>
<!-- Generator: Adobe Illustrator 19.0.0, SVG Export Plug-In . SVG Version: 6.00 Build 0)  -->

<svg
   xmlns:dc="http://purl.org/dc/elements/1.1/"
   xmlns:cc="http://creativecommons.org/ns#"
   xmlns:rdf="http://www.w3.org/1999/02/22-rdf-syntax-ns#"
   xmlns:svg="http://www.w3.org/2000/svg"
   xmlns="http://www.w3.org/2000/svg"
   xmlns:sodipodi="http://sodipodi.sourceforge.net/DTD/sodipodi-0.dtd"
   xmlns:inkscape="http://www.inkscape.org/namespaces/inkscape"
   version="1.0"
   id="svg55117"
   sodipodi:docname="CLatch.svg"
   inkscape:version="0.91 r13725"
   x="0px"
   y="0px"
   width="20.000002mm"
   height="128.49998mm"
   viewBox="-337 116.84 70.866149 455.31487"
   enable-background="new -337 116.8399963 45 380"
   xml:space="preserve"><metadata
     id="metadata100"><rdf:RDF><cc:Work
         rdf:about=""><dc:format>image/svg+xml</dc:format><dc:type
           rdf:resource="http://purl.org/dc/dcmitype/StillImage" /><dc:title /></cc:Work></rdf:RDF></metadata><defs
     id="defs98" /><sodipodi:namedview
     pagecolor="#ffffff"
     bordercolor="#666666"
     borderopacity="1"
     objecttolerance="10"
     gridtolerance="10"
     guidetolerance="10"
     inkscape:pageopacity="0"
     inkscape:pageshadow="2"
     inkscape:window-width="1525"
     inkscape:window-height="1008"
     id="namedview96"
     showgrid="false"
     inkscape:zoom="5.6568544"
     inkscape:cx="27.254794"
     inkscape:cy="149.1313"
     inkscape:current-layer="svg55117"
     units="mm"
     inkscape:document-units="mm"
     inkscape:window-x="-208"
     inkscape:window-y="-26"
     inkscape:window-maximized="0"
     showguides="false"
     fit-margin-top="0"
     fit-margin-left="0"
     fit-margin-right="0"
     fit-margin-bottom="0" /><text
     xml:space="preserve"
     style="font-style:normal;font-variant:normal;font-weight:normal;font-stretch:normal;font-size:16.65466881px;line-height:125%;font-family:'COM4t Fine Regular';-inkscape-font-specification:'COM4t Fine Regular, ';text-align:start;letter-spacing:0px;word-spacing:0px;writing-mode:lr-tb;text-anchor:start;fill:#000000;fill-opacity:1;stroke:none;stroke-width:1px;stroke-linecap:butt;stroke-linejoin:miter;stroke-opacity:1"
     x="-332.17865"
     y="136.72966"
     id="text3342"
     sodipodi:linespacing="125%"
     transform="scale(0.99284073,1.0072109)"><tspan
       sodipodi:role="line"
       id="tspan3344"
       x="-332.17865"
       y="136.72966" /></text>
<text
     transform="scale(0.99284073,1.0072109)"
     sodipodi:linespacing="125%"
     id="text4265"
     y="196.57895"
     x="-411.58957"
     style="font-style:normal;font-variant:normal;font-weight:normal;font-stretch:normal;font-size:16.65466881px;line-height:125%;font-family:'COM4t Fine Regular';-inkscape-font-specification:'COM4t Fine Regular, ';text-align:start;letter-spacing:0px;word-spacing:0px;writing-mode:lr-tb;text-anchor:start;fill:#000000;fill-opacity:1;stroke:none;stroke-width:1px;stroke-linecap:butt;stroke-linejoin:miter;stroke-opacity:1"
     xml:space="preserve"><tspan
       y="196.57895"
       x="-411.58957"
       id="tspan4267"
       sodipodi:role="line" /></text>
<g
     id="g4264"
     transform="translate(0.53553388,-0.08578646)"><path
       d="m -337,116.83995 70.86615,0 0,455.31496 -70.86615,0 0,-455.31496 z"
       inkscape:export-ydpi="100.2962"
       inkscape:export-xdpi="100.2962"
       inkscape:export-filename="/home/vortico/src/cpp/VCV/Rack/plugins/Fundamental/res/Delay.png"
       inkscape:connector-curvature="0"
       id="path25061"
       style="fill:#f0f0f0" /><g
       transform="translate(8.8582653,-2.9438479e-5)"
       id="g4376"><path
         sodipodi:nodetypes="ccsssscssscssscsscssssssssscscscsccsccszsssscsssscccsscs"
         inkscape:connector-curvature="0"
         id="path4216"
         d="m -318.66329,570.20047 c -0.18908,-0.33888 0.1195,-1.03603 0.15953,-1.20315 -0.47246,0.13179 -1.47345,0.29384 -2.55741,0.22966 -1.32125,-0.0783 -2.26441,-0.3 -3.27347,-1.87662 -2.5345,-3.96014 0.53907,-8.95249 3.81873,-10.90914 1.21679,-0.72596 2.61349,-1.36291 3.934,-1.921 0.57698,-0.24388 2.19001,0.89785 0.78913,0.93538 -1.38415,0.61978 -2.3865,0.89106 -3.67512,1.69155 -3.23631,2.01033 -5.77757,6.44739 -4.09392,9.75468 0.62454,1.22676 1.95367,1.74039 3.41259,1.6333 0.38073,-0.028 1.27588,-0.1401 1.97928,-0.44384 0.52769,-1.11281 0.40995,-0.87687 0.70049,-1.51236 1.2273,-2.68464 2.34951,-4.78101 4.23835,-7.55321 0.86069,-1.26328 1.85982,-2.5296 2.75875,-3.6037 0.80766,-0.96498 1.51342,-1.91425 2.68407,-2.43683 1.79651,0.34725 -0.11673,1.58759 -0.63188,2.2689 -0.82444,1.09031 -1.6373,2.37971 -1.84577,3.75217 -0.0989,0.65104 -0.21756,1.50504 -0.27493,2.81727 1.25379,-1.21913 5.06384,-5.03201 7.71395,-6.92221 0.9167,-0.65383 1.8986,-1.2122 3.04081,-1.53408 1.24095,-0.34969 2.46494,-0.14385 3.4383,0.624 0.89251,0.70411 1.2628,1.80111 1.42371,2.96662 0.28297,2.04999 -0.48539,4.08599 -1.38317,5.88274 -0.90921,1.81955 -2.53674,3.19959 -4.25906,4.23305 -1.42308,0.8539 -3.1103,1.47111 -4.79405,1.25855 -1.32196,-0.16692 -1.96766,-1.19774 -2.18664,-2.55521 -0.37799,-2.34323 0.64175,-4.5728 1.9054,-6.60127 0.18702,-0.30023 0.30168,-0.51539 0.71475,-1.12383 -0.99059,0.87819 -1.78787,1.63551 -2.03803,1.89253 -1.15927,1.19105 -2.51559,2.31812 -3.57576,3.56002 -0.0375,1.29172 0.0523,2.55463 0.25354,3.81842 0.10746,0.67492 1.7233,1.3946 0.29668,1.53784 -1.20075,0.10084 -1.70959,-1.23575 -1.75145,-2.2288 -0.0172,-0.40871 -0.0402,-1.29173 -0.0766,-2.00455 -0.3684,0.31685 -0.49691,0.43955 -0.83197,0.7534 -1.5218,1.25142 -2.96676,2.46947 -4.19295,3.00922 -0.21263,0.0936 -0.40716,0.20536 -0.61756,0.3081 -0.058,0.13665 -0.55481,1.52381 -1.20227,1.5024 z m 13.59419,-2.54876 c 1.89063,-0.55583 3.76633,-1.49737 5.13434,-2.84014 0.83093,-0.81556 1.55659,-1.69777 2.1336,-2.67967 0.6759,-1.15011 1.08528,-2.30086 1.21369,-3.65515 0.10733,-1.13204 0.023,-2.21066 -0.31006,-3.22081 -0.41878,-1.27024 -2.03539,-0.9748 -3.00314,-0.59664 -1.11028,0.43381 -2.09188,1.16305 -3.1051,1.91604 1.41966,0.71532 -0.75654,1.73726 -1.19244,2.21633 -1.66999,1.8355 -3.01969,4.25649 -2.56619,6.80174 0.11348,0.63681 0.62178,2.3739 1.6953,2.0583 z m -10.55317,-1.03241 c 1.32997,-0.9842 3.03865,-2.70761 3.72978,-3.40465 0.11537,-1.02218 0.18803,-1.93753 0.30107,-3.0697 0.0707,-0.55397 0.25878,-1.53354 0.35858,-2.13654 -0.29057,0.2352 -0.56989,0.55151 -0.79529,0.84691 -1.90043,2.49045 -2.77173,4.08018 -4.10832,6.73562 -0.0583,0.11585 -0.58012,1.28193 -0.85745,1.99854 0.54833,-0.28912 0.87985,-0.60627 1.37163,-0.97018 z"
         style="fill:#042a3b;fill-opacity:1" /><path
         style="fill:#042a3b;fill-opacity:1"
         d="m -319.01684,569.80272 c -0.18908,-0.33888 0.1195,-1.03603 0.15953,-1.20315 -0.47246,0.13179 -1.47345,0.29384 -2.55741,0.22966 -1.32125,-0.0783 -2.26441,-0.3 -3.27347,-1.87662 -2.5345,-3.96014 0.53907,-8.95249 3.81873,-10.90914 1.21679,-0.72596 2.61349,-1.36291 3.934,-1.921 0.57698,-0.24388 2.19001,0.89785 0.78913,0.93538 -1.38415,0.61978 -2.3865,0.89106 -3.67512,1.69155 -3.23631,2.01033 -5.77757,6.44739 -4.09392,9.75468 0.62454,1.22676 1.95367,1.74039 3.41259,1.6333 0.38073,-0.028 1.27588,-0.1401 1.97928,-0.44384 0.52769,-1.11281 0.40995,-0.87687 0.70049,-1.51236 1.2273,-2.68464 2.34951,-4.78101 4.23835,-7.55321 0.86069,-1.26328 1.85982,-2.5296 2.75875,-3.6037 0.80766,-0.96498 1.51342,-1.91425 2.68407,-2.43683 1.79651,0.34725 -0.11673,1.58759 -0.63188,2.2689 -0.82444,1.09031 -1.6373,2.37971 -1.84577,3.75217 -0.0989,0.65104 -0.21756,1.50504 -0.27493,2.81727 1.25379,-1.21913 5.06384,-5.03201 7.71395,-6.92221 0.9167,-0.65383 1.8986,-1.2122 3.04081,-1.53408 1.24095,-0.34969 2.46494,-0.14385 3.4383,0.624 0.89251,0.70411 1.2628,1.80111 1.42371,2.96662 0.28297,2.04999 -0.48539,4.08599 -1.38317,5.88274 -0.90921,1.81955 -2.53674,3.19959 -4.25906,4.23305 -1.42308,0.8539 -3.1103,1.47111 -4.79405,1.25855 -1.32196,-0.16692 -1.96766,-1.19774 -2.18664,-2.55521 -0.37799,-2.34323 0.64175,-4.5728 1.9054,-6.60127 0.18702,-0.30023 0.30168,-0.51539 0.71475,-1.12383 -0.99059,0.87819 -1.78787,1.63551 -2.03803,1.89253 -1.15927,1.19105 -2.51559,2.31812 -3.57576,3.56002 -0.0375,1.29172 0.0523,2.55463 0.25354,3.81842 0.10746,0.67492 1.7233,1.3946 0.29668,1.53784 -1.20075,0.10084 -1.70959,-1.23575 -1.75145,-2.2288 -0.0172,-0.40871 -0.0402,-1.29173 -0.0766,-2.00455 -0.3684,0.31685 -0.49691,0.43955 -0.83197,0.7534 -1.5218,1.25142 -2.96676,2.46947 -4.19295,3.00922 -0.21263,0.0936 -0.40716,0.20536 -0.61756,0.3081 -0.058,0.13665 -0.55481,1.52381 -1.20227,1.5024 z m 13.59419,-2.54876 c 1.89063,-0.55583 3.76633,-1.49737 5.13434,-2.84014 0.83093,-0.81556 1.55659,-1.69777 2.1336,-2.67967 0.6759,-1.15011 1.08528,-2.30086 1.21369,-3.65515 0.10733,-1.13204 0.023,-2.21066 -0.31006,-3.22081 -0.41878,-1.27024 -2.03539,-0.9748 -3.00314,-0.59664 -1.11028,0.43381 -2.09188,1.16305 -3.1051,1.91604 1.41966,0.71532 -0.75654,1.73726 -1.19244,2.21633 -1.66999,1.8355 -3.01969,4.25649 -2.56619,6.80174 0.11348,0.63681 0.62178,2.3739 1.6953,2.0583 z m -10.55317,-1.03241 c 1.32997,-0.9842 3.03865,-2.70761 3.72978,-3.40465 0.11537,-1.02218 0.18803,-1.93753 0.30107,-3.0697 0.0707,-0.55397 0.25878,-1.53354 0.35858,-2.13654 -0.29057,0.2352 -0.56989,0.55151 -0.79529,0.84691 -1.90043,2.49045 -2.77173,4.08018 -4.10832,6.73562 -0.0583,0.11585 -0.58012,1.28193 -0.85745,1.99854 0.54833,-0.28912 0.87985,-0.60627 1.37163,-0.97018 z"
         id="path4224"
         inkscape:connector-curvature="0"
         sodipodi:nodetypes="ccsssscssscssscsscssssssssscscscsccsccszsssscsssscccsscs" /><path
         style="fill:#6bb7bf;fill-opacity:1"
         d="m -319.37993,569.24494 c -0.18908,-0.33888 0.11949,-1.03603 0.15952,-1.20315 -0.47245,0.13179 -1.47344,0.29384 -2.55741,0.22966 -1.32125,-0.0782 -2.2644,-0.3 -3.27347,-1.87662 -2.5345,-3.96014 0.53908,-8.95249 3.81873,-10.90914 1.2168,-0.72596 2.61349,-1.36291 3.934,-1.921 0.57698,-0.24388 2.19002,0.89785 0.78914,0.93538 -1.38416,0.61979 -2.3865,0.89106 -3.67512,1.69155 -3.23631,2.01033 -5.77757,6.44739 -4.09393,9.75468 0.62455,1.22676 1.95367,1.7404 3.41259,1.6333 0.38074,-0.028 1.27589,-0.14009 1.97928,-0.44384 0.52769,-1.11281 0.40996,-0.87687 0.70049,-1.51236 1.22731,-2.68464 2.34951,-4.78101 4.23835,-7.55321 0.86069,-1.26328 1.85983,-2.5296 2.75876,-3.6037 0.80765,-0.96498 1.51341,-1.91424 2.68406,-2.43683 1.79651,0.34725 -0.11672,1.5876 -0.63188,2.2689 -0.82444,1.09031 -1.63729,2.37971 -1.84577,3.75217 -0.0989,0.65104 -0.21756,1.50504 -0.27492,2.81727 1.25379,-1.21913 5.06383,-5.03201 7.71394,-6.9222 0.9167,-0.65384 1.89861,-1.21221 3.04081,-1.53409 1.24095,-0.34969 2.46494,-0.14385 3.4383,0.624 0.89251,0.70411 1.26281,1.80111 1.42372,2.96663 0.28296,2.04998 -0.4854,4.08598 -1.38318,5.88273 -0.9092,1.81956 -2.53673,3.19959 -4.25906,4.23305 -1.42307,0.8539 -3.1103,1.47111 -4.79404,1.25855 -1.32197,-0.16692 -1.96766,-1.19774 -2.18664,-2.55521 -0.378,-2.34323 0.64174,-4.5728 1.90539,-6.60127 0.18703,-0.30023 0.30169,-0.51539 0.71475,-1.12383 -0.99059,0.87819 -1.78786,1.63551 -2.03803,1.89253 -1.15926,1.19105 -2.51558,2.31812 -3.57576,3.56002 -0.0375,1.29173 0.0523,2.55464 0.25354,3.81842 0.10747,0.67492 1.72331,1.3946 0.29668,1.53784 -1.20075,0.10084 -1.70959,-1.23575 -1.75144,-2.2288 -0.0172,-0.40871 -0.0402,-1.29173 -0.0767,-2.00455 -0.3684,0.31685 -0.49691,0.43955 -0.83197,0.7534 -1.52179,1.25142 -2.96676,2.46947 -4.19295,3.00922 -0.21263,0.0936 -0.40715,0.20537 -0.61755,0.3081 -0.058,0.13665 -0.55482,1.52382 -1.20227,1.5024 z m 13.59418,-2.54876 c 1.89064,-0.55583 3.76634,-1.49737 5.13435,-2.84014 0.83092,-0.81555 1.55658,-1.69776 2.1336,-2.67967 0.67589,-1.15011 1.08527,-2.30086 1.21368,-3.65515 0.10733,-1.13203 0.023,-2.21066 -0.31006,-3.2208 -0.41877,-1.27025 -2.03539,-0.97481 -3.00314,-0.59665 -1.11028,0.43381 -2.09188,1.16305 -3.1051,1.91604 1.41967,0.71532 -0.75653,1.73726 -1.19243,2.21634 -1.67,1.83549 -3.0197,4.25649 -2.5662,6.80173 0.11348,0.63681 0.62178,2.3739 1.6953,2.0583 z m -10.55317,-1.03241 c 1.32997,-0.9842 3.03865,-2.70761 3.72978,-3.40465 0.11537,-1.02217 0.18804,-1.93753 0.30108,-3.0697 0.0707,-0.55397 0.25877,-1.53354 0.35857,-2.13653 -0.29057,0.23519 -0.56989,0.5515 -0.79529,0.8469 -1.90043,2.49045 -2.77173,4.08018 -4.10832,6.73562 -0.0583,0.11585 -0.58012,1.28193 -0.85744,1.99854 0.54833,-0.28911 0.87984,-0.60627 1.37162,-0.97018 z"
         id="path4161"
         inkscape:connector-curvature="0"
         sodipodi:nodetypes="ccsssscssscssscsscssssssssscscscsccsccszsssscsssscccsscs" /></g></g><g
     id="g4342"
     transform="translate(194.80909,108.04958)"><g
       style="font-style:normal;font-variant:normal;font-weight:normal;font-stretch:normal;font-size:13.75000095px;line-height:125%;font-family:'URW Gothic L';-inkscape-font-specification:'URW Gothic L';text-align:start;letter-spacing:0px;word-spacing:0px;writing-mode:lr-tb;text-anchor:start;fill:#0b6790;fill-opacity:1;stroke:none;stroke-width:1px;stroke-linecap:butt;stroke-linejoin:miter;stroke-opacity:1"
       id="text4228"><path
         d="m -508.47178,24.55891 5.225,0 0,-0.92125 -4.2075,0 0,-9.24 -1.0175,0 0,10.16125 z"
         id="path4349"
         inkscape:connector-curvature="0" /><path
         d="m -494.62704,17.03766 -1.0175,0 0,1.33375 c -0.7425,-1.045 -1.66375,-1.5125 -2.97,-1.5125 -2.255,0 -3.96,1.705 -3.96,3.96 0,2.24125 1.71875,3.91875 4.02875,3.91875 1.27875,0 2.10375,-0.42625 2.90125,-1.49875 l 0,1.32 1.0175,0 0,-7.52125 z m -3.96,0.75625 c 1.65,0 2.9425,1.2925 2.9425,2.97 0,1.705 -1.265,3.03875 -2.8875,3.03875 -1.705,0 -3.01125,-1.33375 -3.01125,-3.0525 0,-1.63625 1.32,-2.95625 2.95625,-2.95625 z"
         id="path4351"
         inkscape:connector-curvature="0" /><path
         d="m -491.96512,24.55891 1.0175,0 0,-6.6 1.69125,0 0,-0.92125 -1.69125,0 0,-2.64 -1.0175,0 0,2.64 -1.6225,0 0,0.92125 1.6225,0 0,6.6 z"
         id="path4353"
         inkscape:connector-curvature="0" /><path
         d="m -481.87477,22.34516 c -0.78375,1.045 -1.5125,1.4575 -2.57125,1.4575 -1.69125,0 -3.025,-1.33375 -3.025,-2.9975 0,-1.69125 1.30625,-3.01125 2.98375,-3.01125 1.11375,0 2.035,0.53625 2.6125,1.52625 l 1.14125,0 c -0.605,-1.5125 -2.04875,-2.46125 -3.74,-2.46125 -2.255,0 -4.02875,1.7325 -4.02875,3.91875 0,2.24125 1.7875,3.96 4.0975,3.96 0.935,0 1.80125,-0.3025 2.5025,-0.8525 0.48125,-0.385 0.77,-0.75625 1.1825,-1.54 l -1.155,0 z"
         id="path4355"
         inkscape:connector-curvature="0" /><path
         d="m -479.32436,24.55891 1.0175,0 0,-4.125 c 0,-0.81125 0.11,-1.2925 0.4125,-1.705 0.4125,-0.59125 1.11375,-0.935 1.88375,-0.935 0.72875,0 1.41625,0.31625 1.815,0.825 0.3575,0.44 0.50875,1.0175 0.50875,1.8975 l 0,4.0425 1.0175,0 0,-4.0425 c 0,-1.1275 -0.20625,-1.8975 -0.64625,-2.48875 -0.56375,-0.7425 -1.5125,-1.16875 -2.59875,-1.16875 -1.03125,0 -1.88375,0.4125 -2.3925,1.155 l 0,-3.61625 -1.0175,0 0,10.16125 z"
         id="path4357"
         inkscape:connector-curvature="0" /></g><g
       style="font-style:normal;font-variant:normal;font-weight:normal;font-stretch:normal;font-size:13.75000095px;line-height:125%;font-family:'URW Gothic L';-inkscape-font-specification:'URW Gothic L';text-align:start;letter-spacing:0px;word-spacing:0px;writing-mode:lr-tb;text-anchor:start;fill:#2c4451;fill-opacity:1;stroke:none;stroke-width:1px;stroke-linecap:butt;stroke-linejoin:miter;stroke-opacity:1"
       id="text4236"><path
         d="m -511.22768,21.892515 c -0.42625,0.53625 -0.67375,0.81125 -1.0175,1.0725 -0.67375,0.53625 -1.595,0.83875 -2.51625,0.83875 -2.35125,0 -4.29,-1.9525 -4.29,-4.331251 0,-2.4475 1.85625,-4.3175 4.27625,-4.3175 0.88,0 1.705,0.23375 2.37875,0.6875 0.45375,0.28875 0.72875,0.59125 1.11375,1.19625 l 1.14125,0 c -0.78375,-1.74625 -2.57125,-2.81875 -4.675,-2.81875 -3.025,0 -5.26625,2.255 -5.26625,5.29375 0,2.970001 2.29625,5.225001 5.335,5.225001 2.0625,0 3.63,-0.9625 4.6475,-2.84625 l -1.1275,0 z"
         id="path4360"
         inkscape:connector-curvature="0" /></g></g><rect
     ry="3.0840514"
     y="257.10818"
     x="-321.45645"
     height="72.357582"
     width="39.77903"
     id="rect4161"
     style="opacity:1;fill:#7fa6ab;fill-opacity:1;stroke:#000000;stroke-width:2.49190331;stroke-linecap:round;stroke-linejoin:round;stroke-miterlimit:4;stroke-dasharray:none;stroke-opacity:1" /><rect
     style="opacity:1;fill:#7fa6ab;fill-opacity:1;stroke:#000000;stroke-width:2.49190331;stroke-linecap:round;stroke-linejoin:round;stroke-miterlimit:4;stroke-dasharray:none;stroke-opacity:1"
     id="rect4156"
     width="40.291954"
     height="37.66629"
     x="-321.71289"
     y="145.22165"
     ry="3.5175517" /><rect
     style="opacity:1;fill:#7fa6ab;fill-opacity:1;stroke:#000000;stroke-width:2.49190331;stroke-linecap:round;stroke-linejoin:round;stroke-miterlimit:4;stroke-dasharray:none;stroke-opacity:1"
     id="rect4300"
     width="39.77903"
     height="72.357582"
     x="-321.45645"
     y="356.30963"
     ry="3.0840514" /><rect
     ry="3.0840514"
     y="455.51117"
     x="-321.45645"
     height="72.357582"
     width="39.77903"
     id="rect4368"
     style="opacity:1;fill:#7fa6ab;fill-opacity:1;stroke:#000000;stroke-width:2.49190331;stroke-linecap:round;stroke-linejoin:round;stroke-miterlimit:4;stroke-dasharray:none;stroke-opacity:1" /><g
     style="font-style:normal;font-variant:normal;font-weight:normal;font-stretch:normal;font-size:11.25000095px;line-height:125%;font-family:'Luxi Sans';-inkscape-font-specification:'Luxi Sans';text-align:start;letter-spacing:0px;word-spacing:0px;writing-mode:lr-tb;text-anchor:start;fill:#0b6790;fill-opacity:1;stroke:none;stroke-width:1px;stroke-linecap:butt;stroke-linejoin:miter;stroke-opacity:1"
     id="text4155"
     transform="translate(9.383905,3.1819512)"><path
       d="m -325.01608,340.35733 q -1.25794,0.62073 -2.69165,0.62073 -2.00501,0 -3.04871,-1.08765 -1.04919,-1.08765 -1.04919,-3.16955 0,-2.07642 1.06567,-3.18055 1.06567,-1.09863 3.08167,-1.09863 1.12609,0 2.63122,0.35706 l 0,1.08215 q -1.70837,-0.57678 -2.69165,-0.57678 -1.37878,0 -2.11487,0.8789 -0.73608,0.87342 -0.73608,2.52686 0,1.61499 0.78552,2.4884 0.78552,0.87891 2.20825,0.87891 1.19202,0 2.55982,-0.70862 l 0,0.98877 z"
       id="path4195"
       inkscape:connector-curvature="0" /><path
       d="m -323.46701,340.77481 0,-8.67371 1.08215,0 0,3.82874 q 0.401,-0.55481 0.79102,-0.84045 0.5658,-0.41199 1.24145,-0.41199 1.51612,0 1.51612,1.81274 l 0,4.28467 -1.08765,0 0,-3.93311 q 0,-0.72509 -0.14831,-0.97778 -0.15381,-0.25818 -0.57129,-0.25818 -0.8899,0 -1.74134,1.30738 l 0,3.86169 -1.08215,0 z"
       id="path4197"
       inkscape:connector-curvature="0" /><path
       d="m -314.92514,334.6774 q 1.22498,0 1.93909,0.83496 0.71411,0.82947 0.71411,2.27417 0,1.46667 -0.71411,2.29614 -0.71411,0.82947 -1.97754,0.82947 -1.08215,0 -1.75781,-0.68665 -0.85694,-0.86242 -0.85694,-2.43347 0,-1.4447 0.71411,-2.27966 0.71412,-0.83496 1.93909,-0.83496 z m 0,0.81299 q -1.48315,0 -1.48315,2.29614 0,2.31262 1.47766,2.31262 1.48865,0 1.48865,-2.3291 0,-2.27966 -1.48316,-2.27966 z"
       id="path4199"
       inkscape:connector-curvature="0" /><path
       d="m -310.94259,340.77481 0,-5.96558 1.08215,0 0,1.12061 q 0.23621,-0.5658 0.50537,-0.84595 0.39001,-0.40649 0.92834,-0.40649 0.10438,0 0.30762,0.0275 l 0,1.01075 q -0.28564,-0.0934 -0.46142,-0.0934 -0.59876,0 -1.27991,1.21948 l 0,3.93311 -1.08215,0 z"
       id="path4201"
       inkscape:connector-curvature="0" /><path
       d="m -303.76303,338.67642 0,-3.0487 q -0.76355,-0.13733 -1.1261,-0.13733 -1.55456,0 -1.55456,2.36206 0,0.97778 0.30761,1.54358 0.30213,0.56579 0.81849,0.56579 0.69213,0 1.55456,-1.2854 z m 0,0.98328 q -0.30762,0.5603 -0.64819,0.84595 -0.4834,0.40649 -1.13709,0.40649 -0.92834,0 -1.49414,-0.81299 -0.57129,-0.80749 -0.57129,-2.14783 0,-1.56005 0.73609,-2.41699 0.73608,-0.85693 2.07092,-0.85693 0.51636,0 1.0437,0.13183 l 0,-2.70813 1.08215,0 0,8.67371 -1.08215,0 0,-1.11511 z"
       id="path4203"
       inkscape:connector-curvature="0" /><path
       d="m -297.70407,340.77481 0,-8.12988 1.15357,0 0,8.12988 -1.15357,0 z"
       id="path4205"
       inkscape:connector-curvature="0" /><path
       d="m -294.72677,340.77481 0,-5.96558 1.08215,0 0,1.12061 q 0.401,-0.55481 0.79102,-0.84045 0.56579,-0.41199 1.24145,-0.41199 1.51612,0 1.51612,1.81274 l 0,4.28467 -1.08765,0 0,-3.93311 q 0,-0.72509 -0.14832,-0.97778 -0.15381,-0.25818 -0.57129,-0.25818 -0.88989,0 -1.74133,1.30738 l 0,3.86169 -1.08215,0 z"
       id="path4207"
       inkscape:connector-curvature="0" /></g><g
     style="font-style:normal;font-variant:normal;font-weight:normal;font-stretch:normal;font-size:11.25000095px;line-height:125%;font-family:'Luxi Sans';-inkscape-font-specification:'Luxi Sans';text-align:start;letter-spacing:0px;word-spacing:0px;writing-mode:lr-tb;text-anchor:start;fill:#0b6790;fill-opacity:1;stroke:none;stroke-width:1px;stroke-linecap:butt;stroke-linejoin:miter;stroke-opacity:1"
     id="text4163"
     transform="translate(9.383905,3.1819512)"><path
       d="m -329.75668,538.35736 q -1.25794,0.62073 -2.69165,0.62073 -2.00501,0 -3.04871,-1.08765 -1.04919,-1.08764 -1.04919,-3.16955 0,-2.07642 1.06567,-3.18055 1.06567,-1.09863 3.08167,-1.09863 1.12609,0 2.63122,0.35706 l 0,1.08215 q -1.70837,-0.57678 -2.69165,-0.57678 -1.37878,0 -2.11487,0.8789 -0.73608,0.87342 -0.73608,2.52686 0,1.61499 0.78552,2.4884 0.78552,0.87891 2.20825,0.87891 1.19202,0 2.55982,-0.70862 l 0,0.98877 z"
       id="path4230"
       inkscape:connector-curvature="0" /><path
       d="m -328.20761,538.77484 0,-8.67371 1.08215,0 0,3.82874 q 0.401,-0.55481 0.79102,-0.84045 0.56579,-0.41199 1.24145,-0.41199 1.51612,0 1.51612,1.81274 l 0,4.28467 -1.08765,0 0,-3.9331 q 0,-0.7251 -0.14831,-0.97779 -0.15381,-0.25818 -0.57129,-0.25818 -0.8899,0 -1.74134,1.30738 l 0,3.86169 -1.08215,0 z"
       id="path4232"
       inkscape:connector-curvature="0" /><path
       d="m -319.66574,532.67743 q 1.22498,0 1.93909,0.83496 0.71411,0.82947 0.71411,2.27417 0,1.46667 -0.71411,2.29614 -0.71411,0.82947 -1.97754,0.82947 -1.08215,0 -1.75781,-0.68665 -0.85694,-0.86242 -0.85694,-2.43347 0,-1.4447 0.71411,-2.27966 0.71412,-0.83496 1.93909,-0.83496 z m 0,0.81299 q -1.48315,0 -1.48315,2.29614 0,2.31262 1.47766,2.31262 1.48865,0 1.48865,-2.3291 0,-2.27966 -1.48316,-2.27966 z"
       id="path4234"
       inkscape:connector-curvature="0" /><path
       d="m -315.6832,538.77484 0,-5.96558 1.08216,0 0,1.12061 q 0.2362,-0.5658 0.50537,-0.84595 0.39001,-0.40649 0.92834,-0.40649 0.10437,0 0.30762,0.0275 l 0,1.01075 q -0.28564,-0.0934 -0.46142,-0.0934 -0.59876,0 -1.27991,1.21949 l 0,3.9331 -1.08216,0 z"
       id="path4236"
       inkscape:connector-curvature="0" /><path
       d="m -308.50363,536.67645 0,-3.0487 q -0.76355,-0.13733 -1.1261,-0.13733 -1.55456,0 -1.55456,2.36206 0,0.97778 0.30761,1.54358 0.30213,0.56579 0.81849,0.56579 0.69213,0 1.55456,-1.2854 z m 0,0.98328 q -0.30762,0.5603 -0.64819,0.84595 -0.4834,0.40649 -1.13709,0.40649 -0.92834,0 -1.49414,-0.81299 -0.57129,-0.80749 -0.57129,-2.14783 0,-1.56005 0.73609,-2.41699 0.73608,-0.85693 2.07092,-0.85693 0.51636,0 1.0437,0.13183 l 0,-2.70813 1.08215,0 0,8.67371 -1.08215,0 0,-1.11511 z"
       id="path4238"
       inkscape:connector-curvature="0" /><path
       d="m -299.05539,530.44171 q 1.75232,0 2.81251,1.15906 1.05468,1.16455 1.05468,3.09814 0,1.97205 -1.05468,3.12561 -1.06019,1.15357 -2.86744,1.15357 -1.54907,0 -2.55432,-0.95032 -1.25793,-1.19202 -1.25793,-3.31787 0,-1.95007 1.05468,-3.10913 1.05469,-1.15906 2.8125,-1.15906 z m 0,0.86243 q -1.24694,0 -1.93908,0.89538 -0.69214,0.89539 -0.69214,2.50489 0,1.59851 0.69214,2.50488 0.68664,0.90637 1.91162,0.90637 1.13708,0 1.81274,-0.7251 0.84595,-0.89538 0.84595,-2.69165 0,-1.604 -0.69763,-2.49939 -0.69763,-0.89538 -1.9336,-0.89538 z"
       id="path4240"
       inkscape:connector-curvature="0" /><path
       d="m -290.3652,538.77484 0,-1.11511 q -0.401,0.55481 -0.78552,0.84045 -0.5658,0.41199 -1.24146,0.41199 -1.51611,0 -1.51611,-1.81824 l 0,-4.28467 1.08215,0 0,3.93311 q 0,0.7196 0.14832,0.97778 0.15381,0.25818 0.57129,0.25818 0.88989,0 1.74133,-1.30188 l 0,-3.86719 1.08215,0 0,5.96558 -1.08215,0 z"
       id="path4242"
       inkscape:connector-curvature="0" /><path
       d="m -285.51474,538.8078 q -0.32959,0.10437 -0.62072,0.10437 -1.45569,0 -1.45569,-1.78528 l 0,-3.50464 -0.67566,0 0,-0.81299 0.67566,0 0,-1.08215 1.08215,-0.10437 0,1.18652 1.15357,0 0,0.81299 -1.15357,0 0,3.30689 q 0,0.70862 0.12085,0.93933 0.12085,0.23071 0.50537,0.23071 0.20874,0 0.36804,-0.0604 l 0,0.76904 z"
       id="path4244"
       inkscape:connector-curvature="0" /></g><g
     style="font-style:normal;font-variant:normal;font-weight:normal;font-stretch:normal;font-size:11.25000095px;line-height:125%;font-family:'Luxi Sans';-inkscape-font-specification:'Luxi Sans';text-align:start;letter-spacing:0px;word-spacing:0px;writing-mode:lr-tb;text-anchor:start;fill:#0b6790;fill-opacity:1;stroke:none;stroke-width:1px;stroke-linecap:butt;stroke-linejoin:miter;stroke-opacity:1"
     id="text4167"
     transform="translate(9.3839135,3.1819512)"><path
       d="m -333.86588,438.77481 0,-7.26746 -2.74658,0 0,-0.86242 6.64673,0 0,0.86242 -2.74658,0 0,7.26746 -1.15357,0 z"
       id="path4210"
       inkscape:connector-curvature="0" /><path
       d="m -330.00967,438.77481 0,-5.96558 1.08215,0 0,1.12061 q 0.23621,-0.5658 0.50537,-0.84595 0.39002,-0.40649 0.92835,-0.40649 0.10437,0 0.30761,0.0275 l 0,1.01075 q -0.28564,-0.0934 -0.46142,-0.0934 -0.59876,0 -1.27991,1.21948 l 0,3.93311 -1.08215,0 z"
       id="path4212"
       inkscape:connector-curvature="0" /><path
       d="m -322.93448,438.01675 q -1.01623,0.89539 -1.97754,0.89539 -0.77453,0 -1.26342,-0.45593 -0.4889,-0.46143 -0.4889,-1.18103 0,-2.02698 3.31788,-2.02698 l 0.25268,0 0,-0.71961 q 0,-1.0382 -1.14807,-1.0382 -0.88989,0 -1.90613,0.52734 l 0,-0.89539 q 1.1261,-0.44494 2.11487,-0.44494 1.05469,0 1.53809,0.44494 0.48339,0.43946 0.48339,1.40625 l 0,2.70264 q 0,0.92835 0.57129,0.92835 0.0769,0 0.20874,-0.022 l 0.0769,0.59876 q -0.401,0.17578 -0.802,0.17578 -0.37354,0 -0.61524,-0.20874 -0.2362,-0.20325 -0.36255,-0.68665 z m -0.1593,-0.58776 0,-1.54358 -0.35705,-0.011 q -0.32959,-0.011 -0.7306,0.0494 -1.3623,0.19226 -1.3623,1.18652 0,0.91736 0.99426,0.91736 0.69214,0 1.45569,-0.59875 z"
       id="path4214"
       inkscape:connector-curvature="0" /><path
       d="m -320.07803,438.77481 0,-5.96558 1.08215,0 0,1.12061 q 0.401,-0.55481 0.79102,-0.84045 0.56579,-0.41199 1.24145,-0.41199 1.51612,0 1.51612,1.81274 l 0,4.28467 -1.08765,0 0,-3.93311 q 0,-0.72509 -0.14832,-0.97778 -0.15381,-0.25818 -0.57129,-0.25818 -0.88989,0 -1.74133,1.30738 l 0,3.86169 -1.08215,0 z"
       id="path4217"
       inkscape:connector-curvature="0" /><path
       d="m -314.02456,438.56607 0,-0.99426 q 1.09314,0.52734 2.01599,0.52734 1.24695,0 1.24695,-0.8789 0,-0.60425 -0.87342,-0.8899 l -0.9668,-0.3186 q -1.38977,-0.45593 -1.38977,-1.66992 0,-1.66443 2.27417,-1.66443 0.65369,0 1.58753,0.17578 l 0,0.90637 q -0.82947,-0.26916 -1.65894,-0.26916 -1.13159,0 -1.13159,0.74157 0,0.53833 0.77454,0.79102 l 0.86242,0.28015 q 1.6095,0.52185 1.6095,1.81275 0,0.82946 -0.63721,1.31286 -0.6372,0.4834 -1.74133,0.4834 -0.87341,0 -1.97204,-0.34607 z"
       id="path4219"
       inkscape:connector-curvature="0" /><path
       d="m -307.10867,440.94461 -1.08215,0 0,-8.13538 1.08215,0 0,1.12061 q 0.30762,-0.5603 0.64819,-0.84595 0.4834,-0.40649 1.13709,-0.40649 0.92834,0 1.49414,0.80749 0.57129,0.8075 0.57129,2.14783 0,1.56555 -0.73609,2.42249 -0.73059,0.85693 -2.07641,0.85693 -0.49988,0 -1.03821,-0.13733 l 0,2.1698 z m 0,-6.03149 0,3.04321 q 0.75256,0.14282 1.13159,0.14282 1.54907,0 1.54907,-2.35657 0,-0.99426 -0.30761,-1.55456 -0.30213,-0.5658 -0.81849,-0.5658 -0.69213,0 -1.55456,1.2909 z"
       id="path4221"
       inkscape:connector-curvature="0" /><path
       d="m -299.64895,432.6774 q 1.22497,0 1.93908,0.83496 0.71412,0.82947 0.71412,2.27417 0,1.46667 -0.71412,2.29614 -0.71411,0.82947 -1.97753,0.82947 -1.08216,0 -1.75782,-0.68665 -0.85693,-0.86242 -0.85693,-2.43347 0,-1.4447 0.71411,-2.27966 0.71411,-0.83496 1.93909,-0.83496 z m 0,0.81299 q -1.48316,0 -1.48316,2.29614 0,2.31262 1.47766,2.31262 1.48865,0 1.48865,-2.3291 0,-2.27966 -1.48315,-2.27966 z"
       id="path4223"
       inkscape:connector-curvature="0" /><path
       d="m -295.87515,438.56607 0,-0.99426 q 1.09314,0.52734 2.01599,0.52734 1.24695,0 1.24695,-0.8789 0,-0.60425 -0.87341,-0.8899 l -0.9668,-0.3186 q -1.38977,-0.45593 -1.38977,-1.66992 0,-1.66443 2.27417,-1.66443 0.65369,0 1.58752,0.17578 l 0,0.90637 q -0.82946,-0.26916 -1.65893,-0.26916 -1.13159,0 -1.13159,0.74157 0,0.53833 0.77453,0.79102 l 0.86243,0.28015 q 1.6095,0.52185 1.6095,1.81275 0,0.82946 -0.63721,1.31286 -0.63721,0.4834 -1.74133,0.4834 -0.87342,0 -1.97205,-0.34607 z"
       id="path4225"
       inkscape:connector-curvature="0" /><path
       d="m -286.39395,435.14932 q -0.0165,-0.53833 -0.10986,-0.81848 -0.28565,-0.84595 -1.24146,-0.84595 -0.66467,0 -1.04919,0.39551 -0.37354,0.37903 -0.46692,1.26892 l 2.86743,0 z m 1.07117,2.5763 0,0.85693 q -1.11511,0.32959 -2.04346,0.32959 -1.40075,0 -2.22473,-0.86792 -0.82397,-0.86792 -0.82397,-2.3291 0,-1.38977 0.73059,-2.21375 0.72509,-0.82397 1.96655,-0.82397 1.42273,0 2.0105,1.01074 0.43396,0.75256 0.41748,1.93909 l -0.005,0.33508 -3.98255,0 q 0.0659,0.65369 0.21423,0.99426 0.4834,1.1316 1.92811,1.1316 0.81848,0 1.81274,-0.36255 z"
       id="path4227"
       inkscape:connector-curvature="0" /></g><g
     style="font-style:normal;font-variant:normal;font-weight:normal;font-stretch:normal;font-size:11.25000095px;line-height:125%;font-family:'Luxi Sans';-inkscape-font-specification:'Luxi Sans';text-align:start;letter-spacing:0px;word-spacing:0px;writing-mode:lr-tb;text-anchor:start;fill:#0b6790;fill-opacity:1;stroke:none;stroke-width:1px;stroke-linecap:butt;stroke-linejoin:miter;stroke-opacity:1"
     id="text4171"
     transform="translate(9.38391,33.941104)"><path
       d="m -323.76089,196.53226 0,-8.12989 1.15356,0 0,7.26746 3.98804,0 0,0.86243 -5.1416,0 z"
       id="path4184"
       inkscape:connector-curvature="0" /><path
       d="m -314.15335,195.7742 q -1.01624,0.89539 -1.97754,0.89539 -0.77454,0 -1.26343,-0.45594 -0.48889,-0.46142 -0.48889,-1.18103 0,-2.02697 3.31787,-2.02697 l 0.25269,0 0,-0.71961 q 0,-1.03821 -1.14807,-1.03821 -0.8899,0 -1.90613,0.52735 l 0,-0.89539 q 1.1261,-0.44495 2.11487,-0.44495 1.05468,0 1.53808,0.44495 0.4834,0.43945 0.4834,1.40625 l 0,2.70264 q 0,0.92834 0.57129,0.92834 0.0769,0 0.20874,-0.022 l 0.0769,0.59875 q -0.40101,0.17579 -0.80201,0.17579 -0.37353,0 -0.61523,-0.20874 -0.23621,-0.20325 -0.36255,-0.68665 z m -0.1593,-0.58777 0,-1.54358 -0.35706,-0.011 q -0.32959,-0.011 -0.73059,0.0494 -1.3623,0.19227 -1.3623,1.18653 0,0.91736 0.99426,0.91736 0.69214,0 1.45569,-0.59876 z"
       id="path4186"
       inkscape:connector-curvature="0" /><path
       d="m -309.23147,196.56522 q -0.32959,0.10437 -0.62073,0.10437 -1.45569,0 -1.45569,-1.78528 l 0,-3.50464 -0.67566,0 0,-0.81299 0.67566,0 0,-1.08215 1.08215,-0.10437 0,1.18652 1.15357,0 0,0.81299 -1.15357,0 0,3.30688 q 0,0.70862 0.12085,0.93933 0.12085,0.23072 0.50537,0.23072 0.20874,0 0.36805,-0.0604 l 0,0.76905 z"
       id="path4188"
       inkscape:connector-curvature="0" /><path
       d="m -303.93606,196.35098 q -0.99427,0.31861 -1.87317,0.31861 -1.23597,0 -1.98853,-0.86792 -0.75256,-0.86243 -0.75256,-2.2522 0,-1.46118 0.76904,-2.28516 0.76355,-0.82947 2.14233,-0.82947 0.69214,0 1.63697,0.19776 l 0,0.90088 q -0.90088,-0.26917 -1.43921,-0.26917 -1.88965,0 -1.88965,2.28516 0,1.07666 0.48889,1.65893 0.4834,0.58777 1.35681,0.58777 0.66468,0 1.54908,-0.37903 l 0,0.93384 z"
       id="path4190"
       inkscape:connector-curvature="0" /><path
       d="m -302.77151,196.53226 0,-8.67371 1.08215,0 0,3.82874 q 0.401,-0.55481 0.79102,-0.84046 0.56579,-0.41199 1.24145,-0.41199 1.51611,0 1.51611,1.81275 l 0,4.28467 -1.08764,0 0,-3.93311 q 0,-0.7251 -0.14832,-0.97778 -0.15381,-0.25818 -0.57129,-0.25818 -0.88989,0 -1.74133,1.30737 l 0,3.8617 -1.08215,0 z"
       id="path4192"
       inkscape:connector-curvature="0" /></g><flowRoot
     xml:space="preserve"
     id="flowRoot4175"
     style="font-style:normal;font-variant:normal;font-weight:normal;font-stretch:normal;font-size:11.25px;line-height:125%;font-family:'Open Sans';-inkscape-font-specification:'Open Sans, Normal';text-align:start;letter-spacing:0px;word-spacing:0px;writing-mode:lr-tb;text-anchor:start;fill:#000000;fill-opacity:1;stroke:none;stroke-width:1px;stroke-linecap:butt;stroke-linejoin:miter;stroke-opacity:1"
     transform="translate(-336.47437,116.83992)"><flowRegion
       id="flowRegion4177"><rect
         id="rect4179"
         width="160.51323"
         height="305.47012"
         x="-63.63961"
         y="120.14635" /></flowRegion><flowPara
       id="flowPara4181" /></flowRoot><flowRoot
     xml:space="preserve"
     id="flowRoot4204"
     style="fill:black;stroke:none;stroke-opacity:1;stroke-width:1px;stroke-linejoin:miter;stroke-linecap:butt;fill-opacity:1;font-family:'Droid Sans Mono';font-style:normal;font-weight:normal;font-size:7.5px;line-height:125%;letter-spacing:0px;word-spacing:0px;-inkscape-font-specification:'Droid Sans Mono, Normal';font-stretch:normal;font-variant:normal;text-anchor:start;text-align:start;writing-mode:tb"><flowRegion
       id="flowRegion4206"><rect
         id="rect4208"
         width="58.689861"
         height="120.20815"
         x="87.681236"
         y="300.45853" /></flowRegion><flowPara
       id="flowPara4210"></flowPara></flowRoot><flowRoot
     xml:space="preserve"
     id="flowRoot4212"
     style="fill:black;stroke:none;stroke-opacity:1;stroke-width:1px;stroke-linejoin:miter;stroke-linecap:butt;fill-opacity:1;font-family:'Droid Sans Mono';font-style:normal;font-weight:normal;font-size:7.5px;line-height:125%;letter-spacing:0px;word-spacing:0px;-inkscape-font-specification:'Droid Sans Mono, Normal';font-stretch:normal;font-variant:normal;text-anchor:start;text-align:start;writing-mode:tb"><flowRegion
       id="flowRegion4214"><rect
         id="rect4216"
         width="74.246208"
         height="441.23462"
         x="104.6518"
         y="42.364559" /></flowRegion><flowPara
       id="flowPara4218"></flowPara></flowRoot><text
     xml:space="preserve"
     style="font-style:normal;font-variant:normal;font-weight:bold;font-stretch:normal;font-size:8.75px;line-height:125%;font-family:'Luxi Sans';-inkscape-font-specification:'Luxi Sans, Bold';text-align:start;letter-spacing:0px;word-spacing:0px;writing-mode:tb-rl;text-anchor:start;fill:#000000;fill-opacity:1;stroke:none;stroke-width:1px;stroke-linecap:butt;stroke-linejoin:miter;stroke-opacity:1"
     x="-217.75"
     y="372.40488"
     id="text4405"
     sodipodi:linespacing="125%"><tspan
       sodipodi:role="line"
       id="tspan4407"
       x="-81.435089"
       y="236.08998"></tspan></text>
<g
     id="g4459"><g
       transform="translate(-59.927298,-32.703686)"
       id="g4446"><path
         inkscape:connector-curvature="0"
         id="path4418"
         style="font-style:normal;font-variant:normal;font-weight:bold;font-stretch:normal;font-size:medium;line-height:125%;font-family:'Luxi Sans';-inkscape-font-specification:'Luxi Sans, Bold';text-align:start;letter-spacing:0px;word-spacing:0px;writing-mode:tb-rl;text-anchor:start;fill:#0b6790;fill-opacity:1;stroke:none;stroke-width:1px;stroke-linecap:butt;stroke-linejoin:miter;stroke-opacity:1"
         d="m -213.78101,397.49643 -1.88232,-5.41992 1.20483,0 1.4209,4.04663 1.36231,-4.04663 0.83496,0 -1.81275,5.41992 -1.12793,0 z" /><path
         inkscape:connector-curvature="0"
         id="path4420"
         style="font-style:normal;font-variant:normal;font-weight:bold;font-stretch:normal;font-size:medium;line-height:125%;font-family:'Luxi Sans';-inkscape-font-specification:'Luxi Sans, Bold';text-align:start;letter-spacing:0px;word-spacing:0px;writing-mode:tb-rl;text-anchor:start;fill:#0b6790;fill-opacity:1;stroke:none;stroke-width:1px;stroke-linecap:butt;stroke-linejoin:miter;stroke-opacity:1"
         d="m -216.22193,401.49434 5.41551,-4.0967 0.53201,0.38921 -5.41551,4.0967 -0.53201,-0.38921 z" /><path
         inkscape:connector-curvature="0"
         id="path4422"
         style="font-style:normal;font-variant:normal;font-weight:bold;font-stretch:normal;font-size:medium;line-height:125%;font-family:'Luxi Sans';-inkscape-font-specification:'Luxi Sans, Bold';text-align:start;letter-spacing:0px;word-spacing:0px;writing-mode:tb-rl;text-anchor:start;fill:#0b6790;fill-opacity:1;stroke:none;stroke-width:1px;stroke-linecap:butt;stroke-linejoin:miter;stroke-opacity:1"
         d="m -213.06956,402.33308 q 1.22315,0 1.92261,0.75439 0.69946,0.7544 0.69946,2.08374 0,1.35132 -0.69946,2.10205 -0.69946,0.75074 -1.95923,0.75074 -1.08398,0 -1.75415,-0.6189 -0.83496,-0.77271 -0.83496,-2.23023 0,-1.333 0.69946,-2.0874 0.69947,-0.75439 1.92627,-0.75439 z m 0,0.74341 q -0.67749,0 -1.05102,0.55297 -0.3772,0.54932 -0.3772,1.54541 0,0.98511 0.37353,1.54541 0.37354,0.55665 1.04004,0.55665 0.61524,0 0.98145,-0.43946 0.45776,-0.55298 0.45776,-1.66992 0,-0.98877 -0.37719,-1.53809 -0.3772,-0.55297 -1.04737,-0.55297 z" /><path
         inkscape:connector-curvature="0"
         id="path4424"
         style="font-style:normal;font-variant:normal;font-weight:bold;font-stretch:normal;font-size:medium;line-height:125%;font-family:'Luxi Sans';-inkscape-font-specification:'Luxi Sans, Bold';text-align:start;letter-spacing:0px;word-spacing:0px;writing-mode:tb-rl;text-anchor:start;fill:#0b6790;fill-opacity:1;stroke:none;stroke-width:1px;stroke-linecap:butt;stroke-linejoin:miter;stroke-opacity:1"
         d="m -210.81104,413.80497 0,0.8313 q -0.82763,0.35156 -1.92626,0.35156 -1.42457,0 -2.17896,-0.73975 -0.75073,-0.73608 -0.75073,-2.10937 0,-1.39527 0.75805,-2.1167 0.75806,-0.7251 2.24854,-0.7251 0.87891,0 1.80176,0.20874 l 0,0.88257 q -1.02539,-0.3479 -1.73584,-0.3479 -1.875,0 -1.875,2.08008 0,2.0874 1.98486,2.0874 0.8313,0 1.67358,-0.40283 z" /><path
         inkscape:connector-curvature="0"
         id="path4426"
         style="font-style:normal;font-variant:normal;font-weight:bold;font-stretch:normal;font-size:medium;line-height:125%;font-family:'Luxi Sans';-inkscape-font-specification:'Luxi Sans, Bold';text-align:start;letter-spacing:0px;word-spacing:0px;writing-mode:tb-rl;text-anchor:start;fill:#0b6790;fill-opacity:1;stroke:none;stroke-width:1px;stroke-linecap:butt;stroke-linejoin:miter;stroke-opacity:1"
         d="m -213.54879,421.72778 0,-4.67652 -1.58204,0 0,-0.74341 4.292,0 0,0.74341 -1.58204,0 0,4.67652 -1.12792,0 z" /></g><g
       transform="translate(-84.528003,3.8890872)"
       id="g4453"><path
         inkscape:connector-curvature="0"
         id="path4429"
         style="font-style:normal;font-variant:normal;font-weight:bold;font-stretch:normal;font-size:medium;line-height:125%;font-family:'Luxi Sans';-inkscape-font-specification:'Luxi Sans, Bold';text-align:start;letter-spacing:0px;word-spacing:0px;writing-mode:tb-rl;text-anchor:start;fill:#0b6790;fill-opacity:1;stroke:none;stroke-width:1px;stroke-linecap:butt;stroke-linejoin:miter;stroke-opacity:1"
         d="m -186.36597,397.86337 0,2.50489 q -1.05835,0.26367 -1.91894,0.26367 -1.27075,0 -1.91529,-0.4065 -0.45776,-0.2893 -0.75073,-0.77636 -0.41382,-0.68482 -0.41382,-1.66626 0,-1.25977 0.68482,-2.02881 0.39551,-0.44312 0.9375,-0.62622 0.54565,-0.18677 1.44287,-0.18677 1.00342,0 1.92993,0.20874 l 0,0.88257 q -1.14258,-0.3479 -1.91894,-0.3479 -0.92286,0 -1.40259,0.53833 -0.47608,0.53467 -0.47608,1.55639 0,1.01075 0.5127,1.55274 0.50903,0.53833 1.44653,0.53833 0.26001,0 0.71411,-0.0513 l 0,-1.21216 -0.91552,0 0,-0.74341 2.04345,0 z" /><path
         inkscape:connector-curvature="0"
         id="path4431"
         style="font-style:normal;font-variant:normal;font-weight:bold;font-stretch:normal;font-size:medium;line-height:125%;font-family:'Luxi Sans';-inkscape-font-specification:'Luxi Sans, Bold';text-align:start;letter-spacing:0px;word-spacing:0px;writing-mode:tb-rl;text-anchor:start;fill:#0b6790;fill-opacity:1;stroke:none;stroke-width:1px;stroke-linecap:butt;stroke-linejoin:miter;stroke-opacity:1"
         d="m -191.25488,407.71078 2.10205,-5.41992 1.12793,0 2.09472,5.41992 -1.15356,0 -0.55298,-1.44653 -2.24121,0 -0.55298,1.44653 -0.82397,0 z m 1.65527,-2.16796 1.68457,0 -0.84228,-2.16065 -0.84229,2.16065 z" /><path
         inkscape:connector-curvature="0"
         id="path4433"
         style="font-style:normal;font-variant:normal;font-weight:bold;font-stretch:normal;font-size:medium;line-height:125%;font-family:'Luxi Sans';-inkscape-font-specification:'Luxi Sans, Bold';text-align:start;letter-spacing:0px;word-spacing:0px;writing-mode:tb-rl;text-anchor:start;fill:#0b6790;fill-opacity:1;stroke:none;stroke-width:1px;stroke-linecap:butt;stroke-linejoin:miter;stroke-opacity:1"
         d="m -189.16016,414.55843 0,-4.67651 -1.58203,0 0,-0.74341 4.29199,0 0,0.74341 -1.58203,0 0,4.67651 -1.12793,0 z" /><path
         inkscape:connector-curvature="0"
         id="path4435"
         style="font-style:normal;font-variant:normal;font-weight:bold;font-stretch:normal;font-size:medium;line-height:125%;font-family:'Luxi Sans';-inkscape-font-specification:'Luxi Sans, Bold';text-align:start;letter-spacing:0px;word-spacing:0px;writing-mode:tb-rl;text-anchor:start;fill:#0b6790;fill-opacity:1;stroke:none;stroke-width:1px;stroke-linecap:butt;stroke-linejoin:miter;stroke-opacity:1"
         d="m -190.62134,421.38793 0,-5.41992 3.97705,0 0,0.74341 -2.84912,0 0,1.51245 2.44263,0 0,0.7251 -2.44263,0 0,1.66992 3.02124,0 0,0.76904 -4.14917,0 z" /></g></g><g
     id="g4472"
     transform="translate(0,-98.707108)"><g
       id="g4474"
       transform="translate(-59.927298,-32.703686)"><path
         d="m -213.78101,397.49643 -1.88232,-5.41992 1.20483,0 1.4209,4.04663 1.36231,-4.04663 0.83496,0 -1.81275,5.41992 -1.12793,0 z"
         style="font-style:normal;font-variant:normal;font-weight:bold;font-stretch:normal;font-size:medium;line-height:125%;font-family:'Luxi Sans';-inkscape-font-specification:'Luxi Sans, Bold';text-align:start;letter-spacing:0px;word-spacing:0px;writing-mode:tb-rl;text-anchor:start;fill:#0b6790;fill-opacity:1;stroke:none;stroke-width:1px;stroke-linecap:butt;stroke-linejoin:miter;stroke-opacity:1"
         id="path4476"
         inkscape:connector-curvature="0" /><path
         d="m -216.22193,401.49434 5.41551,-4.0967 0.53201,0.38921 -5.41551,4.0967 -0.53201,-0.38921 z"
         style="font-style:normal;font-variant:normal;font-weight:bold;font-stretch:normal;font-size:medium;line-height:125%;font-family:'Luxi Sans';-inkscape-font-specification:'Luxi Sans, Bold';text-align:start;letter-spacing:0px;word-spacing:0px;writing-mode:tb-rl;text-anchor:start;fill:#0b6790;fill-opacity:1;stroke:none;stroke-width:1px;stroke-linecap:butt;stroke-linejoin:miter;stroke-opacity:1"
         id="path4478"
         inkscape:connector-curvature="0" /><path
         d="m -213.06956,402.33308 q 1.22315,0 1.92261,0.75439 0.69946,0.7544 0.69946,2.08374 0,1.35132 -0.69946,2.10205 -0.69946,0.75074 -1.95923,0.75074 -1.08398,0 -1.75415,-0.6189 -0.83496,-0.77271 -0.83496,-2.23023 0,-1.333 0.69946,-2.0874 0.69947,-0.75439 1.92627,-0.75439 z m 0,0.74341 q -0.67749,0 -1.05102,0.55297 -0.3772,0.54932 -0.3772,1.54541 0,0.98511 0.37353,1.54541 0.37354,0.55665 1.04004,0.55665 0.61524,0 0.98145,-0.43946 0.45776,-0.55298 0.45776,-1.66992 0,-0.98877 -0.37719,-1.53809 -0.3772,-0.55297 -1.04737,-0.55297 z"
         style="font-style:normal;font-variant:normal;font-weight:bold;font-stretch:normal;font-size:medium;line-height:125%;font-family:'Luxi Sans';-inkscape-font-specification:'Luxi Sans, Bold';text-align:start;letter-spacing:0px;word-spacing:0px;writing-mode:tb-rl;text-anchor:start;fill:#0b6790;fill-opacity:1;stroke:none;stroke-width:1px;stroke-linecap:butt;stroke-linejoin:miter;stroke-opacity:1"
         id="path4480"
         inkscape:connector-curvature="0" /><path
         d="m -210.81104,413.80497 0,0.8313 q -0.82763,0.35156 -1.92626,0.35156 -1.42457,0 -2.17896,-0.73975 -0.75073,-0.73608 -0.75073,-2.10937 0,-1.39527 0.75805,-2.1167 0.75806,-0.7251 2.24854,-0.7251 0.87891,0 1.80176,0.20874 l 0,0.88257 q -1.02539,-0.3479 -1.73584,-0.3479 -1.875,0 -1.875,2.08008 0,2.0874 1.98486,2.0874 0.8313,0 1.67358,-0.40283 z"
         style="font-style:normal;font-variant:normal;font-weight:bold;font-stretch:normal;font-size:medium;line-height:125%;font-family:'Luxi Sans';-inkscape-font-specification:'Luxi Sans, Bold';text-align:start;letter-spacing:0px;word-spacing:0px;writing-mode:tb-rl;text-anchor:start;fill:#0b6790;fill-opacity:1;stroke:none;stroke-width:1px;stroke-linecap:butt;stroke-linejoin:miter;stroke-opacity:1"
         id="path4482"
         inkscape:connector-curvature="0" /><path
         d="m -213.54879,421.72778 0,-4.67652 -1.58204,0 0,-0.74341 4.292,0 0,0.74341 -1.58204,0 0,4.67652 -1.12792,0 z"
         style="font-style:normal;font-variant:normal;font-weight:bold;font-stretch:normal;font-size:medium;line-height:125%;font-family:'Luxi Sans';-inkscape-font-specification:'Luxi Sans, Bold';text-align:start;letter-spacing:0px;word-spacing:0px;writing-mode:tb-rl;text-anchor:start;fill:#0b6790;fill-opacity:1;stroke:none;stroke-width:1px;stroke-linecap:butt;stroke-linejoin:miter;stroke-opacity:1"
         id="path4484"
         inkscape:connector-curvature="0" /></g><g
       id="g4486"
       transform="translate(-84.528003,3.8890872)"><path
         d="m -186.36597,397.86337 0,2.50489 q -1.05835,0.26367 -1.91894,0.26367 -1.27075,0 -1.91529,-0.4065 -0.45776,-0.2893 -0.75073,-0.77636 -0.41382,-0.68482 -0.41382,-1.66626 0,-1.25977 0.68482,-2.02881 0.39551,-0.44312 0.9375,-0.62622 0.54565,-0.18677 1.44287,-0.18677 1.00342,0 1.92993,0.20874 l 0,0.88257 q -1.14258,-0.3479 -1.91894,-0.3479 -0.92286,0 -1.40259,0.53833 -0.47608,0.53467 -0.47608,1.55639 0,1.01075 0.5127,1.55274 0.50903,0.53833 1.44653,0.53833 0.26001,0 0.71411,-0.0513 l 0,-1.21216 -0.91552,0 0,-0.74341 2.04345,0 z"
         style="font-style:normal;font-variant:normal;font-weight:bold;font-stretch:normal;font-size:medium;line-height:125%;font-family:'Luxi Sans';-inkscape-font-specification:'Luxi Sans, Bold';text-align:start;letter-spacing:0px;word-spacing:0px;writing-mode:tb-rl;text-anchor:start;fill:#0b6790;fill-opacity:1;stroke:none;stroke-width:1px;stroke-linecap:butt;stroke-linejoin:miter;stroke-opacity:1"
         id="path4488"
         inkscape:connector-curvature="0" /><path
         d="m -191.25488,407.71078 2.10205,-5.41992 1.12793,0 2.09472,5.41992 -1.15356,0 -0.55298,-1.44653 -2.24121,0 -0.55298,1.44653 -0.82397,0 z m 1.65527,-2.16796 1.68457,0 -0.84228,-2.16065 -0.84229,2.16065 z"
         style="font-style:normal;font-variant:normal;font-weight:bold;font-stretch:normal;font-size:medium;line-height:125%;font-family:'Luxi Sans';-inkscape-font-specification:'Luxi Sans, Bold';text-align:start;letter-spacing:0px;word-spacing:0px;writing-mode:tb-rl;text-anchor:start;fill:#0b6790;fill-opacity:1;stroke:none;stroke-width:1px;stroke-linecap:butt;stroke-linejoin:miter;stroke-opacity:1"
         id="path4490"
         inkscape:connector-curvature="0" /><path
         d="m -189.16016,414.55843 0,-4.67651 -1.58203,0 0,-0.74341 4.29199,0 0,0.74341 -1.58203,0 0,4.67651 -1.12793,0 z"
         style="font-style:normal;font-variant:normal;font-weight:bold;font-stretch:normal;font-size:medium;line-height:125%;font-family:'Luxi Sans';-inkscape-font-specification:'Luxi Sans, Bold';text-align:start;letter-spacing:0px;word-spacing:0px;writing-mode:tb-rl;text-anchor:start;fill:#0b6790;fill-opacity:1;stroke:none;stroke-width:1px;stroke-linecap:butt;stroke-linejoin:miter;stroke-opacity:1"
         id="path4492"
         inkscape:connector-curvature="0" /><path
         d="m -190.62134,421.38793 0,-5.41992 3.97705,0 0,0.74341 -2.84912,0 0,1.51245 2.44263,0 0,0.7251 -2.44263,0 0,1.66992 3.02124,0 0,0.76904 -4.14917,0 z"
         style="font-style:normal;font-variant:normal;font-weight:bold;font-stretch:normal;font-size:medium;line-height:125%;font-family:'Luxi Sans';-inkscape-font-specification:'Luxi Sans, Bold';text-align:start;letter-spacing:0px;word-spacing:0px;writing-mode:tb-rl;text-anchor:start;fill:#0b6790;fill-opacity:1;stroke:none;stroke-width:1px;stroke-linecap:butt;stroke-linejoin:miter;stroke-opacity:1"
         id="path4494"
         inkscape:connector-curvature="0" /></g></g><g
     transform="translate(0,99.29289)"
     id="g4496"><g
       transform="translate(-59.927298,-32.703686)"
       id="g4498"><path
         inkscape:connector-curvature="0"
         id="path4500"
         style="font-style:normal;font-variant:normal;font-weight:bold;font-stretch:normal;font-size:medium;line-height:125%;font-family:'Luxi Sans';-inkscape-font-specification:'Luxi Sans, Bold';text-align:start;letter-spacing:0px;word-spacing:0px;writing-mode:tb-rl;text-anchor:start;fill:#0b6790;fill-opacity:1;stroke:none;stroke-width:1px;stroke-linecap:butt;stroke-linejoin:miter;stroke-opacity:1"
         d="m -213.78101,397.49643 -1.88232,-5.41992 1.20483,0 1.4209,4.04663 1.36231,-4.04663 0.83496,0 -1.81275,5.41992 -1.12793,0 z" /><path
         inkscape:connector-curvature="0"
         id="path4502"
         style="font-style:normal;font-variant:normal;font-weight:bold;font-stretch:normal;font-size:medium;line-height:125%;font-family:'Luxi Sans';-inkscape-font-specification:'Luxi Sans, Bold';text-align:start;letter-spacing:0px;word-spacing:0px;writing-mode:tb-rl;text-anchor:start;fill:#0b6790;fill-opacity:1;stroke:none;stroke-width:1px;stroke-linecap:butt;stroke-linejoin:miter;stroke-opacity:1"
         d="m -216.22193,401.49434 5.41551,-4.0967 0.53201,0.38921 -5.41551,4.0967 -0.53201,-0.38921 z" /><path
         inkscape:connector-curvature="0"
         id="path4504"
         style="font-style:normal;font-variant:normal;font-weight:bold;font-stretch:normal;font-size:medium;line-height:125%;font-family:'Luxi Sans';-inkscape-font-specification:'Luxi Sans, Bold';text-align:start;letter-spacing:0px;word-spacing:0px;writing-mode:tb-rl;text-anchor:start;fill:#0b6790;fill-opacity:1;stroke:none;stroke-width:1px;stroke-linecap:butt;stroke-linejoin:miter;stroke-opacity:1"
         d="m -213.06956,402.33308 q 1.22315,0 1.92261,0.75439 0.69946,0.7544 0.69946,2.08374 0,1.35132 -0.69946,2.10205 -0.69946,0.75074 -1.95923,0.75074 -1.08398,0 -1.75415,-0.6189 -0.83496,-0.77271 -0.83496,-2.23023 0,-1.333 0.69946,-2.0874 0.69947,-0.75439 1.92627,-0.75439 z m 0,0.74341 q -0.67749,0 -1.05102,0.55297 -0.3772,0.54932 -0.3772,1.54541 0,0.98511 0.37353,1.54541 0.37354,0.55665 1.04004,0.55665 0.61524,0 0.98145,-0.43946 0.45776,-0.55298 0.45776,-1.66992 0,-0.98877 -0.37719,-1.53809 -0.3772,-0.55297 -1.04737,-0.55297 z" /><path
         inkscape:connector-curvature="0"
         id="path4506"
         style="font-style:normal;font-variant:normal;font-weight:bold;font-stretch:normal;font-size:medium;line-height:125%;font-family:'Luxi Sans';-inkscape-font-specification:'Luxi Sans, Bold';text-align:start;letter-spacing:0px;word-spacing:0px;writing-mode:tb-rl;text-anchor:start;fill:#0b6790;fill-opacity:1;stroke:none;stroke-width:1px;stroke-linecap:butt;stroke-linejoin:miter;stroke-opacity:1"
         d="m -210.81104,413.80497 0,0.8313 q -0.82763,0.35156 -1.92626,0.35156 -1.42457,0 -2.17896,-0.73975 -0.75073,-0.73608 -0.75073,-2.10937 0,-1.39527 0.75805,-2.1167 0.75806,-0.7251 2.24854,-0.7251 0.87891,0 1.80176,0.20874 l 0,0.88257 q -1.02539,-0.3479 -1.73584,-0.3479 -1.875,0 -1.875,2.08008 0,2.0874 1.98486,2.0874 0.8313,0 1.67358,-0.40283 z" /><path
         inkscape:connector-curvature="0"
         id="path4508"
         style="font-style:normal;font-variant:normal;font-weight:bold;font-stretch:normal;font-size:medium;line-height:125%;font-family:'Luxi Sans';-inkscape-font-specification:'Luxi Sans, Bold';text-align:start;letter-spacing:0px;word-spacing:0px;writing-mode:tb-rl;text-anchor:start;fill:#0b6790;fill-opacity:1;stroke:none;stroke-width:1px;stroke-linecap:butt;stroke-linejoin:miter;stroke-opacity:1"
         d="m -213.54879,421.72778 0,-4.67652 -1.58204,0 0,-0.74341 4.292,0 0,0.74341 -1.58204,0 0,4.67652 -1.12792,0 z" /></g><g
       transform="translate(-84.528003,3.8890872)"
       id="g4510"><path
         inkscape:connector-curvature="0"
         id="path4512"
         style="font-style:normal;font-variant:normal;font-weight:bold;font-stretch:normal;font-size:medium;line-height:125%;font-family:'Luxi Sans';-inkscape-font-specification:'Luxi Sans, Bold';text-align:start;letter-spacing:0px;word-spacing:0px;writing-mode:tb-rl;text-anchor:start;fill:#0b6790;fill-opacity:1;stroke:none;stroke-width:1px;stroke-linecap:butt;stroke-linejoin:miter;stroke-opacity:1"
         d="m -186.36597,397.86337 0,2.50489 q -1.05835,0.26367 -1.91894,0.26367 -1.27075,0 -1.91529,-0.4065 -0.45776,-0.2893 -0.75073,-0.77636 -0.41382,-0.68482 -0.41382,-1.66626 0,-1.25977 0.68482,-2.02881 0.39551,-0.44312 0.9375,-0.62622 0.54565,-0.18677 1.44287,-0.18677 1.00342,0 1.92993,0.20874 l 0,0.88257 q -1.14258,-0.3479 -1.91894,-0.3479 -0.92286,0 -1.40259,0.53833 -0.47608,0.53467 -0.47608,1.55639 0,1.01075 0.5127,1.55274 0.50903,0.53833 1.44653,0.53833 0.26001,0 0.71411,-0.0513 l 0,-1.21216 -0.91552,0 0,-0.74341 2.04345,0 z" /><path
         inkscape:connector-curvature="0"
         id="path4514"
         style="font-style:normal;font-variant:normal;font-weight:bold;font-stretch:normal;font-size:medium;line-height:125%;font-family:'Luxi Sans';-inkscape-font-specification:'Luxi Sans, Bold';text-align:start;letter-spacing:0px;word-spacing:0px;writing-mode:tb-rl;text-anchor:start;fill:#0b6790;fill-opacity:1;stroke:none;stroke-width:1px;stroke-linecap:butt;stroke-linejoin:miter;stroke-opacity:1"
         d="m -191.25488,407.71078 2.10205,-5.41992 1.12793,0 2.09472,5.41992 -1.15356,0 -0.55298,-1.44653 -2.24121,0 -0.55298,1.44653 -0.82397,0 z m 1.65527,-2.16796 1.68457,0 -0.84228,-2.16065 -0.84229,2.16065 z" /><path
         inkscape:connector-curvature="0"
         id="path4516"
         style="font-style:normal;font-variant:normal;font-weight:bold;font-stretch:normal;font-size:medium;line-height:125%;font-family:'Luxi Sans';-inkscape-font-specification:'Luxi Sans, Bold';text-align:start;letter-spacing:0px;word-spacing:0px;writing-mode:tb-rl;text-anchor:start;fill:#0b6790;fill-opacity:1;stroke:none;stroke-width:1px;stroke-linecap:butt;stroke-linejoin:miter;stroke-opacity:1"
         d="m -189.16016,414.55843 0,-4.67651 -1.58203,0 0,-0.74341 4.29199,0 0,0.74341 -1.58203,0 0,4.67651 -1.12793,0 z" /><path
         inkscape:connector-curvature="0"
         id="path4518"
         style="font-style:normal;font-variant:normal;font-weight:bold;font-stretch:normal;font-size:medium;line-height:125%;font-family:'Luxi Sans';-inkscape-font-specification:'Luxi Sans, Bold';text-align:start;letter-spacing:0px;word-spacing:0px;writing-mode:tb-rl;text-anchor:start;fill:#0b6790;fill-opacity:1;stroke:none;stroke-width:1px;stroke-linecap:butt;stroke-linejoin:miter;stroke-opacity:1"
         d="m -190.62134,421.38793 0,-5.41992 3.97705,0 0,0.74341 -2.84912,0 0,1.51245 2.44263,0 0,0.7251 -2.44263,0 0,1.66992 3.02124,0 0,0.76904 -4.14917,0 z" /></g></g></svg>