<?xml version="1.0" encoding="UTF-8" standalone="no"?>
<!-- Generator: Adobe Illustrator 19.0.0, SVG Export Plug-In . SVG Version: 6.00 Build 0)  -->

<svg
   xmlns:dc="http://purl.org/dc/elements/1.1/"
   xmlns:cc="http://creativecommons.org/ns#"
   xmlns:rdf="http://www.w3.org/1999/02/22-rdf-syntax-ns#"
   xmlns:svg="http://www.w3.org/2000/svg"
   xmlns="http://www.w3.org/2000/svg"
   xmlns:sodipodi="http://sodipodi.sourceforge.net/DTD/sodipodi-0.dtd"
   xmlns:inkscape="http://www.inkscape.org/namespaces/inkscape"
   version="1.0"
   id="svg55117"
   sodipodi:docname="DualCVShift.svg"
   inkscape:version="0.91 r13725"
   x="0px"
   y="0px"
   width="15mm"
   height="128.5mm"
   viewBox="-337 116.84 53.149607 455.31492"
   enable-background="new -337 116.8399963 45 380"
   xml:space="preserve"><metadata
     id="metadata100"><rdf:RDF><cc:Work
         rdf:about=""><dc:format>image/svg+xml</dc:format><dc:type
           rdf:resource="http://purl.org/dc/dcmitype/StillImage" /><dc:title></dc:title></cc:Work></rdf:RDF></metadata><defs
     id="defs98" /><sodipodi:namedview
     pagecolor="#ffffff"
     bordercolor="#666666"
     borderopacity="1"
     objecttolerance="10"
     gridtolerance="10"
     guidetolerance="10"
     inkscape:pageopacity="0"
     inkscape:pageshadow="2"
     inkscape:window-width="1525"
     inkscape:window-height="1008"
     id="namedview96"
     showgrid="false"
     inkscape:zoom="4"
     inkscape:cx="51.898028"
     inkscape:cy="229.02469"
     inkscape:current-layer="svg55117"
     units="mm"
     inkscape:document-units="mm"
     inkscape:window-x="19"
     inkscape:window-y="-6"
     inkscape:window-maximized="0" /><text
     xml:space="preserve"
     style="font-style:normal;font-variant:normal;font-weight:normal;font-stretch:normal;font-size:16.65466881px;line-height:125%;font-family:'COM4t Fine Regular';-inkscape-font-specification:'COM4t Fine Regular, ';text-align:start;letter-spacing:0px;word-spacing:0px;writing-mode:lr-tb;text-anchor:start;fill:#000000;fill-opacity:1;stroke:none;stroke-width:1px;stroke-linecap:butt;stroke-linejoin:miter;stroke-opacity:1"
     x="-332.70807"
     y="136.72969"
     id="text3342"
     sodipodi:linespacing="125%"
     transform="scale(0.99284073,1.0072109)"><tspan
       sodipodi:role="line"
       id="tspan3344"
       x="-332.70807"
       y="136.72969" /></text>
<path
     style="fill:#f0f0f0"
     id="path25061"
     inkscape:connector-curvature="0"
     inkscape:export-filename="/home/vortico/src/cpp/VCV/Rack/plugins/Fundamental/res/Delay.png"
     inkscape:export-xdpi="100.2962"
     inkscape:export-ydpi="100.2962"
     d="m -337,116.83997 53.14961,0 0,455.31496 -53.14961,0 0,-455.31496 z" /><g
     style="font-style:normal;font-variant:normal;font-weight:normal;font-stretch:normal;font-size:15px;line-height:125%;font-family:'URW Gothic L';-inkscape-font-specification:'URW Gothic L';text-align:start;letter-spacing:0px;word-spacing:0px;writing-mode:lr-tb;text-anchor:start;fill:#0b6790;fill-opacity:1;stroke:none;stroke-width:1px;stroke-linecap:butt;stroke-linejoin:miter;stroke-opacity:1"
     id="text3346"
     transform="matrix(1.1811024,0,0,1.1981973,61.031496,-25.553787)"><g
       transform="scale(1.0072108,0.99284082)"
       style="font-style:normal;font-variant:normal;font-weight:normal;font-stretch:normal;font-size:12.60907841px;line-height:125%;font-family:'URW Gothic L';-inkscape-font-specification:'URW Gothic L';letter-spacing:0px;word-spacing:0px;fill:#0b6790;fill-opacity:1;stroke:none;stroke-width:1px;stroke-linecap:butt;stroke-linejoin:miter;stroke-opacity:1"
       id="text4148"><path
         d="m -324.65137,133.31084 c -0.39088,0.49176 -0.61784,0.74394 -0.93307,0.98351 -0.61785,0.49175 -1.46265,0.76915 -2.30746,0.76915 -2.15616,0 -3.93404,-1.79048 -3.93404,-3.97186 0,-2.24441 1.70223,-3.95925 3.92143,-3.95925 0.80698,0 1.56352,0.21436 2.18137,0.63046 0.4161,0.26479 0.66828,0.54219 1.02133,1.09699 l 1.04656,0 c -0.71872,-1.60136 -2.3579,-2.58486 -4.28709,-2.58486 -2.774,0 -4.82928,2.06789 -4.82928,4.85449 0,2.72356 2.10572,4.79145 4.89233,4.79145 1.89136,0 3.32879,-0.88263 4.26186,-2.61008 l -1.03394,0 z"
         style=""
         id="path4142" /><path
         d="m -319.12229,135.757 0.90785,0 3.85838,-9.31811 -1.00872,0 -3.29097,8.15808 -3.27836,-8.15808 -1.02134,0 3.83316,9.31811 z"
         style=""
         id="path4144" /><path
         d="m -314.01345,133.72694 c 0.0126,1.33656 0.89525,2.19398 2.2192,2.19398 1.23569,0 2.10572,-0.88263 2.10572,-2.14354 0,-0.84481 -0.39088,-1.42483 -1.19786,-1.76527 -1.04656,-0.42871 -1.09699,-0.45393 -1.29874,-0.5548 -0.42871,-0.21436 -0.63045,-0.50437 -0.63045,-0.90786 0,-0.5548 0.44131,-0.99611 0.99611,-0.99611 0.60524,0 0.95829,0.35305 1.00873,1.00872 l 0.94568,0 c -0.0378,-1.1096 -0.8322,-1.86614 -1.9418,-1.86614 -1.12221,0 -1.9544,0.81959 -1.9544,1.9418 0,0.49175 0.17652,0.92046 0.51697,1.23569 0.29001,0.26479 0.30262,0.26479 1.27351,0.66828 0.4161,0.16392 0.71872,0.31523 0.89525,0.42871 0.2774,0.18913 0.44132,0.51697 0.44132,0.89524 0,0.6935 -0.49176,1.19786 -1.16004,1.19786 -0.76915,0 -1.2483,-0.49175 -1.29873,-1.33656 l -0.92047,0 z"
         style=""
         id="path4146" /><path
         d="m -308.54524,135.757 0.93307,0 0,-3.78272 c 0,-0.74394 0.10087,-1.18525 0.37827,-1.56353 0.37827,-0.54219 1.02134,-0.85741 1.72744,-0.85741 0.66829,0 1.29874,0.29001 1.6644,0.75654 0.32784,0.40349 0.46654,0.93307 0.46654,1.74005 l 0,3.70707 0.93307,0 0,-3.70707 c 0,-1.03394 -0.18914,-1.74005 -0.59263,-2.28224 -0.51697,-0.68089 -1.38699,-1.07177 -2.38311,-1.07177 -0.94568,0 -1.72745,0.37827 -2.19398,1.05916 l 0,-3.31619 -0.93307,0 0,9.31811 z"
         style=""
         id="path4148" /><path
         d="m -300.86159,135.757 0.93308,0 0,-6.89716 -0.93308,0 0,6.89716 z m 0,-7.72936 0.93308,0 0,-1.58875 -0.93308,0 0,1.58875 z"
         style=""
         id="path4150" /><path
         d="m -297.87048,135.757 0.93308,0 0,-6.05235 1.71483,0 0,-0.84481 -1.71483,0 c -0.0126,-1.14743 0.44131,-1.56353 1.71483,-1.57614 l 0,-0.84481 c -1.77788,0 -2.67312,0.81959 -2.64791,2.42095 l -1.07177,0 0,0.84481 1.07177,0 0,6.05235 z"
         style=""
         id="path4152" /><path
         d="m -293.53985,135.757 0.93307,0 0,-6.05235 1.55092,0 0,-0.84481 -1.55092,0 0,-2.42095 -0.93307,0 0,2.42095 -1.48787,0 0,0.84481 1.48787,0 0,6.05235 z"
         style=""
         id="path4154" /></g></g><g
     transform="matrix(0.97648917,0,0,0.99062256,-484.1303,80.726035)"
     id="g84" /><rect
     ry="3.0545564"
     y="264.85065"
     x="-329.32043"
     height="71.665573"
     width="39.79047"
     id="rect4161"
     style="opacity:1;fill:#7fa6ab;fill-opacity:1;stroke:#000000;stroke-width:2.48031521;stroke-linecap:round;stroke-linejoin:round;stroke-miterlimit:4;stroke-dasharray:none;stroke-opacity:1" /><rect
     style="opacity:1;fill:#7fa6ab;fill-opacity:1;stroke:#000000;stroke-width:2.48031521;stroke-linecap:round;stroke-linejoin:round;stroke-miterlimit:4;stroke-dasharray:none;stroke-opacity:1"
     id="rect4156"
     width="40.303543"
     height="37.306061"
     x="-329.57697"
     y="188.75958"
     ry="3.4839106" /><rect
     style="opacity:1;fill:#7fa6ab;fill-opacity:1;stroke:#000000;stroke-width:2.48031521;stroke-linecap:round;stroke-linejoin:round;stroke-miterlimit:4;stroke-dasharray:none;stroke-opacity:1"
     id="rect4169"
     width="39.79047"
     height="71.665573"
     x="-329.32043"
     y="476.35065"
     ry="3.0545564" /><rect
     ry="3.4839106"
     y="400.25961"
     x="-329.57697"
     height="37.306061"
     width="40.303543"
     id="rect4171"
     style="opacity:1;fill:#7fa6ab;fill-opacity:1;stroke:#000000;stroke-width:2.48031521;stroke-linecap:round;stroke-linejoin:round;stroke-miterlimit:4;stroke-dasharray:none;stroke-opacity:1" /><g
     style="font-style:normal;font-variant:normal;font-weight:normal;font-stretch:normal;font-size:11.25000095px;line-height:125%;font-family:'Luxi Sans';-inkscape-font-specification:'Luxi Sans';text-align:start;letter-spacing:0px;word-spacing:0px;writing-mode:lr-tb;text-anchor:start;fill:#0b6790;fill-opacity:1;stroke:none;stroke-width:1px;stroke-linecap:butt;stroke-linejoin:miter;stroke-opacity:1"
     id="text4149"
     transform="translate(0,0.88388357)"><path
       d="m -321.31479,236.34709 0,-1.14258 q 1.62598,0.76905 3.20801,0.76905 1.77429,0 1.77429,-1.31287 0,-0.68115 -0.48889,-0.99976 -0.37903,-0.25268 -1.21948,-0.52734 l -1.10413,-0.36255 q -2.12585,-0.69763 -2.12585,-2.30163 0,-2.1698 2.97729,-2.1698 1.27442,0 2.64221,0.34606 l 0,1.06019 q -1.42822,-0.54383 -2.71362,-0.54383 -1.79077,0 -1.79077,1.21948 0,0.47791 0.33508,0.76905 0.34607,0.30212 1.21948,0.58777 l 1.1316,0.36804 q 1.2799,0.41748 1.80175,0.95581 0.52186,0.53284 0.52186,1.42822 0,1.08216 -0.80201,1.71387 -0.79651,0.63171 -2.20276,0.63171 -1.38427,0 -3.16406,-0.48889 z"
       id="path4158"
       inkscape:connector-curvature="0"
       style="fill:#0b6790;fill-opacity:1" /><path
       d="m -313.61337,236.63274 0,-8.67371 1.08215,0 0,3.82874 q 0.401,-0.55481 0.79102,-0.84046 0.56579,-0.41199 1.24145,-0.41199 1.51612,0 1.51612,1.81275 l 0,4.28467 -1.08765,0 0,-3.93311 q 0,-0.7251 -0.14832,-0.97778 -0.15381,-0.25818 -0.57129,-0.25818 -0.88989,0 -1.74133,1.30737 l 0,3.8617 -1.08215,0 z"
       id="path4160"
       inkscape:connector-curvature="0"
       style="fill:#0b6790;fill-opacity:1" /><path
       d="m -307.48849,236.63274 0,-5.96558 1.08215,0 0,5.96558 -1.08215,0 z m 0,-7.04773 0,-1.08216 1.08215,0 0,1.08216 -1.08215,0 z"
       id="path4162"
       inkscape:connector-curvature="0"
       style="fill:#0b6790;fill-opacity:1" /><path
       d="m -304.73092,236.63274 0,-5.15259 -0.79102,0 0,-0.81299 0.79102,0 0,-0.71411 q 0,-2.13135 1.69189,-2.13135 0.35706,0 0.8075,0.14282 l 0,0.86243 q -0.4065,-0.19226 -0.69214,-0.19226 -0.401,0 -0.56031,0.26916 -0.1593,0.26368 -0.1593,0.93384 l 0,0.82947 1.07117,0 0,0.81299 -1.07117,0 0,5.15259 -1.08764,0 z"
       id="path4164"
       inkscape:connector-curvature="0"
       style="fill:#0b6790;fill-opacity:1" /><path
       d="m -299.27621,236.6657 q -0.32959,0.10437 -0.62073,0.10437 -1.45569,0 -1.45569,-1.78528 l 0,-3.50464 -0.67566,0 0,-0.81299 0.67566,0 0,-1.08215 1.08215,-0.10437 0,1.18652 1.15357,0 0,0.81299 -1.15357,0 0,3.30688 q 0,0.70862 0.12085,0.93933 0.12085,0.23072 0.50538,0.23072 0.20874,0 0.36804,-0.0604 l 0,0.76905 z"
       id="path4166"
       inkscape:connector-curvature="0"
       style="fill:#0b6790;fill-opacity:1" /></g><g
     style="font-style:normal;font-variant:normal;font-weight:normal;font-stretch:normal;font-size:11.25px;line-height:125%;font-family:'Luxi Sans';-inkscape-font-specification:'Luxi Sans';text-align:start;letter-spacing:0px;word-spacing:0px;writing-mode:lr-tb;text-anchor:start;fill:#0b6790;fill-opacity:1;stroke:none;stroke-width:1px;stroke-linecap:butt;stroke-linejoin:miter;stroke-opacity:1"
     id="text4153"
     transform="translate(0,0.88388357)"><path
       d="m -319.87708,347.29495 -3.13659,-8.12988 1.18652,0 2.59278,6.67419 2.48291,-6.67419 0.98327,0 -3.02124,8.12988 -1.08765,0 z"
       id="path4169"
       inkscape:connector-curvature="0"
       style="fill:#0b6790;fill-opacity:1" /><path
       d="m -316.02087,348.92093 2.92785,-9.75586 0.85144,0 -2.92785,9.75586 -0.85144,0 z"
       id="path4171"
       inkscape:connector-curvature="0"
       style="fill:#0b6790;fill-opacity:1" /><path
       d="m -308.19861,338.96182 q 1.75232,0 2.8125,1.15906 1.05469,1.16455 1.05469,3.09814 0,1.97205 -1.05469,3.12562 -1.06018,1.15356 -2.86743,1.15356 -1.54907,0 -2.55432,-0.95032 -1.25794,-1.19201 -1.25794,-3.31787 0,-1.95007 1.05469,-3.10913 1.05469,-1.15906 2.8125,-1.15906 z m 0,0.86243 q -1.24695,0 -1.93909,0.89539 -0.69213,0.89538 -0.69213,2.50488 0,1.59851 0.69213,2.50488 0.68665,0.90637 1.91163,0.90637 1.13708,0 1.81274,-0.72509 0.84595,-0.89539 0.84595,-2.69166 0,-1.604 -0.69763,-2.49938 -0.69764,-0.89539 -1.9336,-0.89539 z"
       id="path4173"
       inkscape:connector-curvature="0"
       style="fill:#0b6790;fill-opacity:1" /><path
       d="m -298.74487,347.11368 q -0.99427,0.3186 -1.87317,0.3186 -1.23596,0 -1.98853,-0.86792 -0.75256,-0.86243 -0.75256,-2.2522 0,-1.46118 0.76904,-2.28515 0.76355,-0.82947 2.14234,-0.82947 0.69213,0 1.63696,0.19775 l 0,0.90088 q -0.90088,-0.26916 -1.43921,-0.26916 -1.88965,0 -1.88965,2.28515 0,1.07666 0.48889,1.65894 0.4834,0.58777 1.35681,0.58777 0.66468,0 1.54908,-0.37903 l 0,0.93384 z"
       id="path4175"
       inkscape:connector-curvature="0"
       style="fill:#0b6790;fill-opacity:1" /><path
       d="m -295.29517,347.32791 q -0.32959,0.10437 -0.62072,0.10437 -1.45569,0 -1.45569,-1.78528 l 0,-3.50464 -0.67566,0 0,-0.81298 0.67566,0 0,-1.08216 1.08215,-0.10437 0,1.18653 1.15357,0 0,0.81298 -1.15357,0 0,3.30689 q 0,0.70862 0.12085,0.93933 0.12085,0.23071 0.50537,0.23071 0.20874,0 0.36804,-0.0604 l 0,0.76904 z"
       id="path4177"
       inkscape:connector-curvature="0"
       style="fill:#0b6790;fill-opacity:1" /></g><g
     transform="translate(0,212.88388)"
     id="g4161"
     style="font-style:normal;font-variant:normal;font-weight:normal;font-stretch:normal;font-size:11.25000095px;line-height:125%;font-family:'Luxi Sans';-inkscape-font-specification:'Luxi Sans';text-align:start;letter-spacing:0px;word-spacing:0px;writing-mode:lr-tb;text-anchor:start;fill:#0b6190;fill-opacity:1;stroke:none;stroke-width:1px;stroke-linecap:butt;stroke-linejoin:miter;stroke-opacity:1"><path
       inkscape:connector-curvature="0"
       id="path4163"
       d="m -321.31479,236.34709 0,-1.14258 q 1.62598,0.76905 3.20801,0.76905 1.77429,0 1.77429,-1.31287 0,-0.68115 -0.48889,-0.99976 -0.37903,-0.25268 -1.21948,-0.52734 l -1.10413,-0.36255 q -2.12585,-0.69763 -2.12585,-2.30163 0,-2.1698 2.97729,-2.1698 1.27442,0 2.64221,0.34606 l 0,1.06019 q -1.42822,-0.54383 -2.71362,-0.54383 -1.79077,0 -1.79077,1.21948 0,0.47791 0.33508,0.76905 0.34607,0.30212 1.21948,0.58777 l 1.1316,0.36804 q 1.2799,0.41748 1.80175,0.95581 0.52186,0.53284 0.52186,1.42822 0,1.08216 -0.80201,1.71387 -0.79651,0.63171 -2.20276,0.63171 -1.38427,0 -3.16406,-0.48889 z"
       style="fill:#0b6190;fill-opacity:1" /><path
       inkscape:connector-curvature="0"
       id="path4165"
       d="m -313.61337,236.63274 0,-8.67371 1.08215,0 0,3.82874 q 0.401,-0.55481 0.79102,-0.84046 0.56579,-0.41199 1.24145,-0.41199 1.51612,0 1.51612,1.81275 l 0,4.28467 -1.08765,0 0,-3.93311 q 0,-0.7251 -0.14832,-0.97778 -0.15381,-0.25818 -0.57129,-0.25818 -0.88989,0 -1.74133,1.30737 l 0,3.8617 -1.08215,0 z"
       style="fill:#0b6190;fill-opacity:1" /><path
       inkscape:connector-curvature="0"
       id="path4167"
       d="m -307.48849,236.63274 0,-5.96558 1.08215,0 0,5.96558 -1.08215,0 z m 0,-7.04773 0,-1.08216 1.08215,0 0,1.08216 -1.08215,0 z"
       style="fill:#0b6190;fill-opacity:1" /><path
       inkscape:connector-curvature="0"
       id="path4170"
       d="m -304.73092,236.63274 0,-5.15259 -0.79102,0 0,-0.81299 0.79102,0 0,-0.71411 q 0,-2.13135 1.69189,-2.13135 0.35706,0 0.8075,0.14282 l 0,0.86243 q -0.4065,-0.19226 -0.69214,-0.19226 -0.401,0 -0.56031,0.26916 -0.1593,0.26368 -0.1593,0.93384 l 0,0.82947 1.07117,0 0,0.81299 -1.07117,0 0,5.15259 -1.08764,0 z"
       style="fill:#0b6190;fill-opacity:1" /><path
       inkscape:connector-curvature="0"
       id="path4172"
       d="m -299.27621,236.6657 q -0.32959,0.10437 -0.62073,0.10437 -1.45569,0 -1.45569,-1.78528 l 0,-3.50464 -0.67566,0 0,-0.81299 0.67566,0 0,-1.08215 1.08215,-0.10437 0,1.18652 1.15357,0 0,0.81299 -1.15357,0 0,3.30688 q 0,0.70862 0.12085,0.93933 0.12085,0.23072 0.50538,0.23072 0.20874,0 0.36804,-0.0604 l 0,0.76905 z"
       style="fill:#0b6190;fill-opacity:1" /></g><g
     transform="translate(0,212.88388)"
     id="g4174"
     style="font-style:normal;font-variant:normal;font-weight:normal;font-stretch:normal;font-size:11.25px;line-height:125%;font-family:'Luxi Sans';-inkscape-font-specification:'Luxi Sans';text-align:start;letter-spacing:0px;word-spacing:0px;writing-mode:lr-tb;text-anchor:start;fill:#0b6790;fill-opacity:1;stroke:none;stroke-width:1px;stroke-linecap:butt;stroke-linejoin:miter;stroke-opacity:1"><path
       inkscape:connector-curvature="0"
       id="path4176"
       d="m -319.87708,347.29495 -3.13659,-8.12988 1.18652,0 2.59278,6.67419 2.48291,-6.67419 0.98327,0 -3.02124,8.12988 -1.08765,0 z"
       style="fill:#0b6790;fill-opacity:1" /><path
       inkscape:connector-curvature="0"
       id="path4178"
       d="m -316.02087,348.92093 2.92785,-9.75586 0.85144,0 -2.92785,9.75586 -0.85144,0 z"
       style="fill:#0b6790;fill-opacity:1" /><path
       inkscape:connector-curvature="0"
       id="path4180"
       d="m -308.19861,338.96182 q 1.75232,0 2.8125,1.15906 1.05469,1.16455 1.05469,3.09814 0,1.97205 -1.05469,3.12562 -1.06018,1.15356 -2.86743,1.15356 -1.54907,0 -2.55432,-0.95032 -1.25794,-1.19201 -1.25794,-3.31787 0,-1.95007 1.05469,-3.10913 1.05469,-1.15906 2.8125,-1.15906 z m 0,0.86243 q -1.24695,0 -1.93909,0.89539 -0.69213,0.89538 -0.69213,2.50488 0,1.59851 0.69213,2.50488 0.68665,0.90637 1.91163,0.90637 1.13708,0 1.81274,-0.72509 0.84595,-0.89539 0.84595,-2.69166 0,-1.604 -0.69763,-2.49938 -0.69764,-0.89539 -1.9336,-0.89539 z"
       style="fill:#0b6790;fill-opacity:1" /><path
       inkscape:connector-curvature="0"
       id="path4182"
       d="m -298.74487,347.11368 q -0.99427,0.3186 -1.87317,0.3186 -1.23596,0 -1.98853,-0.86792 -0.75256,-0.86243 -0.75256,-2.2522 0,-1.46118 0.76904,-2.28515 0.76355,-0.82947 2.14234,-0.82947 0.69213,0 1.63696,0.19775 l 0,0.90088 q -0.90088,-0.26916 -1.43921,-0.26916 -1.88965,0 -1.88965,2.28515 0,1.07666 0.48889,1.65894 0.4834,0.58777 1.35681,0.58777 0.66468,0 1.54908,-0.37903 l 0,0.93384 z"
       style="fill:#0b6790;fill-opacity:1" /><path
       inkscape:connector-curvature="0"
       id="path4184"
       d="m -295.29517,347.32791 q -0.32959,0.10437 -0.62072,0.10437 -1.45569,0 -1.45569,-1.78528 l 0,-3.50464 -0.67566,0 0,-0.81298 0.67566,0 0,-1.08216 1.08215,-0.10437 0,1.18653 1.15357,0 0,0.81298 -1.15357,0 0,3.30689 q 0,0.70862 0.12085,0.93933 0.12085,0.23071 0.50537,0.23071 0.20874,0 0.36804,-0.0604 l 0,0.76904 z"
       style="fill:#0b6790;fill-opacity:1" /></g></svg>