<?xml version="1.0" encoding="UTF-8" standalone="no"?>
<!-- Generator: Adobe Illustrator 19.0.0, SVG Export Plug-In . SVG Version: 6.00 Build 0)  -->

<svg
   xmlns:dc="http://purl.org/dc/elements/1.1/"
   xmlns:cc="http://creativecommons.org/ns#"
   xmlns:rdf="http://www.w3.org/1999/02/22-rdf-syntax-ns#"
   xmlns:svg="http://www.w3.org/2000/svg"
   xmlns="http://www.w3.org/2000/svg"
   xmlns:sodipodi="http://sodipodi.sourceforge.net/DTD/sodipodi-0.dtd"
   xmlns:inkscape="http://www.inkscape.org/namespaces/inkscape"
   version="1.0"
   id="svg55117"
   sodipodi:docname="DualVShift.svg"
   inkscape:version="0.91 r13725"
   x="0px"
   y="0px"
   width="15mm"
   height="128.5mm"
   viewBox="-337 116.84 53.149607 455.31492"
   enable-background="new -337 116.8399963 45 380"
   xml:space="preserve"><metadata
     id="metadata100"><rdf:RDF><cc:Work
         rdf:about=""><dc:format>image/svg+xml</dc:format><dc:type
           rdf:resource="http://purl.org/dc/dcmitype/StillImage" /><dc:title /></cc:Work></rdf:RDF></metadata><defs
     id="defs98" /><sodipodi:namedview
     pagecolor="#ffffff"
     bordercolor="#666666"
     borderopacity="1"
     objecttolerance="10"
     gridtolerance="10"
     guidetolerance="10"
     inkscape:pageopacity="0"
     inkscape:pageshadow="2"
     inkscape:window-width="1525"
     inkscape:window-height="1008"
     id="namedview96"
     showgrid="false"
     inkscape:zoom="2.8284271"
     inkscape:cx="-78.023584"
     inkscape:cy="426.30767"
     inkscape:current-layer="svg55117"
     units="mm"
     inkscape:document-units="mm"
     inkscape:window-x="81"
     inkscape:window-y="24"
     inkscape:window-maximized="0" /><g
     id="g4379"><text
       transform="scale(0.99284073,1.0072109)"
       sodipodi:linespacing="125%"
       id="text3342"
       y="136.72969"
       x="-332.70807"
       style="font-style:normal;font-variant:normal;font-weight:normal;font-stretch:normal;font-size:16.65466881px;line-height:125%;font-family:'COM4t Fine Regular';-inkscape-font-specification:'COM4t Fine Regular, ';text-align:start;letter-spacing:0px;word-spacing:0px;writing-mode:lr-tb;text-anchor:start;fill:#000000;fill-opacity:1;stroke:none;stroke-width:1px;stroke-linecap:butt;stroke-linejoin:miter;stroke-opacity:1"
       xml:space="preserve"><tspan
         y="136.72969"
         x="-332.70807"
         id="tspan3344"
         sodipodi:role="line" /></text>
<path
       d="m -337,116.83997 53.14961,0 0,455.31496 -53.14961,0 0,-455.31496 z"
       inkscape:export-ydpi="100.2962"
       inkscape:export-xdpi="100.2962"
       inkscape:export-filename="/home/vortico/src/cpp/VCV/Rack/plugins/Fundamental/res/Delay.png"
       inkscape:connector-curvature="0"
       id="path25061"
       style="fill:#f0f0f0" /><path
       d="m -321.31137,234.16111 0,-1.15361 q 1.62551,0.77647 3.20709,0.77647 1.77378,0 1.77378,-1.32554 0,-0.68773 -0.48875,-1.00942 -0.37892,-0.25512 -1.21913,-0.53243 l -1.10381,-0.36605 q -2.12524,-0.70437 -2.12524,-2.32385 0,-2.19076 2.97643,-2.19076 1.27405,0 2.64145,0.3494 l 0,1.07043 q -1.42781,-0.54908 -2.71284,-0.54908 -1.79025,0 -1.79025,1.23126 0,0.48252 0.33498,0.77647 0.34597,0.30504 1.21913,0.59345 l 1.13127,0.37159 q 1.27954,0.42151 1.80124,0.96504 0.52171,0.53799 0.52171,1.44201 0,1.09261 -0.80178,1.73042 -0.79628,0.63781 -2.20213,0.63781 -1.38387,0 -3.16315,-0.49361 z"
       id="path4158"
       inkscape:connector-curvature="0"
       style="font-style:normal;font-variant:normal;font-weight:normal;font-stretch:normal;font-size:medium;line-height:125%;font-family:'Luxi Sans';-inkscape-font-specification:'Luxi Sans';text-align:start;letter-spacing:0px;word-spacing:0px;writing-mode:lr-tb;text-anchor:start;fill:#0b6790;fill-opacity:1;stroke:none;stroke-width:1px;stroke-linecap:butt;stroke-linejoin:miter;stroke-opacity:1" /><path
       d="m -313.61217,234.44952 0,-8.75747 1.08184,0 0,3.86572 q 0.40089,-0.56017 0.7908,-0.84858 0.56562,-0.41597 1.24109,-0.41597 1.51568,0 1.51568,1.83026 l 0,4.32604 -1.08733,0 0,-3.97109 q 0,-0.7321 -0.14828,-0.98722 -0.15377,-0.26067 -0.57113,-0.26067 -0.88963,0 -1.74083,1.31999 l 0,3.89899 -1.08184,0 z"
       id="path4160"
       inkscape:connector-curvature="0"
       style="font-style:normal;font-variant:normal;font-weight:normal;font-stretch:normal;font-size:medium;line-height:125%;font-family:'Luxi Sans';-inkscape-font-specification:'Luxi Sans';text-align:start;letter-spacing:0px;word-spacing:0px;writing-mode:lr-tb;text-anchor:start;fill:#0b6790;fill-opacity:1;stroke:none;stroke-width:1px;stroke-linecap:butt;stroke-linejoin:miter;stroke-opacity:1" /><path
       d="m -307.48905,234.44952 0,-6.02319 1.08184,0 0,6.02319 -1.08184,0 z m 0,-7.11578 0,-1.09261 1.08184,0 0,1.09261 -1.08184,0 z"
       id="path4162"
       inkscape:connector-curvature="0"
       style="font-style:normal;font-variant:normal;font-weight:normal;font-stretch:normal;font-size:medium;line-height:125%;font-family:'Luxi Sans';-inkscape-font-specification:'Luxi Sans';text-align:start;letter-spacing:0px;word-spacing:0px;writing-mode:lr-tb;text-anchor:start;fill:#0b6790;fill-opacity:1;stroke:none;stroke-width:1px;stroke-linecap:butt;stroke-linejoin:miter;stroke-opacity:1" /><path
       d="m -304.73227,234.44952 0,-5.20235 -0.79079,0 0,-0.82084 0.79079,0 0,-0.721 q 0,-2.15193 1.6914,-2.15193 0.35696,0 0.80727,0.1442 l 0,0.87076 q -0.40638,-0.19412 -0.69194,-0.19412 -0.40088,0 -0.56015,0.27176 -0.15925,0.26622 -0.15925,0.94286 l 0,0.83747 1.07086,0 0,0.82084 -1.07086,0 0,5.20235 -1.08733,0 z"
       id="path4164"
       inkscape:connector-curvature="0"
       style="font-style:normal;font-variant:normal;font-weight:normal;font-stretch:normal;font-size:medium;line-height:125%;font-family:'Luxi Sans';-inkscape-font-specification:'Luxi Sans';text-align:start;letter-spacing:0px;word-spacing:0px;writing-mode:lr-tb;text-anchor:start;fill:#0b6790;fill-opacity:1;stroke:none;stroke-width:1px;stroke-linecap:butt;stroke-linejoin:miter;stroke-opacity:1" /><path
       d="m -299.27913,234.4828 q -0.32949,0.10537 -0.62055,0.10537 -1.45527,0 -1.45527,-1.80251 l 0,-3.53849 -0.67547,0 0,-0.82084 0.67547,0 0,-1.09259 1.08184,-0.10538 0,1.19797 1.15324,0 0,0.82084 -1.15324,0 0,3.33882 q 0,0.71546 0.12081,0.9484 0.12082,0.23294 0.50524,0.23294 0.20868,0 0.36793,-0.061 l 0,0.77648 z"
       id="path4166"
       inkscape:connector-curvature="0"
       style="font-style:normal;font-variant:normal;font-weight:normal;font-stretch:normal;font-size:medium;line-height:125%;font-family:'Luxi Sans';-inkscape-font-specification:'Luxi Sans';text-align:start;letter-spacing:0px;word-spacing:0px;writing-mode:lr-tb;text-anchor:start;fill:#0b6790;fill-opacity:1;stroke:none;stroke-width:1px;stroke-linecap:butt;stroke-linejoin:miter;stroke-opacity:1" /><rect
       style="opacity:1;fill:#7fa6ab;fill-opacity:1;stroke:#000000;stroke-width:2.49190331;stroke-linecap:round;stroke-linejoin:round;stroke-miterlimit:4;stroke-dasharray:none;stroke-opacity:1"
       id="rect4161"
       width="39.77903"
       height="72.357582"
       x="-329.31473"
       y="258.05316"
       ry="3.0840514" /><path
       d="m -319.87407,342.18597 -3.13569,-8.20838 1.18618,0 2.59203,6.73864 2.4822,-6.73864 0.98298,0 -3.02037,8.20838 -1.08733,0 z"
       id="path4169"
       inkscape:connector-curvature="0"
       style="font-style:normal;font-variant:normal;font-weight:normal;font-stretch:normal;font-size:medium;line-height:125%;font-family:'Luxi Sans';-inkscape-font-specification:'Luxi Sans';text-align:start;letter-spacing:0px;word-spacing:0px;writing-mode:lr-tb;text-anchor:start;fill:#0b6790;fill-opacity:1;stroke:none;stroke-width:1px;stroke-linecap:butt;stroke-linejoin:miter;stroke-opacity:1" /><path
       d="m -316.01897,343.82765 2.92701,-9.85006 0.85119,0 -2.92701,9.85006 -0.85119,0 z"
       id="path4171"
       inkscape:connector-curvature="0"
       style="font-style:normal;font-variant:normal;font-weight:normal;font-stretch:normal;font-size:medium;line-height:125%;font-family:'Luxi Sans';-inkscape-font-specification:'Luxi Sans';text-align:start;letter-spacing:0px;word-spacing:0px;writing-mode:lr-tb;text-anchor:start;fill:#0b6790;fill-opacity:1;stroke:none;stroke-width:1px;stroke-linecap:butt;stroke-linejoin:miter;stroke-opacity:1" /><path
       d="m -308.19896,333.77238 q 1.75181,0 2.81169,1.17025 1.05439,1.17579 1.05439,3.12805 0,1.9911 -1.05439,3.15581 -1.05988,1.16469 -2.86661,1.16469 -1.54862,0 -2.55358,-0.95949 -1.25758,-1.20352 -1.25758,-3.34991 0,-1.9689 1.05439,-3.13915 1.05438,-1.17025 2.81169,-1.17025 z m 0,0.87075 q -1.24659,0 -1.93853,0.90404 -0.69194,0.90403 -0.69194,2.52907 0,1.61394 0.69194,2.52906 0.68645,0.91513 1.91108,0.91513 1.13675,0 1.81221,-0.73209 0.84571,-0.90404 0.84571,-2.71766 0,-1.61948 -0.69743,-2.52351 -0.69744,-0.90404 -1.93304,-0.90404 z"
       id="path4173"
       inkscape:connector-curvature="0"
       style="font-style:normal;font-variant:normal;font-weight:normal;font-stretch:normal;font-size:medium;line-height:125%;font-family:'Luxi Sans';-inkscape-font-specification:'Luxi Sans';text-align:start;letter-spacing:0px;word-spacing:0px;writing-mode:lr-tb;text-anchor:start;fill:#0b6790;fill-opacity:1;stroke:none;stroke-width:1px;stroke-linecap:butt;stroke-linejoin:miter;stroke-opacity:1" /><path
       d="m -298.74794,342.00295 q -0.99398,0.32168 -1.87263,0.32168 -1.23561,0 -1.98796,-0.8763 -0.75234,-0.87076 -0.75234,-2.27395 0,-1.47529 0.76882,-2.30722 0.76333,-0.83748 2.14172,-0.83748 0.69193,0 1.63649,0.19966 l 0,0.90958 q -0.90062,-0.27176 -1.4388,-0.27176 -1.8891,0 -1.8891,2.30722 0,1.08706 0.48875,1.67496 0.48326,0.59344 1.35642,0.59344 0.66448,0 1.54863,-0.38269 l 0,0.94286 z"
       id="path4175"
       inkscape:connector-curvature="0"
       style="font-style:normal;font-variant:normal;font-weight:normal;font-stretch:normal;font-size:medium;line-height:125%;font-family:'Luxi Sans';-inkscape-font-specification:'Luxi Sans';text-align:start;letter-spacing:0px;word-spacing:0px;writing-mode:lr-tb;text-anchor:start;fill:#0b6790;fill-opacity:1;stroke:none;stroke-width:1px;stroke-linecap:butt;stroke-linejoin:miter;stroke-opacity:1" /><path
       d="m -295.29923,342.21925 q -0.3295,0.10538 -0.62054,0.10538 -1.45527,0 -1.45527,-1.80252 l 0,-3.53848 -0.67547,0 0,-0.82083 0.67547,0 0,-1.09261 1.08183,-0.10538 0,1.19799 1.15324,0 0,0.82083 -1.15324,0 0,3.33882 q 0,0.71546 0.12082,0.9484 0.12081,0.23294 0.50522,0.23294 0.20868,0 0.36794,-0.061 l 0,0.77647 z"
       id="path4177"
       inkscape:connector-curvature="0"
       style="font-style:normal;font-variant:normal;font-weight:normal;font-stretch:normal;font-size:medium;line-height:125%;font-family:'Luxi Sans';-inkscape-font-specification:'Luxi Sans';text-align:start;letter-spacing:0px;word-spacing:0px;writing-mode:lr-tb;text-anchor:start;fill:#0b6790;fill-opacity:1;stroke:none;stroke-width:1px;stroke-linecap:butt;stroke-linejoin:miter;stroke-opacity:1" /><rect
       ry="3.0840514"
       y="463.34894"
       x="-329.31473"
       height="72.357582"
       width="39.77903"
       id="rect4191"
       style="opacity:1;fill:#7fa6ab;fill-opacity:1;stroke:#000000;stroke-width:2.49190331;stroke-linecap:round;stroke-linejoin:round;stroke-miterlimit:4;stroke-dasharray:none;stroke-opacity:1" /><path
       style="font-style:normal;font-variant:normal;font-weight:normal;font-stretch:normal;font-size:medium;line-height:125%;font-family:'Luxi Sans';-inkscape-font-specification:'Luxi Sans';text-align:start;letter-spacing:0px;word-spacing:0px;writing-mode:lr-tb;text-anchor:start;fill:#0b6790;fill-opacity:1;stroke:none;stroke-width:1px;stroke-linecap:butt;stroke-linejoin:miter;stroke-opacity:1"
       inkscape:connector-curvature="0"
       id="path4197"
       d="m -321.31137,439.4569 0,-1.15361 q 1.62551,0.77647 3.20709,0.77647 1.77378,0 1.77378,-1.32554 0,-0.68773 -0.48875,-1.00942 -0.37892,-0.25512 -1.21913,-0.53243 l -1.10381,-0.36605 q -2.12524,-0.70437 -2.12524,-2.32385 0,-2.19076 2.97643,-2.19076 1.27405,0 2.64145,0.34941 l 0,1.07042 q -1.42781,-0.54908 -2.71284,-0.54908 -1.79025,0 -1.79025,1.23126 0,0.48252 0.33498,0.77647 0.34597,0.30504 1.21913,0.59345 l 1.13127,0.37159 q 1.27954,0.42151 1.80124,0.96504 0.52171,0.53799 0.52171,1.44201 0,1.09261 -0.80178,1.73042 -0.79628,0.63781 -2.20213,0.63781 -1.38387,0 -3.16315,-0.49361 z" /><path
       style="font-style:normal;font-variant:normal;font-weight:normal;font-stretch:normal;font-size:medium;line-height:125%;font-family:'Luxi Sans';-inkscape-font-specification:'Luxi Sans';text-align:start;letter-spacing:0px;word-spacing:0px;writing-mode:lr-tb;text-anchor:start;fill:#0b6790;fill-opacity:1;stroke:none;stroke-width:1px;stroke-linecap:butt;stroke-linejoin:miter;stroke-opacity:1"
       inkscape:connector-curvature="0"
       id="path4199"
       d="m -313.61217,439.74531 0,-8.75746 1.08184,0 0,3.86571 q 0.40089,-0.56017 0.7908,-0.84858 0.56562,-0.41597 1.24109,-0.41597 1.51568,0 1.51568,1.83026 l 0,4.32604 -1.08733,0 0,-3.97109 q 0,-0.7321 -0.14828,-0.98722 -0.15377,-0.26067 -0.57113,-0.26067 -0.88963,0 -1.74083,1.31999 l 0,3.89899 -1.08184,0 z" /><path
       style="font-style:normal;font-variant:normal;font-weight:normal;font-stretch:normal;font-size:medium;line-height:125%;font-family:'Luxi Sans';-inkscape-font-specification:'Luxi Sans';text-align:start;letter-spacing:0px;word-spacing:0px;writing-mode:lr-tb;text-anchor:start;fill:#0b6790;fill-opacity:1;stroke:none;stroke-width:1px;stroke-linecap:butt;stroke-linejoin:miter;stroke-opacity:1"
       inkscape:connector-curvature="0"
       id="path4201"
       d="m -307.48905,439.74531 0,-6.02318 1.08184,0 0,6.02318 -1.08184,0 z m 0,-7.11578 0,-1.09261 1.08184,0 0,1.09261 -1.08184,0 z" /><path
       style="font-style:normal;font-variant:normal;font-weight:normal;font-stretch:normal;font-size:medium;line-height:125%;font-family:'Luxi Sans';-inkscape-font-specification:'Luxi Sans';text-align:start;letter-spacing:0px;word-spacing:0px;writing-mode:lr-tb;text-anchor:start;fill:#0b6790;fill-opacity:1;stroke:none;stroke-width:1px;stroke-linecap:butt;stroke-linejoin:miter;stroke-opacity:1"
       inkscape:connector-curvature="0"
       id="path4203"
       d="m -304.73227,439.74531 0,-5.20234 -0.79079,0 0,-0.82084 0.79079,0 0,-0.72101 q 0,-2.15193 1.6914,-2.15193 0.35696,0 0.80727,0.1442 l 0,0.87076 q -0.40638,-0.19412 -0.69194,-0.19412 -0.40088,0 -0.56015,0.27176 -0.15925,0.26622 -0.15925,0.94286 l 0,0.83748 1.07086,0 0,0.82084 -1.07086,0 0,5.20234 -1.08733,0 z" /><path
       style="font-style:normal;font-variant:normal;font-weight:normal;font-stretch:normal;font-size:medium;line-height:125%;font-family:'Luxi Sans';-inkscape-font-specification:'Luxi Sans';text-align:start;letter-spacing:0px;word-spacing:0px;writing-mode:lr-tb;text-anchor:start;fill:#0b6790;fill-opacity:1;stroke:none;stroke-width:1px;stroke-linecap:butt;stroke-linejoin:miter;stroke-opacity:1"
       inkscape:connector-curvature="0"
       id="path4205"
       d="m -299.27913,439.77859 q -0.32949,0.10538 -0.62055,0.10538 -1.45527,0 -1.45527,-1.80252 l 0,-3.53848 -0.67547,0 0,-0.82084 0.67547,0 0,-1.0926 1.08184,-0.10538 0,1.19798 1.15324,0 0,0.82084 -1.15324,0 0,3.33881 q 0,0.71546 0.12081,0.9484 0.12082,0.23295 0.50524,0.23295 0.20868,0 0.36793,-0.061 l 0,0.77648 z" /><path
       style="font-style:normal;font-variant:normal;font-weight:normal;font-stretch:normal;font-size:medium;line-height:125%;font-family:'Luxi Sans';-inkscape-font-specification:'Luxi Sans';text-align:start;letter-spacing:0px;word-spacing:0px;writing-mode:lr-tb;text-anchor:start;fill:#0b6790;fill-opacity:1;stroke:none;stroke-width:1px;stroke-linecap:butt;stroke-linejoin:miter;stroke-opacity:1"
       inkscape:connector-curvature="0"
       id="path4209"
       d="m -319.87407,547.48176 -3.13569,-8.20838 1.18618,0 2.59203,6.73864 2.4822,-6.73864 0.98298,0 -3.02037,8.20838 -1.08733,0 z" /><path
       style="font-style:normal;font-variant:normal;font-weight:normal;font-stretch:normal;font-size:medium;line-height:125%;font-family:'Luxi Sans';-inkscape-font-specification:'Luxi Sans';text-align:start;letter-spacing:0px;word-spacing:0px;writing-mode:lr-tb;text-anchor:start;fill:#0b6790;fill-opacity:1;stroke:none;stroke-width:1px;stroke-linecap:butt;stroke-linejoin:miter;stroke-opacity:1"
       inkscape:connector-curvature="0"
       id="path4211"
       d="m -316.01897,549.12345 2.92701,-9.85007 0.85119,0 -2.92701,9.85007 -0.85119,0 z" /><path
       style="font-style:normal;font-variant:normal;font-weight:normal;font-stretch:normal;font-size:medium;line-height:125%;font-family:'Luxi Sans';-inkscape-font-specification:'Luxi Sans';text-align:start;letter-spacing:0px;word-spacing:0px;writing-mode:lr-tb;text-anchor:start;fill:#0b6790;fill-opacity:1;stroke:none;stroke-width:1px;stroke-linecap:butt;stroke-linejoin:miter;stroke-opacity:1"
       inkscape:connector-curvature="0"
       id="path4213"
       d="m -308.19896,539.06817 q 1.75181,0 2.81169,1.17025 1.05439,1.1758 1.05439,3.12806 0,1.99109 -1.05439,3.1558 -1.05988,1.1647 -2.86661,1.1647 -1.54862,0 -2.55358,-0.9595 -1.25758,-1.20352 -1.25758,-3.34991 0,-1.9689 1.05439,-3.13915 1.05438,-1.17025 2.81169,-1.17025 z m 0,0.87076 q -1.24659,0 -1.93853,0.90403 -0.69194,0.90403 -0.69194,2.52907 0,1.61395 0.69194,2.52907 0.68645,0.91512 1.91108,0.91512 1.13675,0 1.81221,-0.73209 0.84571,-0.90404 0.84571,-2.71765 0,-1.61949 -0.69743,-2.52352 -0.69744,-0.90403 -1.93304,-0.90403 z" /><path
       style="font-style:normal;font-variant:normal;font-weight:normal;font-stretch:normal;font-size:medium;line-height:125%;font-family:'Luxi Sans';-inkscape-font-specification:'Luxi Sans';text-align:start;letter-spacing:0px;word-spacing:0px;writing-mode:lr-tb;text-anchor:start;fill:#0b6790;fill-opacity:1;stroke:none;stroke-width:1px;stroke-linecap:butt;stroke-linejoin:miter;stroke-opacity:1"
       inkscape:connector-curvature="0"
       id="path4215"
       d="m -298.74794,547.29874 q -0.99398,0.32168 -1.87263,0.32168 -1.23561,0 -1.98796,-0.8763 -0.75234,-0.87076 -0.75234,-2.27395 0,-1.47529 0.76882,-2.30721 0.76333,-0.83748 2.14172,-0.83748 0.69193,0 1.63649,0.19966 l 0,0.90958 q -0.90062,-0.27176 -1.4388,-0.27176 -1.8891,0 -1.8891,2.30721 0,1.08706 0.48875,1.67496 0.48326,0.59345 1.35642,0.59345 0.66448,0 1.54863,-0.38269 l 0,0.94285 z" /><path
       style="font-style:normal;font-variant:normal;font-weight:normal;font-stretch:normal;font-size:medium;line-height:125%;font-family:'Luxi Sans';-inkscape-font-specification:'Luxi Sans';text-align:start;letter-spacing:0px;word-spacing:0px;writing-mode:lr-tb;text-anchor:start;fill:#0b6790;fill-opacity:1;stroke:none;stroke-width:1px;stroke-linecap:butt;stroke-linejoin:miter;stroke-opacity:1"
       inkscape:connector-curvature="0"
       id="path4217"
       d="m -295.29923,547.51504 q -0.3295,0.10538 -0.62054,0.10538 -1.45527,0 -1.45527,-1.80252 l 0,-3.53848 -0.67547,0 0,-0.82083 0.67547,0 0,-1.09261 1.08183,-0.10538 0,1.19799 1.15324,0 0,0.82083 -1.15324,0 0,3.33882 q 0,0.71547 0.12082,0.9484 0.12081,0.23294 0.50522,0.23294 0.20868,0 0.36794,-0.061 l 0,0.77646 z" /></g><g
     id="g4376"
     transform="translate(-4.6591898e-6,0)"><path
       style="fill:#042a3b;fill-opacity:1"
       d="m -318.66329,570.20047 c -0.18908,-0.33888 0.1195,-1.03603 0.15953,-1.20315 -0.47246,0.13179 -1.47345,0.29384 -2.55741,0.22966 -1.32125,-0.0783 -2.26441,-0.3 -3.27347,-1.87662 -2.5345,-3.96014 0.53907,-8.95249 3.81873,-10.90914 1.21679,-0.72596 2.61349,-1.36291 3.934,-1.921 0.57698,-0.24388 2.19001,0.89785 0.78913,0.93538 -1.38415,0.61978 -2.3865,0.89106 -3.67512,1.69155 -3.23631,2.01033 -5.77757,6.44739 -4.09392,9.75468 0.62454,1.22676 1.95367,1.74039 3.41259,1.6333 0.38073,-0.028 1.27588,-0.1401 1.97928,-0.44384 0.52769,-1.11281 0.40995,-0.87687 0.70049,-1.51236 1.2273,-2.68464 2.34951,-4.78101 4.23835,-7.55321 0.86069,-1.26328 1.85982,-2.5296 2.75875,-3.6037 0.80766,-0.96498 1.51342,-1.91425 2.68407,-2.43683 1.79651,0.34725 -0.11673,1.58759 -0.63188,2.2689 -0.82444,1.09031 -1.6373,2.37971 -1.84577,3.75217 -0.0989,0.65104 -0.21756,1.50504 -0.27493,2.81727 1.25379,-1.21913 5.06384,-5.03201 7.71395,-6.92221 0.9167,-0.65383 1.8986,-1.2122 3.04081,-1.53408 1.24095,-0.34969 2.46494,-0.14385 3.4383,0.624 0.89251,0.70411 1.2628,1.80111 1.42371,2.96662 0.28297,2.04999 -0.48539,4.08599 -1.38317,5.88274 -0.90921,1.81955 -2.53674,3.19959 -4.25906,4.23305 -1.42308,0.8539 -3.1103,1.47111 -4.79405,1.25855 -1.32196,-0.16692 -1.96766,-1.19774 -2.18664,-2.55521 -0.37799,-2.34323 0.64175,-4.5728 1.9054,-6.60127 0.18702,-0.30023 0.30168,-0.51539 0.71475,-1.12383 -0.99059,0.87819 -1.78787,1.63551 -2.03803,1.89253 -1.15927,1.19105 -2.51559,2.31812 -3.57576,3.56002 -0.0375,1.29172 0.0523,2.55463 0.25354,3.81842 0.10746,0.67492 1.7233,1.3946 0.29668,1.53784 -1.20075,0.10084 -1.70959,-1.23575 -1.75145,-2.2288 -0.0172,-0.40871 -0.0402,-1.29173 -0.0766,-2.00455 -0.3684,0.31685 -0.49691,0.43955 -0.83197,0.7534 -1.5218,1.25142 -2.96676,2.46947 -4.19295,3.00922 -0.21263,0.0936 -0.40716,0.20536 -0.61756,0.3081 -0.058,0.13665 -0.55481,1.52381 -1.20227,1.5024 z m 13.59419,-2.54876 c 1.89063,-0.55583 3.76633,-1.49737 5.13434,-2.84014 0.83093,-0.81556 1.55659,-1.69777 2.1336,-2.67967 0.6759,-1.15011 1.08528,-2.30086 1.21369,-3.65515 0.10733,-1.13204 0.023,-2.21066 -0.31006,-3.22081 -0.41878,-1.27024 -2.03539,-0.9748 -3.00314,-0.59664 -1.11028,0.43381 -2.09188,1.16305 -3.1051,1.91604 1.41966,0.71532 -0.75654,1.73726 -1.19244,2.21633 -1.66999,1.8355 -3.01969,4.25649 -2.56619,6.80174 0.11348,0.63681 0.62178,2.3739 1.6953,2.0583 z m -10.55317,-1.03241 c 1.32997,-0.9842 3.03865,-2.70761 3.72978,-3.40465 0.11537,-1.02218 0.18803,-1.93753 0.30107,-3.0697 0.0707,-0.55397 0.25878,-1.53354 0.35858,-2.13654 -0.29057,0.2352 -0.56989,0.55151 -0.79529,0.84691 -1.90043,2.49045 -2.77173,4.08018 -4.10832,6.73562 -0.0583,0.11585 -0.58012,1.28193 -0.85745,1.99854 0.54833,-0.28912 0.87985,-0.60627 1.37163,-0.97018 z"
       id="path4216"
       inkscape:connector-curvature="0"
       sodipodi:nodetypes="ccsssscssscssscsscssssssssscscscsccsccszsssscsssscccsscs" /><path
       sodipodi:nodetypes="ccsssscssscssscsscssssssssscscscsccsccszsssscsssscccsscs"
       inkscape:connector-curvature="0"
       id="path4224"
       d="m -319.01684,569.80272 c -0.18908,-0.33888 0.1195,-1.03603 0.15953,-1.20315 -0.47246,0.13179 -1.47345,0.29384 -2.55741,0.22966 -1.32125,-0.0783 -2.26441,-0.3 -3.27347,-1.87662 -2.5345,-3.96014 0.53907,-8.95249 3.81873,-10.90914 1.21679,-0.72596 2.61349,-1.36291 3.934,-1.921 0.57698,-0.24388 2.19001,0.89785 0.78913,0.93538 -1.38415,0.61978 -2.3865,0.89106 -3.67512,1.69155 -3.23631,2.01033 -5.77757,6.44739 -4.09392,9.75468 0.62454,1.22676 1.95367,1.74039 3.41259,1.6333 0.38073,-0.028 1.27588,-0.1401 1.97928,-0.44384 0.52769,-1.11281 0.40995,-0.87687 0.70049,-1.51236 1.2273,-2.68464 2.34951,-4.78101 4.23835,-7.55321 0.86069,-1.26328 1.85982,-2.5296 2.75875,-3.6037 0.80766,-0.96498 1.51342,-1.91425 2.68407,-2.43683 1.79651,0.34725 -0.11673,1.58759 -0.63188,2.2689 -0.82444,1.09031 -1.6373,2.37971 -1.84577,3.75217 -0.0989,0.65104 -0.21756,1.50504 -0.27493,2.81727 1.25379,-1.21913 5.06384,-5.03201 7.71395,-6.92221 0.9167,-0.65383 1.8986,-1.2122 3.04081,-1.53408 1.24095,-0.34969 2.46494,-0.14385 3.4383,0.624 0.89251,0.70411 1.2628,1.80111 1.42371,2.96662 0.28297,2.04999 -0.48539,4.08599 -1.38317,5.88274 -0.90921,1.81955 -2.53674,3.19959 -4.25906,4.23305 -1.42308,0.8539 -3.1103,1.47111 -4.79405,1.25855 -1.32196,-0.16692 -1.96766,-1.19774 -2.18664,-2.55521 -0.37799,-2.34323 0.64175,-4.5728 1.9054,-6.60127 0.18702,-0.30023 0.30168,-0.51539 0.71475,-1.12383 -0.99059,0.87819 -1.78787,1.63551 -2.03803,1.89253 -1.15927,1.19105 -2.51559,2.31812 -3.57576,3.56002 -0.0375,1.29172 0.0523,2.55463 0.25354,3.81842 0.10746,0.67492 1.7233,1.3946 0.29668,1.53784 -1.20075,0.10084 -1.70959,-1.23575 -1.75145,-2.2288 -0.0172,-0.40871 -0.0402,-1.29173 -0.0766,-2.00455 -0.3684,0.31685 -0.49691,0.43955 -0.83197,0.7534 -1.5218,1.25142 -2.96676,2.46947 -4.19295,3.00922 -0.21263,0.0936 -0.40716,0.20536 -0.61756,0.3081 -0.058,0.13665 -0.55481,1.52381 -1.20227,1.5024 z m 13.59419,-2.54876 c 1.89063,-0.55583 3.76633,-1.49737 5.13434,-2.84014 0.83093,-0.81556 1.55659,-1.69777 2.1336,-2.67967 0.6759,-1.15011 1.08528,-2.30086 1.21369,-3.65515 0.10733,-1.13204 0.023,-2.21066 -0.31006,-3.22081 -0.41878,-1.27024 -2.03539,-0.9748 -3.00314,-0.59664 -1.11028,0.43381 -2.09188,1.16305 -3.1051,1.91604 1.41966,0.71532 -0.75654,1.73726 -1.19244,2.21633 -1.66999,1.8355 -3.01969,4.25649 -2.56619,6.80174 0.11348,0.63681 0.62178,2.3739 1.6953,2.0583 z m -10.55317,-1.03241 c 1.32997,-0.9842 3.03865,-2.70761 3.72978,-3.40465 0.11537,-1.02218 0.18803,-1.93753 0.30107,-3.0697 0.0707,-0.55397 0.25878,-1.53354 0.35858,-2.13654 -0.29057,0.2352 -0.56989,0.55151 -0.79529,0.84691 -1.90043,2.49045 -2.77173,4.08018 -4.10832,6.73562 -0.0583,0.11585 -0.58012,1.28193 -0.85745,1.99854 0.54833,-0.28912 0.87985,-0.60627 1.37163,-0.97018 z"
       style="fill:#042a3b;fill-opacity:1" /><path
       sodipodi:nodetypes="ccsssscssscssscsscssssssssscscscsccsccszsssscsssscccsscs"
       inkscape:connector-curvature="0"
       id="path4161"
       d="m -319.37993,569.24494 c -0.18908,-0.33888 0.11949,-1.03603 0.15952,-1.20315 -0.47245,0.13179 -1.47344,0.29384 -2.55741,0.22966 -1.32125,-0.0782 -2.2644,-0.3 -3.27347,-1.87662 -2.5345,-3.96014 0.53908,-8.95249 3.81873,-10.90914 1.2168,-0.72596 2.61349,-1.36291 3.934,-1.921 0.57698,-0.24388 2.19002,0.89785 0.78914,0.93538 -1.38416,0.61979 -2.3865,0.89106 -3.67512,1.69155 -3.23631,2.01033 -5.77757,6.44739 -4.09393,9.75468 0.62455,1.22676 1.95367,1.7404 3.41259,1.6333 0.38074,-0.028 1.27589,-0.14009 1.97928,-0.44384 0.52769,-1.11281 0.40996,-0.87687 0.70049,-1.51236 1.22731,-2.68464 2.34951,-4.78101 4.23835,-7.55321 0.86069,-1.26328 1.85983,-2.5296 2.75876,-3.6037 0.80765,-0.96498 1.51341,-1.91424 2.68406,-2.43683 1.79651,0.34725 -0.11672,1.5876 -0.63188,2.2689 -0.82444,1.09031 -1.63729,2.37971 -1.84577,3.75217 -0.0989,0.65104 -0.21756,1.50504 -0.27492,2.81727 1.25379,-1.21913 5.06383,-5.03201 7.71394,-6.9222 0.9167,-0.65384 1.89861,-1.21221 3.04081,-1.53409 1.24095,-0.34969 2.46494,-0.14385 3.4383,0.624 0.89251,0.70411 1.26281,1.80111 1.42372,2.96663 0.28296,2.04998 -0.4854,4.08598 -1.38318,5.88273 -0.9092,1.81956 -2.53673,3.19959 -4.25906,4.23305 -1.42307,0.8539 -3.1103,1.47111 -4.79404,1.25855 -1.32197,-0.16692 -1.96766,-1.19774 -2.18664,-2.55521 -0.378,-2.34323 0.64174,-4.5728 1.90539,-6.60127 0.18703,-0.30023 0.30169,-0.51539 0.71475,-1.12383 -0.99059,0.87819 -1.78786,1.63551 -2.03803,1.89253 -1.15926,1.19105 -2.51558,2.31812 -3.57576,3.56002 -0.0375,1.29173 0.0523,2.55464 0.25354,3.81842 0.10747,0.67492 1.72331,1.3946 0.29668,1.53784 -1.20075,0.10084 -1.70959,-1.23575 -1.75144,-2.2288 -0.0172,-0.40871 -0.0402,-1.29173 -0.0767,-2.00455 -0.3684,0.31685 -0.49691,0.43955 -0.83197,0.7534 -1.52179,1.25142 -2.96676,2.46947 -4.19295,3.00922 -0.21263,0.0936 -0.40715,0.20537 -0.61755,0.3081 -0.058,0.13665 -0.55482,1.52382 -1.20227,1.5024 z m 13.59418,-2.54876 c 1.89064,-0.55583 3.76634,-1.49737 5.13435,-2.84014 0.83092,-0.81555 1.55658,-1.69776 2.1336,-2.67967 0.67589,-1.15011 1.08527,-2.30086 1.21368,-3.65515 0.10733,-1.13203 0.023,-2.21066 -0.31006,-3.2208 -0.41877,-1.27025 -2.03539,-0.97481 -3.00314,-0.59665 -1.11028,0.43381 -2.09188,1.16305 -3.1051,1.91604 1.41967,0.71532 -0.75653,1.73726 -1.19243,2.21634 -1.67,1.83549 -3.0197,4.25649 -2.5662,6.80173 0.11348,0.63681 0.62178,2.3739 1.6953,2.0583 z m -10.55317,-1.03241 c 1.32997,-0.9842 3.03865,-2.70761 3.72978,-3.40465 0.11537,-1.02217 0.18804,-1.93753 0.30108,-3.0697 0.0707,-0.55397 0.25877,-1.53354 0.35857,-2.13653 -0.29057,0.23519 -0.56989,0.5515 -0.79529,0.8469 -1.90043,2.49045 -2.77173,4.08018 -4.10832,6.73562 -0.0583,0.11585 -0.58012,1.28193 -0.85744,1.99854 0.54833,-0.28911 0.87984,-0.60627 1.37162,-0.97018 z"
       style="fill:#6bb7bf;fill-opacity:1" /></g><text
     transform="scale(0.99284073,1.0072109)"
     sodipodi:linespacing="125%"
     id="text4265"
     y="196.57898"
     x="-412.11899"
     style="font-style:normal;font-variant:normal;font-weight:normal;font-stretch:normal;font-size:16.65466881px;line-height:125%;font-family:'COM4t Fine Regular';-inkscape-font-specification:'COM4t Fine Regular, ';text-align:start;letter-spacing:0px;word-spacing:0px;writing-mode:lr-tb;text-anchor:start;fill:#000000;fill-opacity:1;stroke:none;stroke-width:1px;stroke-linecap:butt;stroke-linejoin:miter;stroke-opacity:1"
     xml:space="preserve"><tspan
       y="196.57898"
       x="-412.11899"
       id="tspan4267"
       sodipodi:role="line" /></text>
<g
     style="font-style:normal;font-variant:normal;font-weight:normal;font-stretch:normal;font-size:15.00000095px;line-height:125%;font-family:'URW Gothic L';-inkscape-font-specification:'URW Gothic L';letter-spacing:0px;word-spacing:0px;fill:#0b6790;fill-opacity:1;stroke:none;stroke-width:1px;stroke-linecap:butt;stroke-linejoin:miter;stroke-opacity:1"
     id="text4173"
     transform="translate(-42.1379,24.150303)" /><g
     style="font-style:normal;font-variant:normal;font-weight:normal;font-stretch:normal;font-size:15.00000095px;line-height:125%;font-family:'URW Gothic L';-inkscape-font-specification:'URW Gothic L';letter-spacing:0px;word-spacing:0px;fill:#0b6790;fill-opacity:1;stroke:none;stroke-width:1px;stroke-linecap:butt;stroke-linejoin:miter;stroke-opacity:1"
     id="text4171"
     transform="translate(-74.430383,-10.452877)"><path
       d="m -257.12379,143.05334 1.08,0 4.59,-11.085 -1.2,0 -3.915,9.705 -3.9,-9.705 -1.215,0 4.56,11.085 z"
       id="path4176"
       inkscape:connector-curvature="0"
       style="fill:#2c4451;fill-opacity:1" /><path
       d="m -243.54961,134.84834 -1.11,0 0,1.455 c -0.81,-1.14 -1.815,-1.65 -3.24,-1.65 -2.46,0 -4.32,1.86 -4.32,4.32 0,2.445 1.875,4.275 4.395,4.275 1.395,0 2.295,-0.465 3.165,-1.635 l 0,1.44 1.11,0 0,-8.205 z m -4.32,0.825 c 1.8,0 3.21,1.41 3.21,3.24 0,1.86 -1.38,3.315 -3.15,3.315 -1.86,0 -3.285,-1.455 -3.285,-3.33 0,-1.785 1.44,-3.225 3.225,-3.225 z"
       id="path4178"
       inkscape:connector-curvature="0"
       style="fill:#2c4451;fill-opacity:1" /><path
       d="m -241.6507,143.05334 1.11,0 0,-4.785 c 0,-1.53 0.78,-2.37 2.325,-2.52 l 0,-1.095 c -1.185,0.06 -1.89,0.465 -2.325,1.365 l 0,-1.17 -1.11,0 0,8.205 z"
       id="path4180"
       inkscape:connector-curvature="0"
       style="fill:#2c4451;fill-opacity:1" /><path
       d="m -237.81398,140.63834 c 0.015,1.59 1.065,2.61 2.64,2.61 1.47,0 2.505,-1.05 2.505,-2.55 0,-1.005 -0.465,-1.695 -1.425,-2.1 -1.245,-0.51 -1.305,-0.54 -1.545,-0.66 -0.51,-0.255 -0.75,-0.6 -0.75,-1.08 0,-0.66 0.525,-1.185 1.185,-1.185 0.72,0 1.14,0.42 1.2,1.2 l 1.125,0 c -0.045,-1.32 -0.99,-2.22 -2.31,-2.22 -1.335,0 -2.325,0.975 -2.325,2.31 0,0.585 0.21,1.095 0.615,1.47 0.345,0.315 0.36,0.315 1.515,0.795 0.495,0.195 0.855,0.375 1.065,0.51 0.33,0.225 0.525,0.615 0.525,1.065 0,0.825 -0.585,1.425 -1.38,1.425 -0.915,0 -1.485,-0.585 -1.545,-1.59 l -1.095,0 z"
       id="path4182"
       inkscape:connector-curvature="0"
       style="fill:#0b6790;fill-opacity:1" /><path
       d="m -231.3089,143.05334 1.11,0 0,-4.5 c 0,-0.885 0.12,-1.41 0.45,-1.86 0.45,-0.645 1.215,-1.02 2.055,-1.02 0.795,0 1.545,0.345 1.98,0.9 0.39,0.48 0.555,1.11 0.555,2.07 l 0,4.41 1.11,0 0,-4.41 c 0,-1.23 -0.225,-2.07 -0.705,-2.715 -0.615,-0.81 -1.65,-1.275 -2.835,-1.275 -1.125,0 -2.055,0.45 -2.61,1.26 l 0,-3.945 -1.11,0 0,11.085 z"
       id="path4185"
       inkscape:connector-curvature="0"
       style="fill:#0b6790;fill-opacity:1" /><path
       d="m -222.16828,143.05334 1.11,0 0,-8.205 -1.11,0 0,8.205 z m 0,-9.195 1.11,0 0,-1.89 -1.11,0 0,1.89 z"
       id="path4187"
       inkscape:connector-curvature="0"
       style="fill:#0b6790;fill-opacity:1" /><path
       d="m -218.61,143.05334 1.11,0 0,-7.2 2.04,0 0,-1.005 -2.04,0 c -0.015,-1.365 0.525,-1.86 2.04,-1.875 l 0,-1.005 c -2.115,0 -3.18,0.975 -3.15,2.88 l -1.275,0 0,1.005 1.275,0 0,7.2 z"
       id="path4189"
       inkscape:connector-curvature="0"
       style="fill:#0b6790;fill-opacity:1" /><path
       d="m -213.4582,143.05334 1.11,0 0,-7.2 1.845,0 0,-1.005 -1.845,0 0,-2.88 -1.11,0 0,2.88 -1.77,0 0,1.005 1.77,0 0,7.2 z"
       id="path4191"
       inkscape:connector-curvature="0"
       style="fill:#0b6790;fill-opacity:1" /></g></svg>