<?xml version="1.0" encoding="UTF-8" standalone="no"?>
<!-- Generator: Adobe Illustrator 19.0.0, SVG Export Plug-In . SVG Version: 6.00 Build 0)  -->

<svg
   xmlns:dc="http://purl.org/dc/elements/1.1/"
   xmlns:cc="http://creativecommons.org/ns#"
   xmlns:rdf="http://www.w3.org/1999/02/22-rdf-syntax-ns#"
   xmlns:svg="http://www.w3.org/2000/svg"
   xmlns="http://www.w3.org/2000/svg"
   xmlns:sodipodi="http://sodipodi.sourceforge.net/DTD/sodipodi-0.dtd"
   xmlns:inkscape="http://www.inkscape.org/namespaces/inkscape"
   version="1.0"
   id="svg55117"
   sodipodi:docname="DualBendScaler.svg"
   inkscape:version="0.91 r13725"
   x="0px"
   y="0px"
   width="15mm"
   height="128.5mm"
   viewBox="-337 116.84 53.149607 455.31492"
   enable-background="new -337 116.8399963 45 380"
   xml:space="preserve"><metadata
     id="metadata100"><rdf:RDF><cc:Work
         rdf:about=""><dc:format>image/svg+xml</dc:format><dc:type
           rdf:resource="http://purl.org/dc/dcmitype/StillImage" /><dc:title /></cc:Work></rdf:RDF></metadata><defs
     id="defs98" /><sodipodi:namedview
     pagecolor="#ffffff"
     bordercolor="#666666"
     borderopacity="1"
     objecttolerance="10"
     gridtolerance="10"
     guidetolerance="10"
     inkscape:pageopacity="0"
     inkscape:pageshadow="2"
     inkscape:window-width="1525"
     inkscape:window-height="1008"
     id="namedview96"
     showgrid="false"
     inkscape:zoom="2"
     inkscape:cx="67.576454"
     inkscape:cy="82.863425"
     inkscape:current-layer="svg55117"
     units="mm"
     inkscape:document-units="mm"
     inkscape:window-x="81"
     inkscape:window-y="24"
     inkscape:window-maximized="0" /><text
     xml:space="preserve"
     style="font-style:normal;font-variant:normal;font-weight:normal;font-stretch:normal;font-size:16.65466881px;line-height:125%;font-family:'COM4t Fine Regular';-inkscape-font-specification:'COM4t Fine Regular, ';text-align:start;letter-spacing:0px;word-spacing:0px;writing-mode:lr-tb;text-anchor:start;fill:#000000;fill-opacity:1;stroke:none;stroke-width:1px;stroke-linecap:butt;stroke-linejoin:miter;stroke-opacity:1"
     x="-332.70807"
     y="136.72969"
     id="text3342"
     sodipodi:linespacing="125%"
     transform="scale(0.99284073,1.0072109)"><tspan
       sodipodi:role="line"
       id="tspan3344"
       x="-332.70807"
       y="136.72969" /></text>
<path
     style="fill:#f0f0f0"
     id="path25061"
     inkscape:connector-curvature="0"
     inkscape:export-filename="/home/vortico/src/cpp/VCV/Rack/plugins/Fundamental/res/Delay.png"
     inkscape:export-xdpi="100.2962"
     inkscape:export-ydpi="100.2962"
     d="m -337,116.83997 53.14961,0 0,455.31496 -53.14961,0 0,-455.31496 z" /><g
     id="g4376"
     transform="translate(-4.6591898e-6,0)"><path
       style="fill:#042a3b;fill-opacity:1"
       d="m -318.66329,570.20047 c -0.18908,-0.33888 0.1195,-1.03603 0.15953,-1.20315 -0.47246,0.13179 -1.47345,0.29384 -2.55741,0.22966 -1.32125,-0.0783 -2.26441,-0.3 -3.27347,-1.87662 -2.5345,-3.96014 0.53907,-8.95249 3.81873,-10.90914 1.21679,-0.72596 2.61349,-1.36291 3.934,-1.921 0.57698,-0.24388 2.19001,0.89785 0.78913,0.93538 -1.38415,0.61978 -2.3865,0.89106 -3.67512,1.69155 -3.23631,2.01033 -5.77757,6.44739 -4.09392,9.75468 0.62454,1.22676 1.95367,1.74039 3.41259,1.6333 0.38073,-0.028 1.27588,-0.1401 1.97928,-0.44384 0.52769,-1.11281 0.40995,-0.87687 0.70049,-1.51236 1.2273,-2.68464 2.34951,-4.78101 4.23835,-7.55321 0.86069,-1.26328 1.85982,-2.5296 2.75875,-3.6037 0.80766,-0.96498 1.51342,-1.91425 2.68407,-2.43683 1.79651,0.34725 -0.11673,1.58759 -0.63188,2.2689 -0.82444,1.09031 -1.6373,2.37971 -1.84577,3.75217 -0.0989,0.65104 -0.21756,1.50504 -0.27493,2.81727 1.25379,-1.21913 5.06384,-5.03201 7.71395,-6.92221 0.9167,-0.65383 1.8986,-1.2122 3.04081,-1.53408 1.24095,-0.34969 2.46494,-0.14385 3.4383,0.624 0.89251,0.70411 1.2628,1.80111 1.42371,2.96662 0.28297,2.04999 -0.48539,4.08599 -1.38317,5.88274 -0.90921,1.81955 -2.53674,3.19959 -4.25906,4.23305 -1.42308,0.8539 -3.1103,1.47111 -4.79405,1.25855 -1.32196,-0.16692 -1.96766,-1.19774 -2.18664,-2.55521 -0.37799,-2.34323 0.64175,-4.5728 1.9054,-6.60127 0.18702,-0.30023 0.30168,-0.51539 0.71475,-1.12383 -0.99059,0.87819 -1.78787,1.63551 -2.03803,1.89253 -1.15927,1.19105 -2.51559,2.31812 -3.57576,3.56002 -0.0375,1.29172 0.0523,2.55463 0.25354,3.81842 0.10746,0.67492 1.7233,1.3946 0.29668,1.53784 -1.20075,0.10084 -1.70959,-1.23575 -1.75145,-2.2288 -0.0172,-0.40871 -0.0402,-1.29173 -0.0766,-2.00455 -0.3684,0.31685 -0.49691,0.43955 -0.83197,0.7534 -1.5218,1.25142 -2.96676,2.46947 -4.19295,3.00922 -0.21263,0.0936 -0.40716,0.20536 -0.61756,0.3081 -0.058,0.13665 -0.55481,1.52381 -1.20227,1.5024 z m 13.59419,-2.54876 c 1.89063,-0.55583 3.76633,-1.49737 5.13434,-2.84014 0.83093,-0.81556 1.55659,-1.69777 2.1336,-2.67967 0.6759,-1.15011 1.08528,-2.30086 1.21369,-3.65515 0.10733,-1.13204 0.023,-2.21066 -0.31006,-3.22081 -0.41878,-1.27024 -2.03539,-0.9748 -3.00314,-0.59664 -1.11028,0.43381 -2.09188,1.16305 -3.1051,1.91604 1.41966,0.71532 -0.75654,1.73726 -1.19244,2.21633 -1.66999,1.8355 -3.01969,4.25649 -2.56619,6.80174 0.11348,0.63681 0.62178,2.3739 1.6953,2.0583 z m -10.55317,-1.03241 c 1.32997,-0.9842 3.03865,-2.70761 3.72978,-3.40465 0.11537,-1.02218 0.18803,-1.93753 0.30107,-3.0697 0.0707,-0.55397 0.25878,-1.53354 0.35858,-2.13654 -0.29057,0.2352 -0.56989,0.55151 -0.79529,0.84691 -1.90043,2.49045 -2.77173,4.08018 -4.10832,6.73562 -0.0583,0.11585 -0.58012,1.28193 -0.85745,1.99854 0.54833,-0.28912 0.87985,-0.60627 1.37163,-0.97018 z"
       id="path4216"
       inkscape:connector-curvature="0"
       sodipodi:nodetypes="ccsssscssscssscsscssssssssscscscsccsccszsssscsssscccsscs" /><path
       sodipodi:nodetypes="ccsssscssscssscsscssssssssscscscsccsccszsssscsssscccsscs"
       inkscape:connector-curvature="0"
       id="path4224"
       d="m -319.01684,569.80272 c -0.18908,-0.33888 0.1195,-1.03603 0.15953,-1.20315 -0.47246,0.13179 -1.47345,0.29384 -2.55741,0.22966 -1.32125,-0.0783 -2.26441,-0.3 -3.27347,-1.87662 -2.5345,-3.96014 0.53907,-8.95249 3.81873,-10.90914 1.21679,-0.72596 2.61349,-1.36291 3.934,-1.921 0.57698,-0.24388 2.19001,0.89785 0.78913,0.93538 -1.38415,0.61978 -2.3865,0.89106 -3.67512,1.69155 -3.23631,2.01033 -5.77757,6.44739 -4.09392,9.75468 0.62454,1.22676 1.95367,1.74039 3.41259,1.6333 0.38073,-0.028 1.27588,-0.1401 1.97928,-0.44384 0.52769,-1.11281 0.40995,-0.87687 0.70049,-1.51236 1.2273,-2.68464 2.34951,-4.78101 4.23835,-7.55321 0.86069,-1.26328 1.85982,-2.5296 2.75875,-3.6037 0.80766,-0.96498 1.51342,-1.91425 2.68407,-2.43683 1.79651,0.34725 -0.11673,1.58759 -0.63188,2.2689 -0.82444,1.09031 -1.6373,2.37971 -1.84577,3.75217 -0.0989,0.65104 -0.21756,1.50504 -0.27493,2.81727 1.25379,-1.21913 5.06384,-5.03201 7.71395,-6.92221 0.9167,-0.65383 1.8986,-1.2122 3.04081,-1.53408 1.24095,-0.34969 2.46494,-0.14385 3.4383,0.624 0.89251,0.70411 1.2628,1.80111 1.42371,2.96662 0.28297,2.04999 -0.48539,4.08599 -1.38317,5.88274 -0.90921,1.81955 -2.53674,3.19959 -4.25906,4.23305 -1.42308,0.8539 -3.1103,1.47111 -4.79405,1.25855 -1.32196,-0.16692 -1.96766,-1.19774 -2.18664,-2.55521 -0.37799,-2.34323 0.64175,-4.5728 1.9054,-6.60127 0.18702,-0.30023 0.30168,-0.51539 0.71475,-1.12383 -0.99059,0.87819 -1.78787,1.63551 -2.03803,1.89253 -1.15927,1.19105 -2.51559,2.31812 -3.57576,3.56002 -0.0375,1.29172 0.0523,2.55463 0.25354,3.81842 0.10746,0.67492 1.7233,1.3946 0.29668,1.53784 -1.20075,0.10084 -1.70959,-1.23575 -1.75145,-2.2288 -0.0172,-0.40871 -0.0402,-1.29173 -0.0766,-2.00455 -0.3684,0.31685 -0.49691,0.43955 -0.83197,0.7534 -1.5218,1.25142 -2.96676,2.46947 -4.19295,3.00922 -0.21263,0.0936 -0.40716,0.20536 -0.61756,0.3081 -0.058,0.13665 -0.55481,1.52381 -1.20227,1.5024 z m 13.59419,-2.54876 c 1.89063,-0.55583 3.76633,-1.49737 5.13434,-2.84014 0.83093,-0.81556 1.55659,-1.69777 2.1336,-2.67967 0.6759,-1.15011 1.08528,-2.30086 1.21369,-3.65515 0.10733,-1.13204 0.023,-2.21066 -0.31006,-3.22081 -0.41878,-1.27024 -2.03539,-0.9748 -3.00314,-0.59664 -1.11028,0.43381 -2.09188,1.16305 -3.1051,1.91604 1.41966,0.71532 -0.75654,1.73726 -1.19244,2.21633 -1.66999,1.8355 -3.01969,4.25649 -2.56619,6.80174 0.11348,0.63681 0.62178,2.3739 1.6953,2.0583 z m -10.55317,-1.03241 c 1.32997,-0.9842 3.03865,-2.70761 3.72978,-3.40465 0.11537,-1.02218 0.18803,-1.93753 0.30107,-3.0697 0.0707,-0.55397 0.25878,-1.53354 0.35858,-2.13654 -0.29057,0.2352 -0.56989,0.55151 -0.79529,0.84691 -1.90043,2.49045 -2.77173,4.08018 -4.10832,6.73562 -0.0583,0.11585 -0.58012,1.28193 -0.85745,1.99854 0.54833,-0.28912 0.87985,-0.60627 1.37163,-0.97018 z"
       style="fill:#042a3b;fill-opacity:1" /><path
       sodipodi:nodetypes="ccsssscssscssscsscssssssssscscscsccsccszsssscsssscccsscs"
       inkscape:connector-curvature="0"
       id="path4161"
       d="m -319.37993,569.24494 c -0.18908,-0.33888 0.11949,-1.03603 0.15952,-1.20315 -0.47245,0.13179 -1.47344,0.29384 -2.55741,0.22966 -1.32125,-0.0782 -2.2644,-0.3 -3.27347,-1.87662 -2.5345,-3.96014 0.53908,-8.95249 3.81873,-10.90914 1.2168,-0.72596 2.61349,-1.36291 3.934,-1.921 0.57698,-0.24388 2.19002,0.89785 0.78914,0.93538 -1.38416,0.61979 -2.3865,0.89106 -3.67512,1.69155 -3.23631,2.01033 -5.77757,6.44739 -4.09393,9.75468 0.62455,1.22676 1.95367,1.7404 3.41259,1.6333 0.38074,-0.028 1.27589,-0.14009 1.97928,-0.44384 0.52769,-1.11281 0.40996,-0.87687 0.70049,-1.51236 1.22731,-2.68464 2.34951,-4.78101 4.23835,-7.55321 0.86069,-1.26328 1.85983,-2.5296 2.75876,-3.6037 0.80765,-0.96498 1.51341,-1.91424 2.68406,-2.43683 1.79651,0.34725 -0.11672,1.5876 -0.63188,2.2689 -0.82444,1.09031 -1.63729,2.37971 -1.84577,3.75217 -0.0989,0.65104 -0.21756,1.50504 -0.27492,2.81727 1.25379,-1.21913 5.06383,-5.03201 7.71394,-6.9222 0.9167,-0.65384 1.89861,-1.21221 3.04081,-1.53409 1.24095,-0.34969 2.46494,-0.14385 3.4383,0.624 0.89251,0.70411 1.26281,1.80111 1.42372,2.96663 0.28296,2.04998 -0.4854,4.08598 -1.38318,5.88273 -0.9092,1.81956 -2.53673,3.19959 -4.25906,4.23305 -1.42307,0.8539 -3.1103,1.47111 -4.79404,1.25855 -1.32197,-0.16692 -1.96766,-1.19774 -2.18664,-2.55521 -0.378,-2.34323 0.64174,-4.5728 1.90539,-6.60127 0.18703,-0.30023 0.30169,-0.51539 0.71475,-1.12383 -0.99059,0.87819 -1.78786,1.63551 -2.03803,1.89253 -1.15926,1.19105 -2.51558,2.31812 -3.57576,3.56002 -0.0375,1.29173 0.0523,2.55464 0.25354,3.81842 0.10747,0.67492 1.72331,1.3946 0.29668,1.53784 -1.20075,0.10084 -1.70959,-1.23575 -1.75144,-2.2288 -0.0172,-0.40871 -0.0402,-1.29173 -0.0767,-2.00455 -0.3684,0.31685 -0.49691,0.43955 -0.83197,0.7534 -1.52179,1.25142 -2.96676,2.46947 -4.19295,3.00922 -0.21263,0.0936 -0.40715,0.20537 -0.61755,0.3081 -0.058,0.13665 -0.55482,1.52382 -1.20227,1.5024 z m 13.59418,-2.54876 c 1.89064,-0.55583 3.76634,-1.49737 5.13435,-2.84014 0.83092,-0.81555 1.55658,-1.69776 2.1336,-2.67967 0.67589,-1.15011 1.08527,-2.30086 1.21368,-3.65515 0.10733,-1.13203 0.023,-2.21066 -0.31006,-3.2208 -0.41877,-1.27025 -2.03539,-0.97481 -3.00314,-0.59665 -1.11028,0.43381 -2.09188,1.16305 -3.1051,1.91604 1.41967,0.71532 -0.75653,1.73726 -1.19243,2.21634 -1.67,1.83549 -3.0197,4.25649 -2.5662,6.80173 0.11348,0.63681 0.62178,2.3739 1.6953,2.0583 z m -10.55317,-1.03241 c 1.32997,-0.9842 3.03865,-2.70761 3.72978,-3.40465 0.11537,-1.02217 0.18804,-1.93753 0.30108,-3.0697 0.0707,-0.55397 0.25877,-1.53354 0.35857,-2.13653 -0.29057,0.23519 -0.56989,0.5515 -0.79529,0.8469 -1.90043,2.49045 -2.77173,4.08018 -4.10832,6.73562 -0.0583,0.11585 -0.58012,1.28193 -0.85744,1.99854 0.54833,-0.28911 0.87984,-0.60627 1.37162,-0.97018 z"
       style="fill:#6bb7bf;fill-opacity:1" /></g><text
     transform="scale(0.99284073,1.0072109)"
     sodipodi:linespacing="125%"
     id="text4265"
     y="196.57898"
     x="-412.11899"
     style="font-style:normal;font-variant:normal;font-weight:normal;font-stretch:normal;font-size:16.65466881px;line-height:125%;font-family:'COM4t Fine Regular';-inkscape-font-specification:'COM4t Fine Regular, ';text-align:start;letter-spacing:0px;word-spacing:0px;writing-mode:lr-tb;text-anchor:start;fill:#000000;fill-opacity:1;stroke:none;stroke-width:1px;stroke-linecap:butt;stroke-linejoin:miter;stroke-opacity:1"
     xml:space="preserve"><tspan
       y="196.57898"
       x="-412.11899"
       id="tspan4267"
       sodipodi:role="line" /></text>
<g
     style="font-style:normal;font-variant:normal;font-weight:normal;font-stretch:normal;font-size:15.00000095px;line-height:125%;font-family:'URW Gothic L';-inkscape-font-specification:'URW Gothic L';letter-spacing:0px;word-spacing:0px;fill:#0b6790;fill-opacity:1;stroke:none;stroke-width:1px;stroke-linecap:butt;stroke-linejoin:miter;stroke-opacity:1"
     id="text4173"
     transform="translate(-42.1379,24.150303)" /><g
     style="font-style:normal;font-variant:normal;font-weight:normal;font-stretch:normal;font-size:15.00000095px;line-height:125%;font-family:'URW Gothic L';-inkscape-font-specification:'URW Gothic L';text-align:start;letter-spacing:0px;word-spacing:0px;writing-mode:lr-tb;text-anchor:start;fill:#000000;fill-opacity:1;stroke:none;stroke-width:1px;stroke-linecap:butt;stroke-linejoin:miter;stroke-opacity:1"
     id="text3497"
     transform="translate(-56.851525,-47.640507)"><path
       d="m -276.28627,180.24097 1.11,0 0,-4.485 2.13,0 c 1.5,0 2.31,-0.195 2.985,-0.69 0.72,-0.525 1.11,-1.44 1.11,-2.55 0,-1.275 -0.48,-2.28 -1.32,-2.775 -0.69,-0.42 -1.53,-0.585 -2.955,-0.585 l -3.06,0 0,11.085 z m 1.11,-5.49 0,-4.59 1.575,0 c 1.275,0 2.07,0.105 2.52,0.33 0.645,0.33 1.005,1.035 1.005,2.025 0,0.855 -0.345,1.545 -0.915,1.86 -0.465,0.27 -1.11,0.375 -2.13,0.375 l -2.055,0 z"
       style="fill:#2d4251;fill-opacity:1"
       id="path3502"
       inkscape:connector-curvature="0" /><path
       d="m -267.40932,180.24097 2.745,0 c 1.485,0 2.325,-0.165 3.03,-0.585 0.78001,-0.48 1.24501,-1.455 1.24501,-2.595 0,-1.35 -0.57,-2.205 -1.86001,-2.73 0.85501,-0.48 1.23001,-1.2 1.23001,-2.295 0,-0.96 -0.36,-1.77 -0.99001,-2.235 -0.63,-0.45 -1.455,-0.645 -2.805,-0.645 l -2.595,0 0,11.085 z m 1.11,-1.005 0,-4.305 1.32,0 c 1.305,0 1.965,0.09 2.43,0.315 0.66,0.33 1.035,0.99 1.035,1.875 0,0.765 -0.345,1.44 -0.87,1.71 -0.525,0.285 -1.275,0.405 -2.4,0.405 l -1.515,0 z m 0,-5.31 0,-3.765 1.335,0 c 1.14,0 1.755,0.105 2.175,0.39 0.39,0.255 0.645,0.855 0.645,1.5 0,0.765 -0.3,1.335 -0.855,1.59 -0.465,0.21 -0.945,0.285 -1.95,0.285 l -1.35,0 z"
       style="fill:#2d4251;fill-opacity:1"
       id="path3504"
       inkscape:connector-curvature="0" /><path
       d="m -258.42103,180.24097 1.11,0 0,-7.2 2.04,0 0,-1.005 -2.04,0 c -0.015,-1.365 0.525,-1.86 2.04,-1.875 l 0,-1.005 c -2.115,0 -3.18,0.975 -3.15,2.88 l -1.275,0 0,1.005 1.275,0 0,7.2 z"
       id="path3506"
       inkscape:connector-curvature="0"
       style="fill:#0b6891;fill-opacity:1" /><path
       d="m -254.27424,180.24097 1.11,0 0,-8.205 -1.11,0 0,8.205 z m 0,-9.195 1.11,0 0,-1.89 -1.11,0 0,1.89 z"
       id="path3508"
       inkscape:connector-curvature="0"
       style="fill:#0b6891;fill-opacity:1" /><path
       d="m -252.11096,180.24097 1.26,0 2.22001,-3.285 2.205,3.285 1.275,0 -2.865,-4.185 2.865,-4.02 -1.275,0 -2.205,3.165 -2.22001,-3.165 -1.26,0 2.85001,4.02 -2.85001,4.185 z"
       id="path3510"
       inkscape:connector-curvature="0"
       style="fill:#0b6891;fill-opacity:1" /><path
       d="m -235.85892,176.50597 c 0,-1.125 -0.15,-1.815 -0.555,-2.535 -0.735,-1.305 -2.16,-2.13 -3.72,-2.13 -2.385,0 -4.26,1.875 -4.26,4.26 0,2.43 1.905,4.335 4.335,4.335 1.05,0 2.04,-0.39 2.79,-1.095 0.585,-0.555 0.975,-1.125 1.2,-1.8 l -1.155,0 c -0.465,1.125 -1.62,1.875 -2.865,1.875 -1.68,0 -3.105,-1.29 -3.195,-2.91 l 7.425,0 z m -7.395,-1.005 c 0.3,-1.575 1.545,-2.64 3.105,-2.64 1.59,0 2.805,1.005 3.18,2.64 l -6.285,0 z"
       id="path3512"
       inkscape:connector-curvature="0"
       style="fill:#0b6891;fill-opacity:1" /><path
       d="m -234.32306,180.24097 1.11,0 0,-4.785 c 0,-1.53 0.78,-2.37 2.325,-2.52 l 0,-1.095 c -1.185,0.06 -1.89,0.465 -2.325,1.365 l 0,-1.17 -1.11,0 0,8.205 z"
       id="path3514"
       inkscape:connector-curvature="0"
       style="fill:#0b6891;fill-opacity:1" /></g><text
     xml:space="preserve"
     style="font-style:normal;font-variant:normal;font-weight:normal;font-stretch:normal;font-size:11.25px;line-height:125%;font-family:'Open Sans';-inkscape-font-specification:'Open Sans, Normal';text-align:start;letter-spacing:0px;word-spacing:0px;writing-mode:lr-tb;text-anchor:start;fill:#000000;fill-opacity:1;stroke:none;stroke-width:1px;stroke-linecap:butt;stroke-linejoin:miter;stroke-opacity:1"
     x="-210.5"
     y="196.65491"
     id="text4334"
     sodipodi:linespacing="125%"><tspan
       sodipodi:role="line"
       id="tspan4336"
       x="-210.5"
       y="196.65491"></tspan></text>
<g
     id="g4416"><rect
       style="opacity:1;fill:#7fa6ab;fill-opacity:1;stroke:#000000;stroke-width:2.49190331;stroke-linecap:round;stroke-linejoin:round;stroke-miterlimit:4;stroke-dasharray:none;stroke-opacity:1"
       id="rect4161"
       width="39.77903"
       height="72.357582"
       x="-329.31473"
       y="258.05316"
       ry="3.0840514" /><g
       transform="translate(0,-2.0000001)"
       id="text4338"
       style="font-style:normal;font-variant:normal;font-weight:normal;font-stretch:normal;font-size:11.25000095px;line-height:125%;font-family:'Luxi Sans';-inkscape-font-specification:'Luxi Sans';text-align:start;letter-spacing:0px;word-spacing:0px;writing-mode:lr-tb;text-anchor:start;fill:#0b6691;fill-opacity:1;stroke:none;stroke-width:1px;stroke-linecap:butt;stroke-linejoin:miter;stroke-opacity:1"><path
         inkscape:connector-curvature="0"
         id="path4406"
         d="m -323.60187,185.02502 1.15357,0 0,5.13062 q 0,0.86792 0.14282,1.27441 0.13733,0.401 0.53284,0.68116 0.54931,0.38452 1.47766,0.38452 1.09314,0 1.53259,-0.51636 0.44495,-0.51086 0.44495,-1.78528 l 0,-5.16907 1.01074,0 0,5.15259 q 0,1.08765 -0.21423,1.64795 -0.21424,0.5658 -0.79102,0.97778 -0.78003,0.55481 -2.08191,0.55481 -1.65894,0 -2.43347,-0.76904 -0.77454,-0.76904 -0.77454,-2.44446 l 0,-5.11963 z" /><path
         inkscape:connector-curvature="0"
         id="path4408"
         d="m -314.54364,195.32471 -1.08215,0 0,-8.13538 1.08215,0 0,1.12061 q 0.30762,-0.56031 0.64819,-0.84595 0.4834,-0.4065 1.13709,-0.4065 0.92834,0 1.49414,0.8075 0.57129,0.80749 0.57129,2.14783 0,1.56555 -0.73608,2.42248 -0.7306,0.85694 -2.07642,0.85694 -0.49988,0 -1.03821,-0.13733 l 0,2.1698 z m 0,-6.0315 0,3.04322 q 0.75256,0.14282 1.13159,0.14282 1.54908,0 1.54908,-2.35657 0,-0.99426 -0.30762,-1.55457 -0.30213,-0.56579 -0.81848,-0.56579 -0.69214,0 -1.55457,1.29089 z" /><path
         inkscape:connector-curvature="0"
         id="path4410"
         d="m -308.28143,195.32471 -1.08215,0 0,-8.13538 1.08215,0 0,1.12061 q 0.30762,-0.56031 0.64819,-0.84595 0.4834,-0.4065 1.13709,-0.4065 0.92834,0 1.49414,0.8075 0.57129,0.80749 0.57129,2.14783 0,1.56555 -0.73609,2.42248 -0.73059,0.85694 -2.07641,0.85694 -0.49988,0 -1.03821,-0.13733 l 0,2.1698 z m 0,-6.0315 0,3.04322 q 0.75256,0.14282 1.13159,0.14282 1.54907,0 1.54907,-2.35657 0,-0.99426 -0.30761,-1.55457 -0.30213,-0.56579 -0.81849,-0.56579 -0.69213,0 -1.55456,1.29089 z" /><path
         inkscape:connector-curvature="0"
         id="path4412"
         d="m -299.45392,189.52942 q -0.0165,-0.53833 -0.10986,-0.81848 -0.28564,-0.84595 -1.24145,-0.84595 -0.66468,0 -1.0492,0.39551 -0.37353,0.37903 -0.46692,1.26892 l 2.86743,0 z m 1.07117,2.57629 0,0.85694 q -1.11511,0.32959 -2.04346,0.32959 -1.40075,0 -2.22473,-0.86792 -0.82397,-0.86792 -0.82397,-2.32911 0,-1.38977 0.73059,-2.21374 0.7251,-0.82398 1.96655,-0.82398 1.42273,0 2.0105,1.01075 0.43396,0.75256 0.41748,1.93908 l -0.005,0.33509 -3.98255,0 q 0.0659,0.65368 0.21424,0.99426 0.48339,1.13159 1.9281,1.13159 0.81848,0 1.81274,-0.36255 z" /><path
         inkscape:connector-curvature="0"
         id="path4414"
         d="m -296.83917,193.15491 0,-5.96558 1.08215,0 0,1.12061 q 0.23621,-0.5658 0.50537,-0.84595 0.39002,-0.4065 0.92835,-0.4065 0.10437,0 0.30762,0.0275 l 0,1.01074 q -0.28565,-0.0934 -0.46143,-0.0934 -0.59875,0 -1.27991,1.21948 l 0,3.93311 -1.08215,0 z" /></g><g
       transform="translate(0,4.0000002)"
       id="text4342"
       style="font-style:normal;font-variant:normal;font-weight:normal;font-stretch:normal;font-size:11.25000095px;line-height:125%;font-family:'Luxi Sans';-inkscape-font-specification:'Luxi Sans';text-align:start;letter-spacing:0px;word-spacing:0px;writing-mode:lr-tb;text-anchor:start;fill:#0b6691;fill-opacity:1;stroke:none;stroke-width:1px;stroke-linecap:butt;stroke-linejoin:miter;stroke-opacity:1"><path
         inkscape:connector-curvature="0"
         id="path4395"
         d="m -323.59363,246.15491 0,-8.12989 1.15357,0 0,7.26746 3.98803,0 0,0.86243 -5.1416,0 z" /><path
         inkscape:connector-curvature="0"
         id="path4397"
         d="m -315.11218,240.05749 q 1.22497,0 1.93909,0.83497 0.71411,0.82946 0.71411,2.27417 0,1.46667 -0.71411,2.29614 -0.71412,0.82947 -1.97754,0.82947 -1.08216,0 -1.75782,-0.68665 -0.85693,-0.86243 -0.85693,-2.43347 0,-1.4447 0.71411,-2.27966 0.71411,-0.83497 1.93909,-0.83497 z m 0,0.81299 q -1.48316,0 -1.48316,2.29615 0,2.31262 1.47766,2.31262 1.48865,0 1.48865,-2.3291 0,-2.27967 -1.48315,-2.27967 z" /><path
         inkscape:connector-curvature="0"
         id="path4399"
         d="m -310.48694,246.15491 -1.43921,-5.96558 1.06018,0 1.07666,4.49341 1.3733,-4.49341 1.08215,0 1.2085,4.50989 1.25244,-4.50989 0.93383,0 -1.67541,5.96558 -1.08765,0 -1.26342,-4.61975 -1.42823,4.61975 -1.09314,0 z" /><path
         inkscape:connector-curvature="0"
         id="path4401"
         d="m -299.47314,242.52942 q -0.0165,-0.53833 -0.10987,-0.81848 -0.28564,-0.84595 -1.24145,-0.84595 -0.66467,0 -1.0492,0.39551 -0.37353,0.37903 -0.46691,1.26892 l 2.86743,0 z m 1.07116,2.57629 0,0.85694 q -1.11511,0.32959 -2.04345,0.32959 -1.40076,0 -2.22473,-0.86792 -0.82398,-0.86792 -0.82398,-2.32911 0,-1.38977 0.73059,-2.21374 0.7251,-0.82398 1.96656,-0.82398 1.42272,0 2.01049,1.01075 0.43396,0.75256 0.41748,1.93908 l -0.005,0.33509 -3.98254,0 q 0.0659,0.65368 0.21423,0.99426 0.4834,1.13159 1.9281,1.13159 0.81848,0 1.81274,-0.36255 z" /><path
         inkscape:connector-curvature="0"
         id="path4403"
         d="m -296.84741,246.15491 0,-5.96558 1.08215,0 0,1.12061 q 0.23621,-0.5658 0.50537,-0.84595 0.39002,-0.4065 0.92835,-0.4065 0.10437,0 0.30762,0.0275 l 0,1.01074 q -0.28565,-0.0934 -0.46143,-0.0934 -0.59875,0 -1.27991,1.21948 l 0,3.93311 -1.08215,0 z" /></g></g><flowRoot
     xml:space="preserve"
     id="flowRoot4346"
     style="fill:black;stroke:none;stroke-opacity:1;stroke-width:1px;stroke-linejoin:miter;stroke-linecap:butt;fill-opacity:1;font-family:'Open Sans';font-style:normal;font-weight:normal;font-size:11.25px;line-height:125%;letter-spacing:0px;word-spacing:0px;-inkscape-font-specification:'Open Sans, Normal';font-stretch:normal;font-variant:normal;text-anchor:start;text-align:start;writing-mode:lr"><flowRegion
       id="flowRegion4348"><rect
         id="rect4350"
         width="74.5"
         height="82"
         x="86"
         y="55.314957" /></flowRegion><flowPara
       id="flowPara4352"></flowPara></flowRoot><g
     id="g4431"
     transform="translate(-0.0625,205.3125)"><rect
       ry="3.0840514"
       y="258.05316"
       x="-329.31473"
       height="72.357582"
       width="39.77903"
       id="rect4433"
       style="opacity:1;fill:#7fa6ab;fill-opacity:1;stroke:#000000;stroke-width:2.49190331;stroke-linecap:round;stroke-linejoin:round;stroke-miterlimit:4;stroke-dasharray:none;stroke-opacity:1" /><g
       style="font-style:normal;font-variant:normal;font-weight:normal;font-stretch:normal;font-size:11.25000095px;line-height:125%;font-family:'Luxi Sans';-inkscape-font-specification:'Luxi Sans';text-align:start;letter-spacing:0px;word-spacing:0px;writing-mode:lr-tb;text-anchor:start;fill:#0b6691;fill-opacity:1;stroke:none;stroke-width:1px;stroke-linecap:butt;stroke-linejoin:miter;stroke-opacity:1"
       id="g4435"
       transform="translate(0,-2.0000001)"><path
         d="m -323.60187,185.02502 1.15357,0 0,5.13062 q 0,0.86792 0.14282,1.27441 0.13733,0.401 0.53284,0.68116 0.54931,0.38452 1.47766,0.38452 1.09314,0 1.53259,-0.51636 0.44495,-0.51086 0.44495,-1.78528 l 0,-5.16907 1.01074,0 0,5.15259 q 0,1.08765 -0.21423,1.64795 -0.21424,0.5658 -0.79102,0.97778 -0.78003,0.55481 -2.08191,0.55481 -1.65894,0 -2.43347,-0.76904 -0.77454,-0.76904 -0.77454,-2.44446 l 0,-5.11963 z"
         id="path4437"
         inkscape:connector-curvature="0" /><path
         d="m -314.54364,195.32471 -1.08215,0 0,-8.13538 1.08215,0 0,1.12061 q 0.30762,-0.56031 0.64819,-0.84595 0.4834,-0.4065 1.13709,-0.4065 0.92834,0 1.49414,0.8075 0.57129,0.80749 0.57129,2.14783 0,1.56555 -0.73608,2.42248 -0.7306,0.85694 -2.07642,0.85694 -0.49988,0 -1.03821,-0.13733 l 0,2.1698 z m 0,-6.0315 0,3.04322 q 0.75256,0.14282 1.13159,0.14282 1.54908,0 1.54908,-2.35657 0,-0.99426 -0.30762,-1.55457 -0.30213,-0.56579 -0.81848,-0.56579 -0.69214,0 -1.55457,1.29089 z"
         id="path4439"
         inkscape:connector-curvature="0" /><path
         d="m -308.28143,195.32471 -1.08215,0 0,-8.13538 1.08215,0 0,1.12061 q 0.30762,-0.56031 0.64819,-0.84595 0.4834,-0.4065 1.13709,-0.4065 0.92834,0 1.49414,0.8075 0.57129,0.80749 0.57129,2.14783 0,1.56555 -0.73609,2.42248 -0.73059,0.85694 -2.07641,0.85694 -0.49988,0 -1.03821,-0.13733 l 0,2.1698 z m 0,-6.0315 0,3.04322 q 0.75256,0.14282 1.13159,0.14282 1.54907,0 1.54907,-2.35657 0,-0.99426 -0.30761,-1.55457 -0.30213,-0.56579 -0.81849,-0.56579 -0.69213,0 -1.55456,1.29089 z"
         id="path4441"
         inkscape:connector-curvature="0" /><path
         d="m -299.45392,189.52942 q -0.0165,-0.53833 -0.10986,-0.81848 -0.28564,-0.84595 -1.24145,-0.84595 -0.66468,0 -1.0492,0.39551 -0.37353,0.37903 -0.46692,1.26892 l 2.86743,0 z m 1.07117,2.57629 0,0.85694 q -1.11511,0.32959 -2.04346,0.32959 -1.40075,0 -2.22473,-0.86792 -0.82397,-0.86792 -0.82397,-2.32911 0,-1.38977 0.73059,-2.21374 0.7251,-0.82398 1.96655,-0.82398 1.42273,0 2.0105,1.01075 0.43396,0.75256 0.41748,1.93908 l -0.005,0.33509 -3.98255,0 q 0.0659,0.65368 0.21424,0.99426 0.48339,1.13159 1.9281,1.13159 0.81848,0 1.81274,-0.36255 z"
         id="path4443"
         inkscape:connector-curvature="0" /><path
         d="m -296.83917,193.15491 0,-5.96558 1.08215,0 0,1.12061 q 0.23621,-0.5658 0.50537,-0.84595 0.39002,-0.4065 0.92835,-0.4065 0.10437,0 0.30762,0.0275 l 0,1.01074 q -0.28565,-0.0934 -0.46143,-0.0934 -0.59875,0 -1.27991,1.21948 l 0,3.93311 -1.08215,0 z"
         id="path4445"
         inkscape:connector-curvature="0" /></g><g
       style="font-style:normal;font-variant:normal;font-weight:normal;font-stretch:normal;font-size:11.25000095px;line-height:125%;font-family:'Luxi Sans';-inkscape-font-specification:'Luxi Sans';text-align:start;letter-spacing:0px;word-spacing:0px;writing-mode:lr-tb;text-anchor:start;fill:#0b6691;fill-opacity:1;stroke:none;stroke-width:1px;stroke-linecap:butt;stroke-linejoin:miter;stroke-opacity:1"
       id="g4447"
       transform="translate(0,4.0000002)"><path
         d="m -323.59363,246.15491 0,-8.12989 1.15357,0 0,7.26746 3.98803,0 0,0.86243 -5.1416,0 z"
         id="path4449"
         inkscape:connector-curvature="0" /><path
         d="m -315.11218,240.05749 q 1.22497,0 1.93909,0.83497 0.71411,0.82946 0.71411,2.27417 0,1.46667 -0.71411,2.29614 -0.71412,0.82947 -1.97754,0.82947 -1.08216,0 -1.75782,-0.68665 -0.85693,-0.86243 -0.85693,-2.43347 0,-1.4447 0.71411,-2.27966 0.71411,-0.83497 1.93909,-0.83497 z m 0,0.81299 q -1.48316,0 -1.48316,2.29615 0,2.31262 1.47766,2.31262 1.48865,0 1.48865,-2.3291 0,-2.27967 -1.48315,-2.27967 z"
         id="path4451"
         inkscape:connector-curvature="0" /><path
         d="m -310.48694,246.15491 -1.43921,-5.96558 1.06018,0 1.07666,4.49341 1.3733,-4.49341 1.08215,0 1.2085,4.50989 1.25244,-4.50989 0.93383,0 -1.67541,5.96558 -1.08765,0 -1.26342,-4.61975 -1.42823,4.61975 -1.09314,0 z"
         id="path4453"
         inkscape:connector-curvature="0" /><path
         d="m -299.47314,242.52942 q -0.0165,-0.53833 -0.10987,-0.81848 -0.28564,-0.84595 -1.24145,-0.84595 -0.66467,0 -1.0492,0.39551 -0.37353,0.37903 -0.46691,1.26892 l 2.86743,0 z m 1.07116,2.57629 0,0.85694 q -1.11511,0.32959 -2.04345,0.32959 -1.40076,0 -2.22473,-0.86792 -0.82398,-0.86792 -0.82398,-2.32911 0,-1.38977 0.73059,-2.21374 0.7251,-0.82398 1.96656,-0.82398 1.42272,0 2.01049,1.01075 0.43396,0.75256 0.41748,1.93908 l -0.005,0.33509 -3.98254,0 q 0.0659,0.65368 0.21423,0.99426 0.4834,1.13159 1.9281,1.13159 0.81848,0 1.81274,-0.36255 z"
         id="path4455"
         inkscape:connector-curvature="0" /><path
         d="m -296.84741,246.15491 0,-5.96558 1.08215,0 0,1.12061 q 0.23621,-0.5658 0.50537,-0.84595 0.39002,-0.4065 0.92835,-0.4065 0.10437,0 0.30762,0.0275 l 0,1.01074 q -0.28565,-0.0934 -0.46143,-0.0934 -0.59875,0 -1.27991,1.21948 l 0,3.93311 -1.08215,0 z"
         id="path4457"
         inkscape:connector-curvature="0" /></g></g></svg>