<?xml version="1.0" encoding="UTF-8" standalone="no"?>
<!-- Generator: Adobe Illustrator 19.0.0, SVG Export Plug-In . SVG Version: 6.00 Build 0)  -->

<svg
   xmlns:dc="http://purl.org/dc/elements/1.1/"
   xmlns:cc="http://creativecommons.org/ns#"
   xmlns:rdf="http://www.w3.org/1999/02/22-rdf-syntax-ns#"
   xmlns:svg="http://www.w3.org/2000/svg"
   xmlns="http://www.w3.org/2000/svg"
   xmlns:sodipodi="http://sodipodi.sourceforge.net/DTD/sodipodi-0.dtd"
   xmlns:inkscape="http://www.inkscape.org/namespaces/inkscape"
   version="1.0"
   id="svg55117"
   sodipodi:docname="DualQuadOsc.svg"
   inkscape:version="0.91 r13725"
   x="0px"
   y="0px"
   width="20.000002mm"
   height="128.5mm"
   viewBox="-337 116.84 70.866149 455.31492"
   enable-background="new -337 116.8399963 45 380"
   xml:space="preserve"><metadata
     id="metadata100"><rdf:RDF><cc:Work
         rdf:about=""><dc:format>image/svg+xml</dc:format><dc:type
           rdf:resource="http://purl.org/dc/dcmitype/StillImage" /><dc:title></dc:title></cc:Work></rdf:RDF></metadata><defs
     id="defs98" /><sodipodi:namedview
     pagecolor="#ffffff"
     bordercolor="#666666"
     borderopacity="1"
     objecttolerance="10"
     gridtolerance="10"
     guidetolerance="10"
     inkscape:pageopacity="0"
     inkscape:pageshadow="2"
     inkscape:window-width="1525"
     inkscape:window-height="1008"
     id="namedview96"
     showgrid="false"
     inkscape:zoom="2.8284271"
     inkscape:cx="-0.66381411"
     inkscape:cy="388.01579"
     inkscape:current-layer="svg55117"
     units="mm"
     inkscape:document-units="mm"
     inkscape:window-x="-291"
     inkscape:window-y="-10"
     inkscape:window-maximized="0"
     fit-margin-top="0"
     fit-margin-left="0"
     fit-margin-right="0"
     fit-margin-bottom="0" /><text
     xml:space="preserve"
     style="font-style:normal;font-variant:normal;font-weight:normal;font-stretch:normal;font-size:16.65466881px;line-height:125%;font-family:'COM4t Fine Regular';-inkscape-font-specification:'COM4t Fine Regular, ';text-align:start;letter-spacing:0px;word-spacing:0px;writing-mode:lr-tb;text-anchor:start;fill:#000000;fill-opacity:1;stroke:none;stroke-width:1px;stroke-linecap:butt;stroke-linejoin:miter;stroke-opacity:1"
     x="-335.00485"
     y="136.72971"
     id="text3342"
     sodipodi:linespacing="125%"
     transform="scale(0.99284073,1.0072109)"><tspan
       sodipodi:role="line"
       id="tspan3344"
       x="-335.00485"
       y="136.72971" /></text>
<text
     transform="scale(0.99284073,1.0072109)"
     sodipodi:linespacing="125%"
     id="text4265"
     y="196.57899"
     x="-414.41577"
     style="font-style:normal;font-variant:normal;font-weight:normal;font-stretch:normal;font-size:16.65466881px;line-height:125%;font-family:'COM4t Fine Regular';-inkscape-font-specification:'COM4t Fine Regular, ';text-align:start;letter-spacing:0px;word-spacing:0px;writing-mode:lr-tb;text-anchor:start;fill:#000000;fill-opacity:1;stroke:none;stroke-width:1px;stroke-linecap:butt;stroke-linejoin:miter;stroke-opacity:1"
     xml:space="preserve"><tspan
       y="196.57899"
       x="-414.41577"
       id="tspan4267"
       sodipodi:role="line" /></text>
<text
     xml:space="preserve"
     style="font-style:normal;font-variant:normal;font-weight:bold;font-stretch:normal;font-size:13.75px;line-height:125%;font-family:'Luxi Sans';-inkscape-font-specification:'Luxi Sans, Bold';text-align:start;letter-spacing:0px;word-spacing:0px;writing-mode:tb-rl;text-anchor:start;fill:#000000;fill-opacity:1;stroke:none;stroke-width:1px;stroke-linecap:butt;stroke-linejoin:miter;stroke-opacity:1"
     x="-627.28033"
     y="152.65494"
     id="text4241"
     sodipodi:linespacing="125%"><tspan
       sodipodi:role="line"
       id="tspan4243"
       x="152.65492"
       y="-627.28033" /></text>
<flowRoot
     xml:space="preserve"
     id="flowRoot4247"
     style="font-style:normal;font-variant:normal;font-weight:normal;font-stretch:normal;font-size:7.5px;line-height:125%;font-family:'Luxi Sans';-inkscape-font-specification:'Luxi Sans, Normal';text-align:start;letter-spacing:0px;word-spacing:0px;writing-mode:tb-rl;text-anchor:start;fill:#0b6790;fill-opacity:1;stroke:none;stroke-width:1px;stroke-linecap:butt;stroke-linejoin:miter;stroke-opacity:1"
     transform="translate(0,1.1079102e-5)"><flowRegion
       id="flowRegion4249"><rect
         id="rect4251"
         width="145.5"
         height="131.5"
         x="-290.5"
         y="79.314949"
         style="fill:#0b6790;fill-opacity:1" /></flowRegion><flowPara
       id="flowPara4253" /></flowRoot><g
     id="g4569"><g
       id="g4555"><path
         style="fill:#f0f0f0"
         id="path25061"
         inkscape:connector-curvature="0"
         inkscape:export-filename="/home/vortico/src/cpp/VCV/Rack/plugins/Fundamental/res/Delay.png"
         inkscape:export-xdpi="100.2962"
         inkscape:export-ydpi="100.2962"
         d="m -337,116.83998 70.86615,0 0,455.31496 -70.86615,0 0,-455.31496 z" /><g
         id="g4542"><path
           style="fill:#042a3b;fill-opacity:1"
           d="m -309.80502,570.20048 c -0.18908,-0.33888 0.1195,-1.03603 0.15953,-1.20315 -0.47246,0.13179 -1.47345,0.29384 -2.55741,0.22966 -1.32125,-0.0783 -2.26441,-0.3 -3.27347,-1.87662 -2.5345,-3.96014 0.53907,-8.95249 3.81873,-10.90914 1.21679,-0.72596 2.61349,-1.36291 3.934,-1.921 0.57698,-0.24388 2.19001,0.89785 0.78913,0.93538 -1.38415,0.61978 -2.3865,0.89106 -3.67512,1.69155 -3.23631,2.01033 -5.77757,6.44739 -4.09392,9.75468 0.62454,1.22676 1.95367,1.74039 3.41259,1.6333 0.38073,-0.028 1.27588,-0.1401 1.97928,-0.44384 0.52769,-1.11281 0.40995,-0.87687 0.70049,-1.51236 1.2273,-2.68464 2.34951,-4.78101 4.23835,-7.55321 0.86069,-1.26328 1.85982,-2.5296 2.75875,-3.6037 0.80766,-0.96498 1.51342,-1.91425 2.68407,-2.43683 1.79651,0.34725 -0.11673,1.58759 -0.63188,2.2689 -0.82444,1.09031 -1.6373,2.37971 -1.84577,3.75217 -0.0989,0.65104 -0.21756,1.50504 -0.27493,2.81727 1.25379,-1.21913 5.06384,-5.03201 7.71395,-6.92221 0.9167,-0.65383 1.8986,-1.2122 3.04081,-1.53408 1.24095,-0.34969 2.46494,-0.14385 3.4383,0.624 0.89251,0.70411 1.2628,1.80111 1.42371,2.96662 0.28297,2.04999 -0.48539,4.08599 -1.38317,5.88274 -0.90921,1.81955 -2.53674,3.19959 -4.25906,4.23305 -1.42308,0.8539 -3.1103,1.47111 -4.79405,1.25855 -1.32196,-0.16692 -1.96766,-1.19774 -2.18664,-2.55521 -0.37799,-2.34323 0.64175,-4.5728 1.9054,-6.60127 0.18702,-0.30023 0.30168,-0.51539 0.71475,-1.12383 -0.99059,0.87819 -1.78787,1.63551 -2.03803,1.89253 -1.15927,1.19105 -2.51559,2.31812 -3.57576,3.56002 -0.0375,1.29172 0.0523,2.55463 0.25354,3.81842 0.10746,0.67492 1.7233,1.3946 0.29668,1.53784 -1.20075,0.10084 -1.70959,-1.23575 -1.75145,-2.2288 -0.0172,-0.40871 -0.0402,-1.29173 -0.0766,-2.00455 -0.3684,0.31685 -0.49691,0.43955 -0.83197,0.7534 -1.5218,1.25142 -2.96676,2.46947 -4.19295,3.00922 -0.21263,0.0936 -0.40716,0.20536 -0.61756,0.3081 -0.058,0.13665 -0.55481,1.52381 -1.20227,1.5024 z m 13.59419,-2.54876 c 1.89063,-0.55583 3.76633,-1.49737 5.13434,-2.84014 0.83093,-0.81556 1.55659,-1.69777 2.1336,-2.67967 0.6759,-1.15011 1.08528,-2.30086 1.21369,-3.65515 0.10733,-1.13204 0.023,-2.21066 -0.31006,-3.22081 -0.41878,-1.27024 -2.03539,-0.9748 -3.00314,-0.59664 -1.11028,0.43381 -2.09188,1.16305 -3.1051,1.91604 1.41966,0.71532 -0.75654,1.73726 -1.19244,2.21633 -1.66999,1.8355 -3.01969,4.25649 -2.56619,6.80174 0.11348,0.63681 0.62178,2.3739 1.6953,2.0583 z m -10.55317,-1.03241 c 1.32997,-0.9842 3.03865,-2.70761 3.72978,-3.40465 0.11537,-1.02218 0.18803,-1.93753 0.30107,-3.0697 0.0707,-0.55397 0.25878,-1.53354 0.35858,-2.13654 -0.29057,0.2352 -0.56989,0.55151 -0.79529,0.84691 -1.90043,2.49045 -2.77173,4.08018 -4.10832,6.73562 -0.0583,0.11585 -0.58012,1.28193 -0.85745,1.99854 0.54833,-0.28912 0.87985,-0.60627 1.37163,-0.97018 z"
           id="path4216"
           inkscape:connector-curvature="0"
           sodipodi:nodetypes="ccsssscssscssscsscssssssssscscscsccsccszsssscsssscccsscs" /><path
           sodipodi:nodetypes="ccsssscssscssscsscssssssssscscscsccsccszsssscsssscccsscs"
           inkscape:connector-curvature="0"
           id="path4224"
           d="m -310.15857,569.80273 c -0.18908,-0.33888 0.1195,-1.03603 0.15953,-1.20315 -0.47246,0.13179 -1.47345,0.29384 -2.55741,0.22966 -1.32125,-0.0783 -2.26441,-0.3 -3.27347,-1.87662 -2.5345,-3.96014 0.53907,-8.95249 3.81873,-10.90914 1.21679,-0.72596 2.61349,-1.36291 3.934,-1.921 0.57698,-0.24388 2.19001,0.89785 0.78913,0.93538 -1.38415,0.61978 -2.3865,0.89106 -3.67512,1.69155 -3.23631,2.01033 -5.77757,6.44739 -4.09392,9.75468 0.62454,1.22676 1.95367,1.74039 3.41259,1.6333 0.38073,-0.028 1.27588,-0.1401 1.97928,-0.44384 0.52769,-1.11281 0.40995,-0.87687 0.70049,-1.51236 1.2273,-2.68464 2.34951,-4.78101 4.23835,-7.55321 0.86069,-1.26328 1.85982,-2.5296 2.75875,-3.6037 0.80766,-0.96498 1.51342,-1.91425 2.68407,-2.43683 1.79651,0.34725 -0.11673,1.58759 -0.63188,2.2689 -0.82444,1.09031 -1.6373,2.37971 -1.84577,3.75217 -0.0989,0.65104 -0.21756,1.50504 -0.27493,2.81727 1.25379,-1.21913 5.06384,-5.03201 7.71395,-6.92221 0.9167,-0.65383 1.8986,-1.2122 3.04081,-1.53408 1.24095,-0.34969 2.46494,-0.14385 3.4383,0.624 0.89251,0.70411 1.2628,1.80111 1.42371,2.96662 0.28297,2.04999 -0.48539,4.08599 -1.38317,5.88274 -0.90921,1.81955 -2.53674,3.19959 -4.25906,4.23305 -1.42308,0.8539 -3.1103,1.47111 -4.79405,1.25855 -1.32196,-0.16692 -1.96766,-1.19774 -2.18664,-2.55521 -0.37799,-2.34323 0.64175,-4.5728 1.9054,-6.60127 0.18702,-0.30023 0.30168,-0.51539 0.71475,-1.12383 -0.99059,0.87819 -1.78787,1.63551 -2.03803,1.89253 -1.15927,1.19105 -2.51559,2.31812 -3.57576,3.56002 -0.0375,1.29172 0.0523,2.55463 0.25354,3.81842 0.10746,0.67492 1.7233,1.3946 0.29668,1.53784 -1.20075,0.10084 -1.70959,-1.23575 -1.75145,-2.2288 -0.0172,-0.40871 -0.0402,-1.29173 -0.0766,-2.00455 -0.3684,0.31685 -0.49691,0.43955 -0.83197,0.7534 -1.5218,1.25142 -2.96676,2.46947 -4.19295,3.00922 -0.21263,0.0936 -0.40716,0.20536 -0.61756,0.3081 -0.058,0.13665 -0.55481,1.52381 -1.20227,1.5024 z m 13.59419,-2.54876 c 1.89063,-0.55583 3.76633,-1.49737 5.13434,-2.84014 0.83093,-0.81556 1.55659,-1.69777 2.1336,-2.67967 0.6759,-1.15011 1.08528,-2.30086 1.21369,-3.65515 0.10733,-1.13204 0.023,-2.21066 -0.31006,-3.22081 -0.41878,-1.27024 -2.03539,-0.9748 -3.00314,-0.59664 -1.11028,0.43381 -2.09188,1.16305 -3.1051,1.91604 1.41966,0.71532 -0.75654,1.73726 -1.19244,2.21633 -1.66999,1.8355 -3.01969,4.25649 -2.56619,6.80174 0.11348,0.63681 0.62178,2.3739 1.6953,2.0583 z m -10.55317,-1.03241 c 1.32997,-0.9842 3.03865,-2.70761 3.72978,-3.40465 0.11537,-1.02218 0.18803,-1.93753 0.30107,-3.0697 0.0707,-0.55397 0.25878,-1.53354 0.35858,-2.13654 -0.29057,0.2352 -0.56989,0.55151 -0.79529,0.84691 -1.90043,2.49045 -2.77173,4.08018 -4.10832,6.73562 -0.0583,0.11585 -0.58012,1.28193 -0.85745,1.99854 0.54833,-0.28912 0.87985,-0.60627 1.37163,-0.97018 z"
           style="fill:#042a3b;fill-opacity:1" /><path
           sodipodi:nodetypes="ccsssscssscssscsscssssssssscscscsccsccszsssscsssscccsscs"
           inkscape:connector-curvature="0"
           id="path4161"
           d="m -310.52166,569.24495 c -0.18908,-0.33888 0.11949,-1.03603 0.15952,-1.20315 -0.47245,0.13179 -1.47344,0.29384 -2.55741,0.22966 -1.32125,-0.0782 -2.2644,-0.3 -3.27347,-1.87662 -2.5345,-3.96014 0.53908,-8.95249 3.81873,-10.90914 1.2168,-0.72596 2.61349,-1.36291 3.934,-1.921 0.57698,-0.24388 2.19002,0.89785 0.78914,0.93538 -1.38416,0.61979 -2.3865,0.89106 -3.67512,1.69155 -3.23631,2.01033 -5.77757,6.44739 -4.09393,9.75468 0.62455,1.22676 1.95367,1.7404 3.41259,1.6333 0.38074,-0.028 1.27589,-0.14009 1.97928,-0.44384 0.52769,-1.11281 0.40996,-0.87687 0.70049,-1.51236 1.22731,-2.68464 2.34951,-4.78101 4.23835,-7.55321 0.86069,-1.26328 1.85983,-2.5296 2.75876,-3.6037 0.80765,-0.96498 1.51341,-1.91424 2.68406,-2.43683 1.79651,0.34725 -0.11672,1.5876 -0.63188,2.2689 -0.82444,1.09031 -1.63729,2.37971 -1.84577,3.75217 -0.0989,0.65104 -0.21756,1.50504 -0.27492,2.81727 1.25379,-1.21913 5.06383,-5.03201 7.71394,-6.9222 0.9167,-0.65384 1.89861,-1.21221 3.04081,-1.53409 1.24095,-0.34969 2.46494,-0.14385 3.4383,0.624 0.89251,0.70411 1.26281,1.80111 1.42372,2.96663 0.28296,2.04998 -0.4854,4.08598 -1.38318,5.88273 -0.9092,1.81956 -2.53673,3.19959 -4.25906,4.23305 -1.42307,0.8539 -3.1103,1.47111 -4.79404,1.25855 -1.32197,-0.16692 -1.96766,-1.19774 -2.18664,-2.55521 -0.378,-2.34323 0.64174,-4.5728 1.90539,-6.60127 0.18703,-0.30023 0.30169,-0.51539 0.71475,-1.12383 -0.99059,0.87819 -1.78786,1.63551 -2.03803,1.89253 -1.15926,1.19105 -2.51558,2.31812 -3.57576,3.56002 -0.0375,1.29173 0.0523,2.55464 0.25354,3.81842 0.10747,0.67492 1.72331,1.3946 0.29668,1.53784 -1.20075,0.10084 -1.70959,-1.23575 -1.75144,-2.2288 -0.0172,-0.40871 -0.0402,-1.29173 -0.0767,-2.00455 -0.3684,0.31685 -0.49691,0.43955 -0.83197,0.7534 -1.52179,1.25142 -2.96676,2.46947 -4.19295,3.00922 -0.21263,0.0936 -0.40715,0.20537 -0.61755,0.3081 -0.058,0.13665 -0.55482,1.52382 -1.20227,1.5024 z m 13.59418,-2.54876 c 1.89064,-0.55583 3.76634,-1.49737 5.13435,-2.84014 0.83092,-0.81555 1.55658,-1.69776 2.1336,-2.67967 0.67589,-1.15011 1.08527,-2.30086 1.21368,-3.65515 0.10733,-1.13203 0.023,-2.21066 -0.31006,-3.2208 -0.41877,-1.27025 -2.03539,-0.97481 -3.00314,-0.59665 -1.11028,0.43381 -2.09188,1.16305 -3.1051,1.91604 1.41967,0.71532 -0.75653,1.73726 -1.19243,2.21634 -1.67,1.83549 -3.0197,4.25649 -2.5662,6.80173 0.11348,0.63681 0.62178,2.3739 1.6953,2.0583 z m -10.55317,-1.03241 c 1.32997,-0.9842 3.03865,-2.70761 3.72978,-3.40465 0.11537,-1.02217 0.18804,-1.93753 0.30108,-3.0697 0.0707,-0.55397 0.25877,-1.53354 0.35857,-2.13653 -0.29057,0.23519 -0.56989,0.5515 -0.79529,0.8469 -1.90043,2.49045 -2.77173,4.08018 -4.10832,6.73562 -0.0583,0.11585 -0.58012,1.28193 -0.85744,1.99854 0.54833,-0.28911 0.87984,-0.60627 1.37162,-0.97018 z"
           style="fill:#6bb7bf;fill-opacity:1" /></g><g
         id="g4547"><path
           d="m -322.96493,129.74227 c 0.0962,1.82875 1.3475,3.025 3.17625,3.025 1.76,0 3.06625,-1.27875 3.06625,-3.01125 0,-0.89375 -0.37125,-1.69125 -1.0175,-2.1725 -0.4125,-0.3025 -0.83875,-0.495 -1.88375,-0.81125 -0.92125,-0.275 -1.22375,-0.39875 -1.49875,-0.6325 -0.28875,-0.26125 -0.48125,-0.715 -0.48125,-1.1825 0,-1.0175 0.7425,-1.77375 1.76,-1.77375 1.03125,0 1.74625,0.715 1.815,1.815 l 1.05875,0 c -0.0412,-1.65 -1.1825,-2.75 -2.84625,-2.75 -1.63625,0 -2.81875,1.155 -2.81875,2.73625 0,0.70125 0.26125,1.375 0.715,1.80125 0.39875,0.385 0.715,0.53625 1.8975,0.89375 0.7975,0.2475 1.2375,0.44 1.5675,0.67375 0.45375,0.31625 0.70125,0.83875 0.70125,1.4575 0,1.16875 -0.8525,2.02125 -2.0075,2.02125 -0.64625,0 -1.265,-0.28875 -1.63625,-0.75625 -0.28875,-0.3575 -0.4125,-0.70125 -0.48125,-1.33375 l -1.08625,0 z"
           style="font-style:normal;font-variant:normal;font-weight:normal;font-stretch:normal;font-size:medium;line-height:125%;font-family:'URW Gothic L';-inkscape-font-specification:'URW Gothic L';text-align:start;letter-spacing:0px;word-spacing:0px;writing-mode:lr-tb;text-anchor:start;fill:#2c4451;fill-opacity:1;stroke:none;stroke-width:1px;stroke-linecap:butt;stroke-linejoin:miter;stroke-opacity:1"
           id="path4250"
           inkscape:connector-curvature="0" /><path
           d="m -315.55303,132.58852 1.0175,0 0,-7.52125 -1.0175,0 0,7.52125 z m 0,-8.42875 1.0175,0 0,-1.7325 -1.0175,0 0,1.7325 z"
           style="font-style:normal;font-variant:normal;font-weight:normal;font-stretch:normal;font-size:medium;line-height:125%;font-family:'URW Gothic L';-inkscape-font-specification:'URW Gothic L';text-align:start;letter-spacing:0px;word-spacing:0px;writing-mode:lr-tb;text-anchor:start;fill:#2c4451;fill-opacity:1;stroke:none;stroke-width:1px;stroke-linecap:butt;stroke-linejoin:miter;stroke-opacity:1"
           id="path4252"
           inkscape:connector-curvature="0" /><path
           d="m -312.81378,132.58852 1.0175,0 0,-4.13875 c 0,-0.83875 0.11,-1.27875 0.39875,-1.705 0.39875,-0.5775 1.1,-0.92125 1.8975,-0.92125 0.7425,0 1.41625,0.3025 1.82875,0.81125 0.3575,0.4675 0.495,1.0175 0.495,2.0075 l 0,3.94625 1.0175,0 0,-3.94625 c 0,-1.265 -0.17875,-1.93875 -0.66,-2.585 -0.59125,-0.7425 -1.49875,-1.16875 -2.5575,-1.16875 -0.99,0 -1.7875,0.385 -2.42,1.155 l 0,-0.97625 -1.0175,0 0,7.52125 z"
           style="font-style:normal;font-variant:normal;font-weight:normal;font-stretch:normal;font-size:medium;line-height:125%;font-family:'URW Gothic L';-inkscape-font-specification:'URW Gothic L';text-align:start;letter-spacing:0px;word-spacing:0px;writing-mode:lr-tb;text-anchor:start;fill:#2c4451;fill-opacity:1;stroke:none;stroke-width:1px;stroke-linecap:butt;stroke-linejoin:miter;stroke-opacity:1"
           id="path4254"
           inkscape:connector-curvature="0" /><path
           d="m -295.84112,129.92102 c -0.42625,0.53625 -0.67375,0.81125 -1.0175,1.0725 -0.67375,0.53625 -1.595,0.83875 -2.51625,0.83875 -2.35125,0 -4.29,-1.9525 -4.29,-4.33125 0,-2.4475 1.85625,-4.3175 4.27625,-4.3175 0.88,0 1.705,0.23375 2.37875,0.6875 0.45375,0.28875 0.72875,0.59125 1.11375,1.19625 l 1.14125,0 c -0.78375,-1.74625 -2.57125,-2.81875 -4.675,-2.81875 -3.025,0 -5.26625,2.255 -5.26625,5.29375 0,2.97 2.29625,5.225 5.335,5.225 2.0625,0 3.63,-0.9625 4.6475,-2.84625 l -1.1275,0 z"
           style="font-style:normal;font-variant:normal;font-weight:normal;font-stretch:normal;font-size:medium;line-height:125%;font-family:'URW Gothic L';-inkscape-font-specification:'URW Gothic L';text-align:start;letter-spacing:0px;word-spacing:0px;writing-mode:lr-tb;text-anchor:start;fill:#0b6790;fill-opacity:1;stroke:none;stroke-width:1px;stroke-linecap:butt;stroke-linejoin:miter;stroke-opacity:1"
           id="path4256"
           inkscape:connector-curvature="0" /><path
           d="m -289.60549,124.88852 c -2.2275,0 -3.94625,1.69125 -3.94625,3.89125 0,2.31 1.69125,3.9875 4.02875,3.9875 2.2,0 3.8225,-1.66375 3.8225,-3.91875 0,-2.29625 -1.65,-3.96 -3.905,-3.96 z m 0,0.935 c 1.65,0 2.87375,1.2925 2.87375,3.03875 0,1.71875 -1.1825,2.97 -2.81875,2.97 -1.7325,0 -2.97,-1.265 -2.97,-3.025 0,-1.705 1.25125,-2.98375 2.915,-2.98375 z"
           style="font-style:normal;font-variant:normal;font-weight:normal;font-stretch:normal;font-size:medium;line-height:125%;font-family:'URW Gothic L';-inkscape-font-specification:'URW Gothic L';text-align:start;letter-spacing:0px;word-spacing:0px;writing-mode:lr-tb;text-anchor:start;fill:#0b6790;fill-opacity:1;stroke:none;stroke-width:1px;stroke-linecap:butt;stroke-linejoin:miter;stroke-opacity:1"
           id="path4258"
           inkscape:connector-curvature="0" /><path
           d="m -284.88516,130.37477 c 0.0138,1.4575 0.97625,2.3925 2.42,2.3925 1.3475,0 2.29625,-0.9625 2.29625,-2.3375 0,-0.92125 -0.42625,-1.55375 -1.30625,-1.925 -1.14125,-0.4675 -1.19625,-0.495 -1.41625,-0.605 -0.4675,-0.23375 -0.6875,-0.55 -0.6875,-0.99 0,-0.605 0.48125,-1.08625 1.08625,-1.08625 0.66,0 1.045,0.385 1.1,1.1 l 1.03125,0 c -0.0412,-1.21 -0.9075,-2.035 -2.1175,-2.035 -1.22375,0 -2.13125,0.89375 -2.13125,2.1175 0,0.53625 0.1925,1.00375 0.56375,1.3475 0.31625,0.28875 0.33,0.28875 1.38875,0.72875 0.45375,0.17875 0.78375,0.34375 0.97625,0.4675 0.3025,0.20625 0.48125,0.56375 0.48125,0.97625 0,0.75625 -0.53625,1.30625 -1.265,1.30625 -0.83875,0 -1.36125,-0.53625 -1.41625,-1.4575 l -1.00375,0 z"
           style="font-style:normal;font-variant:normal;font-weight:normal;font-stretch:normal;font-size:medium;line-height:125%;font-family:'URW Gothic L';-inkscape-font-specification:'URW Gothic L';text-align:start;letter-spacing:0px;word-spacing:0px;writing-mode:lr-tb;text-anchor:start;fill:#0b6790;fill-opacity:1;stroke:none;stroke-width:1px;stroke-linecap:butt;stroke-linejoin:miter;stroke-opacity:1"
           id="path4260"
           inkscape:connector-curvature="0" /></g></g><g
       id="g4474"><rect
         ry="3.0840514"
         y="265.12408"
         x="-321.45645"
         height="72.357582"
         width="39.77903"
         id="rect4161"
         style="opacity:1;fill:#7fa6ab;fill-opacity:1;stroke:#000000;stroke-width:2.49190331;stroke-linecap:round;stroke-linejoin:round;stroke-miterlimit:4;stroke-dasharray:none;stroke-opacity:1" /><rect
         style="opacity:1;fill:#7fa6ab;fill-opacity:1;stroke:#000000;stroke-width:2.49190331;stroke-linecap:round;stroke-linejoin:round;stroke-miterlimit:4;stroke-dasharray:none;stroke-opacity:1"
         id="rect4154"
         width="39.77903"
         height="72.357582"
         x="-321.45645"
         y="184.5941"
         ry="3.0840514" /><g
         id="g4430"><g
           id="g4382"><path
             inkscape:connector-curvature="0"
             id="path4418"
             style="font-style:normal;font-variant:normal;font-weight:bold;font-stretch:normal;font-size:medium;line-height:125%;font-family:'Luxi Sans';-inkscape-font-specification:'Luxi Sans, Bold';text-align:start;letter-spacing:0px;word-spacing:0px;writing-mode:tb-rl;text-anchor:start;fill:#0b6790;fill-opacity:1;stroke:none;stroke-width:1px;stroke-linecap:butt;stroke-linejoin:miter;stroke-opacity:1"
             d="m -274.3297,192.29882 -1.88232,-5.41992 1.20483,0 1.4209,4.04663 1.36231,-4.04663 0.83496,0 -1.81275,5.41992 -1.12793,0 z" /><path
             inkscape:connector-curvature="0"
             id="path4420"
             style="font-style:normal;font-variant:normal;font-weight:bold;font-stretch:normal;font-size:medium;line-height:125%;font-family:'Luxi Sans';-inkscape-font-specification:'Luxi Sans, Bold';text-align:start;letter-spacing:0px;word-spacing:0px;writing-mode:tb-rl;text-anchor:start;fill:#0b6790;fill-opacity:1;stroke:none;stroke-width:1px;stroke-linecap:butt;stroke-linejoin:miter;stroke-opacity:1"
             d="m -276.77062,196.29673 5.41551,-4.0967 0.53201,0.38921 -5.41551,4.0967 -0.53201,-0.38921 z" /><path
             inkscape:connector-curvature="0"
             id="path4422"
             style="font-style:normal;font-variant:normal;font-weight:bold;font-stretch:normal;font-size:medium;line-height:125%;font-family:'Luxi Sans';-inkscape-font-specification:'Luxi Sans, Bold';text-align:start;letter-spacing:0px;word-spacing:0px;writing-mode:tb-rl;text-anchor:start;fill:#0b6790;fill-opacity:1;stroke:none;stroke-width:1px;stroke-linecap:butt;stroke-linejoin:miter;stroke-opacity:1"
             d="m -273.61825,197.13547 q 1.22315,0 1.92261,0.75439 0.69946,0.7544 0.69946,2.08374 0,1.35132 -0.69946,2.10205 -0.69946,0.75074 -1.95923,0.75074 -1.08398,0 -1.75415,-0.6189 -0.83496,-0.77271 -0.83496,-2.23023 0,-1.333 0.69946,-2.0874 0.69947,-0.75439 1.92627,-0.75439 z m 0,0.74341 q -0.67749,0 -1.05102,0.55297 -0.3772,0.54932 -0.3772,1.54541 0,0.98511 0.37353,1.54541 0.37354,0.55665 1.04004,0.55665 0.61524,0 0.98145,-0.43946 0.45776,-0.55298 0.45776,-1.66992 0,-0.98877 -0.37719,-1.53809 -0.3772,-0.55297 -1.04737,-0.55297 z" /><path
             inkscape:connector-curvature="0"
             id="path4424"
             style="font-style:normal;font-variant:normal;font-weight:bold;font-stretch:normal;font-size:medium;line-height:125%;font-family:'Luxi Sans';-inkscape-font-specification:'Luxi Sans, Bold';text-align:start;letter-spacing:0px;word-spacing:0px;writing-mode:tb-rl;text-anchor:start;fill:#0b6790;fill-opacity:1;stroke:none;stroke-width:1px;stroke-linecap:butt;stroke-linejoin:miter;stroke-opacity:1"
             d="m -271.35973,208.60736 0,0.8313 q -0.82763,0.35156 -1.92626,0.35156 -1.42457,0 -2.17896,-0.73975 -0.75073,-0.73608 -0.75073,-2.10937 0,-1.39527 0.75805,-2.1167 0.75806,-0.7251 2.24854,-0.7251 0.87891,0 1.80176,0.20874 l 0,0.88257 q -1.02539,-0.3479 -1.73584,-0.3479 -1.875,0 -1.875,2.08008 0,2.0874 1.98486,2.0874 0.8313,0 1.67358,-0.40283 z" /><path
             inkscape:connector-curvature="0"
             id="path4426"
             style="font-style:normal;font-variant:normal;font-weight:bold;font-stretch:normal;font-size:medium;line-height:125%;font-family:'Luxi Sans';-inkscape-font-specification:'Luxi Sans, Bold';text-align:start;letter-spacing:0px;word-spacing:0px;writing-mode:tb-rl;text-anchor:start;fill:#0b6790;fill-opacity:1;stroke:none;stroke-width:1px;stroke-linecap:butt;stroke-linejoin:miter;stroke-opacity:1"
             d="m -274.09748,216.53017 0,-4.67652 -1.58204,0 0,-0.74341 4.292,0 0,0.74341 -1.58204,0 0,4.67652 -1.12792,0 z" /></g><g
           id="g4389"><path
             inkscape:connector-curvature="0"
             id="path4271"
             style="font-style:normal;font-variant:normal;font-weight:bold;font-stretch:normal;font-size:medium;line-height:125%;font-family:'Luxi Sans';-inkscape-font-specification:'Luxi Sans Bold';text-align:start;letter-spacing:0px;word-spacing:0px;writing-mode:tb-rl;text-anchor:start;fill:#0b6790;fill-opacity:1;stroke:none;stroke-width:1px;stroke-linecap:butt;stroke-linejoin:miter;stroke-opacity:1"
             d="m -276.01809,228.36781 0,-5.41993 2.20459,0 q 0.76172,0 1.1023,0.0842 0.34057,0.0879 0.57861,0.34424 0.33325,0.36255 0.33325,1.01807 0,1.84936 -2.3291,1.84936 l -0.78369,0 0,2.12403 -1.10596,0 z m 1.10596,-2.86744 0.53467,0 q 1.42456,0 1.42456,-1.01806 0,-0.43213 -0.26734,-0.61158 -0.26733,-0.17944 -0.94116,-0.17944 l -0.75073,0 0,1.80908 z" /><path
             inkscape:connector-curvature="0"
             id="path4273"
             style="font-style:normal;font-variant:normal;font-weight:bold;font-stretch:normal;font-size:medium;line-height:125%;font-family:'Luxi Sans';-inkscape-font-specification:'Luxi Sans Bold';text-align:start;letter-spacing:0px;word-spacing:0px;writing-mode:tb-rl;text-anchor:start;fill:#0b6790;fill-opacity:1;stroke:none;stroke-width:1px;stroke-linecap:butt;stroke-linejoin:miter;stroke-opacity:1"
             d="m -276.04639,235.06647 0,-5.41992 1.12793,0 0,2.20093 1.89331,0 0,-2.20093 1.12793,0 0,5.41992 -1.12793,0 0,-2.47192 -1.89331,0 0,2.47192 -1.12793,0 z" /><path
             inkscape:connector-curvature="0"
             id="path4275"
             style="font-style:normal;font-variant:normal;font-weight:bold;font-stretch:normal;font-size:medium;line-height:125%;font-family:'Luxi Sans';-inkscape-font-specification:'Luxi Sans Bold';text-align:start;letter-spacing:0px;word-spacing:0px;writing-mode:tb-rl;text-anchor:start;fill:#0b6790;fill-opacity:1;stroke:none;stroke-width:1px;stroke-linecap:butt;stroke-linejoin:miter;stroke-opacity:1"
             d="m -276.45921,241.76513 2.10206,-5.41992 1.12792,0 2.09473,5.41992 -1.15356,0 -0.55298,-1.44653 -2.24121,0 -0.55298,1.44653 -0.82398,0 z m 1.65528,-2.16797 1.68457,0 -0.84229,-2.16064 -0.84228,2.16064 z" /><path
             inkscape:connector-curvature="0"
             id="path4277"
             style="font-style:normal;font-variant:normal;font-weight:bold;font-stretch:normal;font-size:medium;line-height:125%;font-family:'Luxi Sans';-inkscape-font-specification:'Luxi Sans Bold';text-align:start;letter-spacing:0px;word-spacing:0px;writing-mode:tb-rl;text-anchor:start;fill:#0b6790;fill-opacity:1;stroke:none;stroke-width:1px;stroke-linecap:butt;stroke-linejoin:miter;stroke-opacity:1"
             d="m -276.10132,248.06263 0,-0.92285 q 1.07666,0.36255 1.92627,0.36255 1.23413,0 1.23413,-0.73242 0,-0.22339 -0.11718,-0.39185 -0.12818,-0.18311 -0.35523,-0.26733 l -0.50171,-0.19043 -0.59692,-0.22706 q -0.95581,-0.36254 -1.27808,-0.69213 -0.32226,-0.33326 -0.32226,-0.92286 0,-1.52343 2.23754,-1.52343 0.86792,0 1.74317,0.18676 l 0,0.85694 q -0.90454,-0.30029 -1.70654,-0.30029 -0.64454,0 -0.90088,0.13916 -0.25635,0.14282 -0.25635,0.49438 0,0.23071 0.12451,0.35889 0.11719,0.12085 0.47974,0.26001 l 0.41748,0.16113 0.62256,0.23071 q 0.90088,0.33325 1.24878,0.6958 0.3479,0.35889 0.3479,0.97046 0,0.84595 -0.63355,1.24146 -0.62988,0.39917 -1.95923,0.39917 -0.52368,0 -1.17553,-0.0989 l -0.57862,-0.0879 z" /><path
             inkscape:connector-curvature="0"
             id="path4279"
             style="font-style:normal;font-variant:normal;font-weight:bold;font-stretch:normal;font-size:medium;line-height:125%;font-family:'Luxi Sans';-inkscape-font-specification:'Luxi Sans Bold';text-align:start;letter-spacing:0px;word-spacing:0px;writing-mode:tb-rl;text-anchor:start;fill:#0b6790;fill-opacity:1;stroke:none;stroke-width:1px;stroke-linecap:butt;stroke-linejoin:miter;stroke-opacity:1"
             d="m -275.84131,254.8089 0,-5.41992 3.97705,0 0,0.74341 -2.84912,0 0,1.51245 2.44263,0 0,0.7251 -2.44263,0 0,1.66992 3.02124,0 0,0.76904 -4.14917,0 z" /></g><g
           id="g4396"><path
             inkscape:connector-curvature="0"
             id="path4264"
             style="font-style:normal;font-variant:normal;font-weight:bold;font-stretch:normal;font-size:medium;line-height:125%;font-family:'Luxi Sans';-inkscape-font-specification:'Luxi Sans Bold';text-align:start;letter-spacing:0px;word-spacing:0px;writing-mode:tb-rl;text-anchor:start;fill:#0b6790;fill-opacity:1;stroke:none;stroke-width:1px;stroke-linecap:butt;stroke-linejoin:miter;stroke-opacity:1"
             d="m -275.98181,280.69888 0,-0.92285 q 1.07666,0.36255 1.92627,0.36255 1.23413,0 1.23413,-0.73243 0,-0.22339 -0.11718,-0.39184 -0.12818,-0.18311 -0.35523,-0.26734 l -0.50171,-0.19043 -0.59692,-0.22705 q -0.95581,-0.36255 -1.27808,-0.69214 -0.32226,-0.33325 -0.32226,-0.92285 0,-1.52343 2.23754,-1.52343 0.86792,0 1.74317,0.18676 l 0,0.85694 q -0.90454,-0.3003 -1.70654,-0.3003 -0.64454,0 -0.90088,0.13916 -0.25635,0.14283 -0.25635,0.49439 0,0.23071 0.12451,0.35889 0.11719,0.12084 0.47974,0.26 l 0.41748,0.16114 0.62256,0.23071 q 0.90088,0.33325 1.24878,0.6958 0.3479,0.35889 0.3479,0.97046 0,0.84595 -0.63355,1.24146 -0.62988,0.39917 -1.95923,0.39917 -0.52368,0 -1.17553,-0.0989 l -0.57862,-0.0879 z" /><path
             inkscape:connector-curvature="0"
             id="path4266"
             style="font-style:normal;font-variant:normal;font-weight:bold;font-stretch:normal;font-size:medium;line-height:125%;font-family:'Luxi Sans';-inkscape-font-specification:'Luxi Sans Bold';text-align:start;letter-spacing:0px;word-spacing:0px;writing-mode:tb-rl;text-anchor:start;fill:#0b6790;fill-opacity:1;stroke:none;stroke-width:1px;stroke-linecap:butt;stroke-linejoin:miter;stroke-opacity:1"
             d="m -274.41442,287.79871 0,-5.41992 1.12792,0 0,5.41992 -1.12792,0 z" /><path
             inkscape:connector-curvature="0"
             id="path4268"
             style="font-style:normal;font-variant:normal;font-weight:bold;font-stretch:normal;font-size:medium;line-height:125%;font-family:'Luxi Sans';-inkscape-font-specification:'Luxi Sans Bold';text-align:start;letter-spacing:0px;word-spacing:0px;writing-mode:tb-rl;text-anchor:start;fill:#0b6790;fill-opacity:1;stroke:none;stroke-width:1px;stroke-linecap:butt;stroke-linejoin:miter;stroke-opacity:1"
             d="m -275.7501,294.32059 0,-5.41992 0.99244,0 2.25219,3.70239 0,-3.70239 0.90454,0 0,5.41992 -1.00708,0 -2.23754,-3.70239 0,3.70239 -0.90455,0 z" /></g><g
           id="g4401"><path
             inkscape:connector-curvature="0"
             id="path4257"
             style="font-style:normal;font-variant:normal;font-weight:bold;font-stretch:normal;font-size:medium;line-height:125%;font-family:'Luxi Sans';-inkscape-font-specification:'Luxi Sans Bold';text-align:start;letter-spacing:0px;word-spacing:0px;writing-mode:tb-rl;text-anchor:start;fill:#0b6790;fill-opacity:1;stroke:none;stroke-width:1px;stroke-linecap:butt;stroke-linejoin:miter;stroke-opacity:1"
             d="m -271.63904,313.19912 0,0.8313 q -0.82764,0.35156 -1.92627,0.35156 -1.42456,0 -2.17895,-0.73974 -0.75074,-0.73609 -0.75074,-2.10938 0,-1.39526 0.75806,-2.1167 0.75806,-0.72509 2.24853,-0.72509 0.87891,0 1.80176,0.20874 l 0,0.88256 q -1.02539,-0.3479 -1.73584,-0.3479 -1.875,0 -1.875,2.08008 0,2.0874 1.98487,2.0874 0.8313,0 1.67358,-0.40283 z" /><path
             inkscape:connector-curvature="0"
             id="path4259"
             style="font-style:normal;font-variant:normal;font-weight:bold;font-stretch:normal;font-size:medium;line-height:125%;font-family:'Luxi Sans';-inkscape-font-specification:'Luxi Sans Bold';text-align:start;letter-spacing:0px;word-spacing:0px;writing-mode:tb-rl;text-anchor:start;fill:#0b6790;fill-opacity:1;stroke:none;stroke-width:1px;stroke-linecap:butt;stroke-linejoin:miter;stroke-opacity:1"
             d="m -273.72078,315.47129 q 1.22314,0 1.9226,0.7544 0.69947,0.75439 0.69947,2.08374 0,1.35132 -0.69947,2.10205 -0.69946,0.75073 -1.95922,0.75073 -1.08399,0 -1.75415,-0.61889 -0.83496,-0.77271 -0.83496,-2.23023 0,-1.33301 0.69946,-2.0874 0.69946,-0.7544 1.92627,-0.7544 z m 0,0.74341 q -0.67749,0 -1.05103,0.55298 -0.3772,0.54932 -0.3772,1.54541 0,0.98511 0.37354,1.54541 0.37354,0.55664 1.04004,0.55664 0.61523,0 0.98144,-0.43945 0.45777,-0.55298 0.45777,-1.66992 0,-0.98877 -0.3772,-1.53809 -0.3772,-0.55298 -1.04736,-0.55298 z" /><path
             inkscape:connector-curvature="0"
             id="path4261"
             style="font-style:normal;font-variant:normal;font-weight:bold;font-stretch:normal;font-size:medium;line-height:125%;font-family:'Luxi Sans';-inkscape-font-specification:'Luxi Sans Bold';text-align:start;letter-spacing:0px;word-spacing:0px;writing-mode:tb-rl;text-anchor:start;fill:#0b6790;fill-opacity:1;stroke:none;stroke-width:1px;stroke-linecap:butt;stroke-linejoin:miter;stroke-opacity:1"
             d="m -275.89974,327.77299 0,-0.92286 q 1.07666,0.36255 1.92627,0.36255 1.23413,0 1.23413,-0.73242 0,-0.22339 -0.11718,-0.39184 -0.12818,-0.18311 -0.35523,-0.26734 l -0.50171,-0.19043 -0.59692,-0.22705 q -0.95581,-0.36255 -1.27808,-0.69214 -0.32226,-0.33325 -0.32226,-0.92285 0,-1.52344 2.23754,-1.52344 0.86792,0 1.74317,0.18677 l 0,0.85693 q -0.90454,-0.30029 -1.70654,-0.30029 -0.64454,0 -0.90088,0.13916 -0.25635,0.14282 -0.25635,0.49439 0,0.23071 0.12451,0.35888 0.11719,0.12085 0.47974,0.26001 l 0.41748,0.16114 0.62256,0.23071 q 0.90088,0.33325 1.24878,0.6958 0.3479,0.35889 0.3479,0.97046 0,0.84595 -0.63355,1.24145 -0.62988,0.39917 -1.95923,0.39917 -0.52368,0 -1.17553,-0.0989 l -0.57862,-0.0879 z" /></g></g></g><g
       id="g4499"><rect
         style="opacity:1;fill:#7fa6ab;fill-opacity:1;stroke:#000000;stroke-width:2.49190331;stroke-linecap:round;stroke-linejoin:round;stroke-miterlimit:4;stroke-dasharray:none;stroke-opacity:1"
         id="rect4191"
         width="39.77903"
         height="72.357582"
         x="-321.45645"
         y="470.41986"
         ry="3.0840514" /><rect
         ry="3.0840514"
         y="389.89044"
         x="-321.45645"
         height="72.357582"
         width="39.77903"
         id="rect4157"
         style="opacity:1;fill:#7fa6ab;fill-opacity:1;stroke:#000000;stroke-width:2.49190331;stroke-linecap:round;stroke-linejoin:round;stroke-miterlimit:4;stroke-dasharray:none;stroke-opacity:1" /><g
         id="g4452"><g
           id="g4406"><path
             d="m -274.3297,398.29882 -1.88232,-5.41992 1.20483,0 1.4209,4.04663 1.36231,-4.04663 0.83496,0 -1.81275,5.41992 -1.12793,0 z"
             style="font-style:normal;font-variant:normal;font-weight:bold;font-stretch:normal;font-size:medium;line-height:125%;font-family:'Luxi Sans';-inkscape-font-specification:'Luxi Sans, Bold';text-align:start;letter-spacing:0px;word-spacing:0px;writing-mode:tb-rl;text-anchor:start;fill:#0b6790;fill-opacity:1;stroke:none;stroke-width:1px;stroke-linecap:butt;stroke-linejoin:miter;stroke-opacity:1"
             id="path4482"
             inkscape:connector-curvature="0" /><path
             d="m -276.77062,402.29673 5.41551,-4.0967 0.53201,0.38921 -5.41551,4.0967 -0.53201,-0.38921 z"
             style="font-style:normal;font-variant:normal;font-weight:bold;font-stretch:normal;font-size:medium;line-height:125%;font-family:'Luxi Sans';-inkscape-font-specification:'Luxi Sans, Bold';text-align:start;letter-spacing:0px;word-spacing:0px;writing-mode:tb-rl;text-anchor:start;fill:#0b6790;fill-opacity:1;stroke:none;stroke-width:1px;stroke-linecap:butt;stroke-linejoin:miter;stroke-opacity:1"
             id="path4484"
             inkscape:connector-curvature="0" /><path
             d="m -273.61825,403.13547 q 1.22315,0 1.92261,0.75439 0.69946,0.7544 0.69946,2.08374 0,1.35132 -0.69946,2.10205 -0.69946,0.75074 -1.95923,0.75074 -1.08398,0 -1.75415,-0.6189 -0.83496,-0.77271 -0.83496,-2.23023 0,-1.333 0.69946,-2.0874 0.69947,-0.75439 1.92627,-0.75439 z m 0,0.74341 q -0.67749,0 -1.05102,0.55297 -0.3772,0.54932 -0.3772,1.54541 0,0.98511 0.37353,1.54541 0.37354,0.55665 1.04004,0.55665 0.61524,0 0.98145,-0.43946 0.45776,-0.55298 0.45776,-1.66992 0,-0.98877 -0.37719,-1.53809 -0.3772,-0.55297 -1.04737,-0.55297 z"
             style="font-style:normal;font-variant:normal;font-weight:bold;font-stretch:normal;font-size:medium;line-height:125%;font-family:'Luxi Sans';-inkscape-font-specification:'Luxi Sans, Bold';text-align:start;letter-spacing:0px;word-spacing:0px;writing-mode:tb-rl;text-anchor:start;fill:#0b6790;fill-opacity:1;stroke:none;stroke-width:1px;stroke-linecap:butt;stroke-linejoin:miter;stroke-opacity:1"
             id="path4486"
             inkscape:connector-curvature="0" /><path
             d="m -271.35973,414.60736 0,0.8313 q -0.82763,0.35156 -1.92626,0.35156 -1.42457,0 -2.17896,-0.73975 -0.75073,-0.73608 -0.75073,-2.10937 0,-1.39527 0.75805,-2.1167 0.75806,-0.7251 2.24854,-0.7251 0.87891,0 1.80176,0.20874 l 0,0.88257 q -1.02539,-0.3479 -1.73584,-0.3479 -1.875,0 -1.875,2.08008 0,2.0874 1.98486,2.0874 0.8313,0 1.67358,-0.40283 z"
             style="font-style:normal;font-variant:normal;font-weight:bold;font-stretch:normal;font-size:medium;line-height:125%;font-family:'Luxi Sans';-inkscape-font-specification:'Luxi Sans, Bold';text-align:start;letter-spacing:0px;word-spacing:0px;writing-mode:tb-rl;text-anchor:start;fill:#0b6790;fill-opacity:1;stroke:none;stroke-width:1px;stroke-linecap:butt;stroke-linejoin:miter;stroke-opacity:1"
             id="path4488"
             inkscape:connector-curvature="0" /><path
             d="m -274.09748,422.53017 0,-4.67652 -1.58204,0 0,-0.74341 4.292,0 0,0.74341 -1.58204,0 0,4.67652 -1.12792,0 z"
             style="font-style:normal;font-variant:normal;font-weight:bold;font-stretch:normal;font-size:medium;line-height:125%;font-family:'Luxi Sans';-inkscape-font-specification:'Luxi Sans, Bold';text-align:start;letter-spacing:0px;word-spacing:0px;writing-mode:tb-rl;text-anchor:start;fill:#0b6790;fill-opacity:1;stroke:none;stroke-width:1px;stroke-linecap:butt;stroke-linejoin:miter;stroke-opacity:1"
             id="path4490"
             inkscape:connector-curvature="0" /></g><g
           id="g4413"><path
             d="m -276.01809,434.36782 0,-5.41993 2.20459,0 q 0.76172,0 1.1023,0.0842 0.34057,0.0879 0.57861,0.34424 0.33325,0.36255 0.33325,1.01807 0,1.84936 -2.3291,1.84936 l -0.78369,0 0,2.12403 -1.10596,0 z m 1.10596,-2.86744 0.53467,0 q 1.42456,0 1.42456,-1.01806 0,-0.43213 -0.26734,-0.61158 -0.26733,-0.17944 -0.94116,-0.17944 l -0.75073,0 0,1.80908 z"
             style="font-style:normal;font-variant:normal;font-weight:bold;font-stretch:normal;font-size:medium;line-height:125%;font-family:'Luxi Sans';-inkscape-font-specification:'Luxi Sans Bold';text-align:start;letter-spacing:0px;word-spacing:0px;writing-mode:tb-rl;text-anchor:start;fill:#0b6790;fill-opacity:1;stroke:none;stroke-width:1px;stroke-linecap:butt;stroke-linejoin:miter;stroke-opacity:1"
             id="path4494"
             inkscape:connector-curvature="0" /><path
             d="m -276.04639,441.06648 0,-5.41992 1.12793,0 0,2.20093 1.89331,0 0,-2.20093 1.12793,0 0,5.41992 -1.12793,0 0,-2.47192 -1.89331,0 0,2.47192 -1.12793,0 z"
             style="font-style:normal;font-variant:normal;font-weight:bold;font-stretch:normal;font-size:medium;line-height:125%;font-family:'Luxi Sans';-inkscape-font-specification:'Luxi Sans Bold';text-align:start;letter-spacing:0px;word-spacing:0px;writing-mode:tb-rl;text-anchor:start;fill:#0b6790;fill-opacity:1;stroke:none;stroke-width:1px;stroke-linecap:butt;stroke-linejoin:miter;stroke-opacity:1"
             id="path4496"
             inkscape:connector-curvature="0" /><path
             d="m -276.45921,447.76514 2.10206,-5.41992 1.12792,0 2.09473,5.41992 -1.15356,0 -0.55298,-1.44653 -2.24121,0 -0.55298,1.44653 -0.82398,0 z m 1.65528,-2.16797 1.68457,0 -0.84229,-2.16064 -0.84228,2.16064 z"
             style="font-style:normal;font-variant:normal;font-weight:bold;font-stretch:normal;font-size:medium;line-height:125%;font-family:'Luxi Sans';-inkscape-font-specification:'Luxi Sans Bold';text-align:start;letter-spacing:0px;word-spacing:0px;writing-mode:tb-rl;text-anchor:start;fill:#0b6790;fill-opacity:1;stroke:none;stroke-width:1px;stroke-linecap:butt;stroke-linejoin:miter;stroke-opacity:1"
             id="path4498"
             inkscape:connector-curvature="0" /><path
             d="m -276.10132,454.06264 0,-0.92285 q 1.07666,0.36255 1.92627,0.36255 1.23413,0 1.23413,-0.73242 0,-0.22339 -0.11718,-0.39185 -0.12818,-0.18311 -0.35523,-0.26733 l -0.50171,-0.19043 -0.59692,-0.22706 q -0.95581,-0.36254 -1.27808,-0.69213 -0.32226,-0.33326 -0.32226,-0.92286 0,-1.52343 2.23754,-1.52343 0.86792,0 1.74317,0.18676 l 0,0.85694 q -0.90454,-0.30029 -1.70654,-0.30029 -0.64454,0 -0.90088,0.13916 -0.25635,0.14282 -0.25635,0.49438 0,0.23071 0.12451,0.35889 0.11719,0.12085 0.47974,0.26001 l 0.41748,0.16113 0.62256,0.23071 q 0.90088,0.33325 1.24878,0.6958 0.3479,0.35889 0.3479,0.97046 0,0.84595 -0.63355,1.24146 -0.62988,0.39917 -1.95923,0.39917 -0.52368,0 -1.17553,-0.0989 l -0.57862,-0.0879 z"
             style="font-style:normal;font-variant:normal;font-weight:bold;font-stretch:normal;font-size:medium;line-height:125%;font-family:'Luxi Sans';-inkscape-font-specification:'Luxi Sans Bold';text-align:start;letter-spacing:0px;word-spacing:0px;writing-mode:tb-rl;text-anchor:start;fill:#0b6790;fill-opacity:1;stroke:none;stroke-width:1px;stroke-linecap:butt;stroke-linejoin:miter;stroke-opacity:1"
             id="path4500"
             inkscape:connector-curvature="0" /><path
             d="m -275.84131,460.80891 0,-5.41992 3.97705,0 0,0.74341 -2.84912,0 0,1.51245 2.44263,0 0,0.7251 -2.44263,0 0,1.66992 3.02124,0 0,0.76904 -4.14917,0 z"
             style="font-style:normal;font-variant:normal;font-weight:bold;font-stretch:normal;font-size:medium;line-height:125%;font-family:'Luxi Sans';-inkscape-font-specification:'Luxi Sans Bold';text-align:start;letter-spacing:0px;word-spacing:0px;writing-mode:tb-rl;text-anchor:start;fill:#0b6790;fill-opacity:1;stroke:none;stroke-width:1px;stroke-linecap:butt;stroke-linejoin:miter;stroke-opacity:1"
             id="path4502"
             inkscape:connector-curvature="0" /></g><g
           id="g4420"><path
             d="m -275.98181,486.69888 0,-0.92285 q 1.07666,0.36255 1.92627,0.36255 1.23413,0 1.23413,-0.73243 0,-0.22339 -0.11718,-0.39184 -0.12818,-0.18311 -0.35523,-0.26734 l -0.50171,-0.19043 -0.59692,-0.22705 q -0.95581,-0.36255 -1.27808,-0.69214 -0.32226,-0.33325 -0.32226,-0.92285 0,-1.52343 2.23754,-1.52343 0.86792,0 1.74317,0.18676 l 0,0.85694 q -0.90454,-0.3003 -1.70654,-0.3003 -0.64454,0 -0.90088,0.13916 -0.25635,0.14283 -0.25635,0.49439 0,0.23071 0.12451,0.35889 0.11719,0.12084 0.47974,0.26 l 0.41748,0.16114 0.62256,0.23071 q 0.90088,0.33325 1.24878,0.6958 0.3479,0.35889 0.3479,0.97046 0,0.84595 -0.63355,1.24146 -0.62988,0.39917 -1.95923,0.39917 -0.52368,0 -1.17553,-0.0989 l -0.57862,-0.0879 z"
             style="font-style:normal;font-variant:normal;font-weight:bold;font-stretch:normal;font-size:medium;line-height:125%;font-family:'Luxi Sans';-inkscape-font-specification:'Luxi Sans Bold';text-align:start;letter-spacing:0px;word-spacing:0px;writing-mode:tb-rl;text-anchor:start;fill:#0b6790;fill-opacity:1;stroke:none;stroke-width:1px;stroke-linecap:butt;stroke-linejoin:miter;stroke-opacity:1"
             id="path4506"
             inkscape:connector-curvature="0" /><path
             d="m -274.41442,493.79871 0,-5.41992 1.12792,0 0,5.41992 -1.12792,0 z"
             style="font-style:normal;font-variant:normal;font-weight:bold;font-stretch:normal;font-size:medium;line-height:125%;font-family:'Luxi Sans';-inkscape-font-specification:'Luxi Sans Bold';text-align:start;letter-spacing:0px;word-spacing:0px;writing-mode:tb-rl;text-anchor:start;fill:#0b6790;fill-opacity:1;stroke:none;stroke-width:1px;stroke-linecap:butt;stroke-linejoin:miter;stroke-opacity:1"
             id="path4508"
             inkscape:connector-curvature="0" /><path
             d="m -275.7501,500.32059 0,-5.41992 0.99244,0 2.25219,3.70239 0,-3.70239 0.90454,0 0,5.41992 -1.00708,0 -2.23754,-3.70239 0,3.70239 -0.90455,0 z"
             style="font-style:normal;font-variant:normal;font-weight:bold;font-stretch:normal;font-size:medium;line-height:125%;font-family:'Luxi Sans';-inkscape-font-specification:'Luxi Sans Bold';text-align:start;letter-spacing:0px;word-spacing:0px;writing-mode:tb-rl;text-anchor:start;fill:#0b6790;fill-opacity:1;stroke:none;stroke-width:1px;stroke-linecap:butt;stroke-linejoin:miter;stroke-opacity:1"
             id="path4510"
             inkscape:connector-curvature="0" /></g><g
           id="g4425"><path
             d="m -271.63904,519.19912 0,0.8313 q -0.82764,0.35156 -1.92627,0.35156 -1.42456,0 -2.17895,-0.73974 -0.75074,-0.73609 -0.75074,-2.10938 0,-1.39526 0.75806,-2.1167 0.75806,-0.72509 2.24853,-0.72509 0.87891,0 1.80176,0.20874 l 0,0.88256 q -1.02539,-0.3479 -1.73584,-0.3479 -1.875,0 -1.875,2.08008 0,2.0874 1.98487,2.0874 0.8313,0 1.67358,-0.40283 z"
             style="font-style:normal;font-variant:normal;font-weight:bold;font-stretch:normal;font-size:medium;line-height:125%;font-family:'Luxi Sans';-inkscape-font-specification:'Luxi Sans Bold';text-align:start;letter-spacing:0px;word-spacing:0px;writing-mode:tb-rl;text-anchor:start;fill:#0b6790;fill-opacity:1;stroke:none;stroke-width:1px;stroke-linecap:butt;stroke-linejoin:miter;stroke-opacity:1"
             id="path4514"
             inkscape:connector-curvature="0" /><path
             d="m -273.72078,521.47129 q 1.22314,0 1.9226,0.7544 0.69947,0.75439 0.69947,2.08374 0,1.35132 -0.69947,2.10205 -0.69946,0.75073 -1.95922,0.75073 -1.08399,0 -1.75415,-0.61889 -0.83496,-0.77271 -0.83496,-2.23023 0,-1.33301 0.69946,-2.0874 0.69946,-0.7544 1.92627,-0.7544 z m 0,0.74341 q -0.67749,0 -1.05103,0.55298 -0.3772,0.54932 -0.3772,1.54541 0,0.98511 0.37354,1.54541 0.37354,0.55664 1.04004,0.55664 0.61523,0 0.98144,-0.43945 0.45777,-0.55298 0.45777,-1.66992 0,-0.98877 -0.3772,-1.53809 -0.3772,-0.55298 -1.04736,-0.55298 z"
             style="font-style:normal;font-variant:normal;font-weight:bold;font-stretch:normal;font-size:medium;line-height:125%;font-family:'Luxi Sans';-inkscape-font-specification:'Luxi Sans Bold';text-align:start;letter-spacing:0px;word-spacing:0px;writing-mode:tb-rl;text-anchor:start;fill:#0b6790;fill-opacity:1;stroke:none;stroke-width:1px;stroke-linecap:butt;stroke-linejoin:miter;stroke-opacity:1"
             id="path4516"
             inkscape:connector-curvature="0" /><path
             d="m -275.89974,533.77299 0,-0.92286 q 1.07666,0.36255 1.92627,0.36255 1.23413,0 1.23413,-0.73242 0,-0.22339 -0.11718,-0.39184 -0.12818,-0.18311 -0.35523,-0.26734 l -0.50171,-0.19043 -0.59692,-0.22705 q -0.95581,-0.36255 -1.27808,-0.69214 -0.32226,-0.33325 -0.32226,-0.92285 0,-1.52344 2.23754,-1.52344 0.86792,0 1.74317,0.18677 l 0,0.85693 q -0.90454,-0.30029 -1.70654,-0.30029 -0.64454,0 -0.90088,0.13916 -0.25635,0.14282 -0.25635,0.49439 0,0.23071 0.12451,0.35888 0.11719,0.12085 0.47974,0.26001 l 0.41748,0.16114 0.62256,0.23071 q 0.90088,0.33325 1.24878,0.6958 0.3479,0.35889 0.3479,0.97046 0,0.84595 -0.63355,1.24145 -0.62988,0.39917 -1.95923,0.39917 -0.52368,0 -1.17553,-0.0989 l -0.57862,-0.0879 z"
             style="font-style:normal;font-variant:normal;font-weight:bold;font-stretch:normal;font-size:medium;line-height:125%;font-family:'Luxi Sans';-inkscape-font-specification:'Luxi Sans Bold';text-align:start;letter-spacing:0px;word-spacing:0px;writing-mode:tb-rl;text-anchor:start;fill:#0b6790;fill-opacity:1;stroke:none;stroke-width:1px;stroke-linecap:butt;stroke-linejoin:miter;stroke-opacity:1"
             id="path4518"
             inkscape:connector-curvature="0" /></g></g></g></g><g
     style="font-style:normal;font-variant:normal;font-weight:normal;font-stretch:normal;font-size:13.75px;line-height:125%;font-family:'URW Gothic L';-inkscape-font-specification:'URW Gothic L';text-align:start;letter-spacing:0px;word-spacing:0px;writing-mode:lr-tb;text-anchor:start;fill:#0b6790;fill-opacity:1;stroke:none;stroke-width:1px;stroke-linecap:butt;stroke-linejoin:miter;stroke-opacity:1"
     id="text4668"
     transform="translate(-48.790368,-4.2426407)" /></svg>