<?xml version="1.0" encoding="UTF-8" standalone="no"?>
<!-- Created with Inkscape (http://www.inkscape.org/) -->

<svg
   xmlns:dc="http://purl.org/dc/elements/1.1/"
   xmlns:cc="http://creativecommons.org/ns#"
   xmlns:rdf="http://www.w3.org/1999/02/22-rdf-syntax-ns#"
   xmlns:svg="http://www.w3.org/2000/svg"
   xmlns="http://www.w3.org/2000/svg"
   xmlns:sodipodi="http://sodipodi.sourceforge.net/DTD/sodipodi-0.dtd"
   xmlns:inkscape="http://www.inkscape.org/namespaces/inkscape"
   width="8.5172882mm"
   height="7.3880844mm"
   viewBox="0 0 30.179366 26.178251"
   id="svg4197"
   version="1.1"
   inkscape:version="0.91 r13725"
   sodipodi:docname="OutputPort.svg">
  <defs
     id="defs4199" />
  <sodipodi:namedview
     id="base"
     pagecolor="#ffffff"
     bordercolor="#666666"
     borderopacity="1.0"
     inkscape:pageopacity="0.0"
     inkscape:pageshadow="2"
     inkscape:zoom="7.9195959"
     inkscape:cx="13.234282"
     inkscape:cy="11.21491"
     inkscape:document-units="mm"
     inkscape:current-layer="layer1"
     showgrid="false"
     showguides="true"
     inkscape:guide-bbox="true"
     inkscape:window-width="954"
     inkscape:window-height="860"
     inkscape:window-x="88"
     inkscape:window-y="94"
     inkscape:window-maximized="0"
     fit-margin-top="0"
     fit-margin-left="0"
     fit-margin-right="0"
     fit-margin-bottom="0"
     units="mm"
     showborder="true"
     inkscape:showpageshadow="true" />
  <metadata
     id="metadata4202">
    <rdf:RDF>
      <cc:Work
         rdf:about="">
        <dc:format>image/svg+xml</dc:format>
        <dc:type
           rdf:resource="http://purl.org/dc/dcmitype/StillImage" />
        <dc:title></dc:title>
      </cc:Work>
    </rdf:RDF>
  </metadata>
  <g
     inkscape:label="Layer 1"
     inkscape:groupmode="layer"
     id="layer1"
     transform="translate(-200.82545,-592.07128)">
    <path
       sodipodi:type="star"
       style="fill:none;fill-opacity:1;stroke:none;stroke-width:0.99921262;stroke-linejoin:miter;stroke-miterlimit:4;stroke-dasharray:none;stroke-opacity:1"
       id="path4294"
       sodipodi:sides="6"
       sodipodi:cx="206.8119"
       sodipodi:cy="601.65222"
       sodipodi:r1="51.908722"
       sodipodi:r2="44.954269"
       sodipodi:arg1="-3.0685521"
       sodipodi:arg2="-2.5449533"
       inkscape:flatsided="true"
       inkscape:rounded="0"
       inkscape:randomized="0"
       d="m 155.04159,597.86415 29.16572,-42.94038 51.77032,3.78808 22.60459,46.72844 -29.16572,42.94038 -51.77032,-3.78807 z" />
    <g
       id="g4165">
      <path
         inkscape:transform-center-y="-0.080555597"
         inkscape:transform-center-x="-0.058463581"
         d="m 223.16899,617.8059 -14.57825,-0.0407 -7.25386,-12.6455 7.32439,-12.60478 14.57825,0.0407 7.25386,12.64549 z"
         inkscape:randomized="0"
         inkscape:rounded="0"
         inkscape:flatsided="true"
         sodipodi:arg2="1.5735898"
         sodipodi:arg1="1.049991"
         sodipodi:r2="2.3337076"
         sodipodi:r1="14.578309"
         sodipodi:cy="605.1604"
         sodipodi:cx="215.91513"
         sodipodi:sides="6"
         id="path5313"
         style="fill:#d8ab3e;fill-opacity:1;stroke:#000000;stroke-width:0.83277529;stroke-linejoin:miter;stroke-miterlimit:4;stroke-dasharray:none;stroke-opacity:1"
         sodipodi:type="star" />
      <circle
         r="10.224648"
         cy="605.01672"
         cx="215.75052"
         id="path4745"
         style="fill:#4c7870;fill-opacity:1;stroke:#000000;stroke-width:0.86926591;stroke-linejoin:miter;stroke-miterlimit:4;stroke-dasharray:none;stroke-opacity:1" />
      <ellipse
         ry="5.7801528"
         rx="5.8511481"
         cy="605.01672"
         cx="215.75052"
         id="path5295"
         style="fill:#484848;fill-opacity:1;stroke:#000000;stroke-width:0.5838353;stroke-linejoin:miter;stroke-miterlimit:4;stroke-dasharray:none;stroke-opacity:1" />
      <rect
         ry="0"
         y="606.18433"
         x="213.43211"
         height="4.4464331"
         width="4.7245483"
         id="rect5301"
         style="fill:#7d5d19;fill-opacity:1;stroke:none;stroke-width:0.5;stroke-linejoin:miter;stroke-miterlimit:0;stroke-dasharray:none;stroke-opacity:1" />
      <ellipse
         style="fill:none;fill-opacity:1;stroke:#000000;stroke-width:0.90818828;stroke-linejoin:miter;stroke-miterlimit:4;stroke-dasharray:none;stroke-opacity:1"
         id="ellipse5309"
         cx="215.75052"
         cy="605.01672"
         rx="5.8511481"
         ry="5.7801528" />
      <rect
         ry="0"
         y="606.02893"
         x="213.42751"
         height="1.747813"
         width="4.7245483"
         id="rect4191"
         style="fill:#b48532;fill-opacity:1;stroke:none;stroke-width:0.5;stroke-linejoin:miter;stroke-miterlimit:0;stroke-dasharray:none;stroke-opacity:1" />
      <rect
         style="fill:#9c712c;fill-opacity:1;stroke:none;stroke-width:0.5;stroke-linejoin:miter;stroke-miterlimit:0;stroke-dasharray:none;stroke-opacity:1"
         id="rect5307"
         width="4.720602"
         height="1.245037"
         x="213.43144"
         y="606.89227"
         ry="0" />
      <path
         inkscape:connector-curvature="0"
         id="path4270"
         d="m 208.52051,592.19836 -2.32641,4.004 a 17.420302,17.420302 0 0 1 9.58116,-2.8819 17.420302,17.420302 0 0 1 9.61005,2.90412 l -2.28642,-3.98623 -14.57838,-0.04 z"
         style="fill:#fadf9f;fill-opacity:1;stroke:none;stroke-width:0.73201221;stroke-linejoin:miter;stroke-miterlimit:4;stroke-dasharray:none;stroke-opacity:1" />
      <path
         style="fill:#a47609;fill-opacity:1;stroke:none;stroke-width:0.73201221;stroke-linejoin:miter;stroke-miterlimit:4;stroke-dasharray:none;stroke-opacity:1"
         d="m 223.46519,617.98643 2.32641,-4.00399 a 17.420302,17.420302 0 0 1 -9.58116,2.88189 17.420302,17.420302 0 0 1 -9.61005,-2.90412 l 2.28642,3.98623 14.57838,0.04 z"
         id="path4288"
         inkscape:connector-curvature="0" />
      <path
         sodipodi:type="star"
         style="fill:none;fill-opacity:1;stroke:#926910;stroke-width:0.88582665;stroke-linejoin:miter;stroke-miterlimit:4;stroke-dasharray:none;stroke-opacity:1"
         id="path4290"
         sodipodi:sides="6"
         sodipodi:cx="215.91513"
         sodipodi:cy="605.1604"
         sodipodi:r1="14.578309"
         sodipodi:r2="2.3337076"
         sodipodi:arg1="1.049991"
         sodipodi:arg2="1.5735898"
         inkscape:flatsided="true"
         inkscape:rounded="0"
         inkscape:randomized="0"
         d="m 223.16899,617.8059 -14.57825,-0.0407 -7.25386,-12.6455 7.32439,-12.60478 14.57825,0.0407 7.25386,12.64549 z"
         inkscape:transform-center-x="-0.058463581"
         inkscape:transform-center-y="-0.080555597" />
      <path
         inkscape:connector-curvature="0"
         id="circle4292"
         d="m 215.76886,595.18064 a 10.224648,11.113117 0 0 0 -6.89035,2.91981 16.995797,18.472642 0 0 1 6.89035,-1.61083 16.995797,18.472642 0 0 1 6.8637,1.58668 10.224648,11.113117 0 0 0 -6.8637,-2.89566 z"
         style="fill:#559d90;fill-opacity:1;stroke:none;stroke-width:0.76408756;stroke-linejoin:miter;stroke-miterlimit:4;stroke-dasharray:none;stroke-opacity:1" />
      <path
         style="fill:#33625a;fill-opacity:1;stroke:none;stroke-width:0.76408756;stroke-linejoin:miter;stroke-miterlimit:4;stroke-dasharray:none;stroke-opacity:1"
         d="m 215.76018,614.88956 a 10.224648,11.113117 0 0 0 6.89035,-2.91981 16.995797,18.472642 0 0 1 -6.89035,1.61084 16.995797,18.472642 0 0 1 -6.86369,-1.58669 10.224648,11.113117 0 0 0 6.86369,2.89566 z"
         id="path4299"
         inkscape:connector-curvature="0" />
      <path
         inkscape:connector-curvature="0"
         id="ellipse4301"
         d="m 215.8196,599.23664 a 5.851149,5.7801537 0 0 0 -5.85046,5.77936 5.851149,5.7801537 0 0 0 0.0266,0.51104 7.613466,7.613466 0 0 1 5.8238,-2.70857 7.613466,7.613466 0 0 1 5.8238,2.72191 5.851149,5.7801537 0 0 0 0.0266,-0.52438 5.851149,5.7801537 0 0 0 -5.85047,-5.77936 z"
         style="fill:#2a2a2a;fill-opacity:1;stroke:none;stroke-width:0.51319313;stroke-linejoin:miter;stroke-miterlimit:4;stroke-dasharray:none;stroke-opacity:1" />
      <ellipse
         ry="5.7801528"
         rx="5.8511481"
         cy="605.01672"
         cx="215.75052"
         id="ellipse4312"
         style="fill:none;fill-opacity:1;stroke:#1c1c1c;stroke-width:0.90818828;stroke-linejoin:miter;stroke-miterlimit:4;stroke-dasharray:none;stroke-opacity:1" />
      <circle
         style="fill:none;fill-opacity:1;stroke:#2e2e2e;stroke-width:0.86926591;stroke-linejoin:miter;stroke-miterlimit:4;stroke-dasharray:none;stroke-opacity:1"
         id="circle4314"
         cx="215.75052"
         cy="605.01672"
         r="10.224648" />
    </g>
  </g>
</svg>
