<?xml version="1.0" encoding="UTF-8" standalone="no"?>
<!-- Created with Inkscape (http://www.inkscape.org/) -->

<svg
   xmlns:dc="http://purl.org/dc/elements/1.1/"
   xmlns:cc="http://creativecommons.org/ns#"
   xmlns:rdf="http://www.w3.org/1999/02/22-rdf-syntax-ns#"
   xmlns:svg="http://www.w3.org/2000/svg"
   xmlns="http://www.w3.org/2000/svg"
   xmlns:sodipodi="http://sodipodi.sourceforge.net/DTD/sodipodi-0.dtd"
   xmlns:inkscape="http://www.inkscape.org/namespaces/inkscape"
   width="11.265076mm"
   height="4.0001693mm"
   viewBox="0 0 39.915624 14.173828"
   id="svg2"
   version="1.1"
   inkscape:version="0.91 r13725"
   sodipodi:docname="SwitchWhite_2.svg">
  <defs
     id="defs4" />
  <sodipodi:namedview
     id="base"
     pagecolor="#ffffff"
     bordercolor="#666666"
     borderopacity="1.0"
     inkscape:pageopacity="0.0"
     inkscape:pageshadow="2"
     inkscape:zoom="15.839192"
     inkscape:cx="1.2882756"
     inkscape:cy="-8.9550845"
     inkscape:document-units="mm"
     inkscape:current-layer="layer1"
     showgrid="false"
     units="mm"
     inkscape:window-width="1307"
     inkscape:window-height="929"
     inkscape:window-x="0"
     inkscape:window-y="0"
     inkscape:window-maximized="1"
     fit-margin-top="0"
     fit-margin-left="0"
     fit-margin-right="0"
     fit-margin-bottom="0" />
  <metadata
     id="metadata7">
    <rdf:RDF>
      <cc:Work
         rdf:about="">
        <dc:format>image/svg+xml</dc:format>
        <dc:type
           rdf:resource="http://purl.org/dc/dcmitype/StillImage" />
        <dc:title></dc:title>
      </cc:Work>
    </rdf:RDF>
  </metadata>
  <g
     inkscape:label="Layer 1"
     inkscape:groupmode="layer"
     id="layer1"
     transform="translate(-131.96429,-277.20623)">
    <g
       id="g4197"
       transform="matrix(1.2,0,0,1,-8.7142824,-18.705674)">
      <rect
         ry="2.0843112"
         y="295.9122"
         x="117.23215"
         height="14.173213"
         width="35.433071"
         id="rect4135-5"
         style="opacity:1;fill:#a49f86;fill-opacity:1;stroke:none;stroke-width:0.54921257;stroke-linecap:round;stroke-linejoin:round;stroke-miterlimit:4;stroke-dasharray:none;stroke-opacity:1" />
      <path
         id="rect4156-6"
         transform="translate(131.96429,277.20683)"
         d="m -12.763672,18.705078 c -0.640871,0 -1.201718,0.32727 -1.560547,0.826172 l 34.617188,0 C 19.93414,19.032348 19.373305,18.705078 18.732422,18.705078 l -31.496094,0 z"
         style="opacity:1;fill:#726b56;fill-opacity:1;stroke:none;stroke-width:0.54921257;stroke-linecap:round;stroke-linejoin:round;stroke-miterlimit:4;stroke-dasharray:none;stroke-opacity:1"
         inkscape:connector-curvature="0" />
      <path
         id="path4161-2"
         transform="translate(131.96429,277.20683)"
         d="m -14.376953,31.986328 c 0.354966,0.538779 0.942847,0.892578 1.613281,0.892578 l 31.496094,0 c 0.670434,0 1.258312,-0.353799 1.613281,-0.892578 l -1.162109,0 c -0.145181,0.03596 -0.295347,0.06055 -0.451172,0.06055 l -31.496094,0 c -0.155825,0 -0.305991,-0.02459 -0.451172,-0.06055 l -1.162109,0 z"
         style="opacity:1;fill:#bdb799;fill-opacity:1;stroke:none;stroke-width:0.54921257;stroke-linecap:round;stroke-linejoin:round;stroke-miterlimit:4;stroke-dasharray:none;stroke-opacity:1"
         inkscape:connector-curvature="0" />
    </g>
    <g
       id="g4461"
       transform="matrix(1.1810244,0,0,1,-4.1719453,0)">
      <rect
         style="opacity:1;fill:#ebe5bf;fill-opacity:1;stroke:none;stroke-width:0.36000001;stroke-linecap:round;stroke-linejoin:round;stroke-miterlimit:4;stroke-dasharray:none;stroke-opacity:1"
         id="rect4176"
         width="9.6565647"
         height="12.243084"
         x="132.64287"
         y="278.14313"
         ry="0.74544877" />
      <rect
         ry="0.67194229"
         y="278.74673"
         x="133.15993"
         height="11.035829"
         width="8.622448"
         id="rect4174"
         style="opacity:1;fill:#fcfaec;fill-opacity:1;stroke:#f7f3d9;stroke-width:0.40835547;stroke-linecap:round;stroke-linejoin:round;stroke-miterlimit:4;stroke-dasharray:none;stroke-opacity:1" />
      <path
         inkscape:connector-curvature="0"
         id="path4178"
         d="m 133.9565,279.5326 c 0,9.43928 0,9.43928 0,9.43928 l 0,0.0249"
         style="fill:none;fill-rule:evenodd;stroke:#f1f1e0;stroke-width:0.33227637;stroke-linecap:round;stroke-linejoin:round;stroke-miterlimit:4;stroke-dasharray:none;stroke-opacity:1" />
      <path
         style="fill:none;fill-rule:evenodd;stroke:#ffffff;stroke-width:0.33227637;stroke-linecap:round;stroke-linejoin:round;stroke-miterlimit:4;stroke-dasharray:none;stroke-opacity:1"
         d="m 134.28709,279.5326 c 0,9.43928 0,9.43928 0,9.43928 l 0,0.0249"
         id="path4180"
         inkscape:connector-curvature="0" />
      <path
         style="fill:none;fill-rule:evenodd;stroke:#f1f1e0;stroke-width:0.33227637;stroke-linecap:round;stroke-linejoin:round;stroke-miterlimit:4;stroke-dasharray:none;stroke-opacity:1"
         d="m 135.07296,279.5326 c 0,9.43928 0,9.43928 0,9.43928 l 0,0.0249"
         id="path4196"
         inkscape:connector-curvature="0" />
      <path
         inkscape:connector-curvature="0"
         id="path4198"
         d="m 135.40355,279.5326 c 0,9.43928 0,9.43928 0,9.43928 l 0,0.0249"
         style="fill:none;fill-rule:evenodd;stroke:#ffffff;stroke-width:0.33227637;stroke-linecap:round;stroke-linejoin:round;stroke-miterlimit:4;stroke-dasharray:none;stroke-opacity:1" />
      <path
         inkscape:connector-curvature="0"
         id="path4202"
         d="m 136.18942,279.5326 c 0,9.43928 0,9.43928 0,9.43928 l 0,0.0249"
         style="fill:none;fill-rule:evenodd;stroke:#f1f1e0;stroke-width:0.33227637;stroke-linecap:round;stroke-linejoin:round;stroke-miterlimit:4;stroke-dasharray:none;stroke-opacity:1" />
      <path
         style="fill:none;fill-rule:evenodd;stroke:#ffffff;stroke-width:0.33227637;stroke-linecap:round;stroke-linejoin:round;stroke-miterlimit:4;stroke-dasharray:none;stroke-opacity:1"
         d="m 136.52001,279.5326 c 0,9.43928 0,9.43928 0,9.43928 l 0,0.0249"
         id="path4204"
         inkscape:connector-curvature="0" />
      <path
         style="fill:none;fill-rule:evenodd;stroke:#f1f1e0;stroke-width:0.33227637;stroke-linecap:round;stroke-linejoin:round;stroke-miterlimit:4;stroke-dasharray:none;stroke-opacity:1"
         d="m 137.30588,279.5326 c 0,9.43928 0,9.43928 0,9.43928 l 0,0.0249"
         id="path4208"
         inkscape:connector-curvature="0" />
      <path
         inkscape:connector-curvature="0"
         id="path4210"
         d="m 137.63646,279.5326 c 0,9.43928 0,9.43928 0,9.43928 l 0,0.0249"
         style="fill:none;fill-rule:evenodd;stroke:#ffffff;stroke-width:0.33227637;stroke-linecap:round;stroke-linejoin:round;stroke-miterlimit:4;stroke-dasharray:none;stroke-opacity:1" />
      <path
         inkscape:connector-curvature="0"
         id="path4214"
         d="m 138.42231,279.5326 c 0,9.43928 0,9.43928 0,9.43928 l 0,0.0249"
         style="fill:none;fill-rule:evenodd;stroke:#f1f1e0;stroke-width:0.33227637;stroke-linecap:round;stroke-linejoin:round;stroke-miterlimit:4;stroke-dasharray:none;stroke-opacity:1" />
      <path
         style="fill:none;fill-rule:evenodd;stroke:#ffffff;stroke-width:0.33227637;stroke-linecap:round;stroke-linejoin:round;stroke-miterlimit:4;stroke-dasharray:none;stroke-opacity:1"
         d="m 138.7529,279.5326 c 0,9.43928 0,9.43928 0,9.43928 l 0,0.0249"
         id="path4216"
         inkscape:connector-curvature="0" />
      <path
         style="fill:none;fill-rule:evenodd;stroke:#f1f1e0;stroke-width:0.33227637;stroke-linecap:round;stroke-linejoin:round;stroke-miterlimit:4;stroke-dasharray:none;stroke-opacity:1"
         d="m 139.53877,279.5326 c 0,9.43928 0,9.43928 0,9.43928 l 0,0.0249"
         id="path4220"
         inkscape:connector-curvature="0" />
      <path
         inkscape:connector-curvature="0"
         id="path4222"
         d="m 139.86936,279.5326 c 0,9.43928 0,9.43928 0,9.43928 l 0,0.0249"
         style="fill:none;fill-rule:evenodd;stroke:#ffffff;stroke-width:0.33227637;stroke-linecap:round;stroke-linejoin:round;stroke-miterlimit:4;stroke-dasharray:none;stroke-opacity:1" />
      <path
         inkscape:connector-curvature="0"
         id="path4226"
         d="m 140.65522,279.5326 c 0,9.43928 0,9.43928 0,9.43928 l 0,0.0249"
         style="fill:none;fill-rule:evenodd;stroke:#f1f1e0;stroke-width:0.33227637;stroke-linecap:round;stroke-linejoin:round;stroke-miterlimit:4;stroke-dasharray:none;stroke-opacity:1" />
      <path
         style="fill:none;fill-rule:evenodd;stroke:#ffffff;stroke-width:0.33227637;stroke-linecap:round;stroke-linejoin:round;stroke-miterlimit:4;stroke-dasharray:none;stroke-opacity:1"
         d="m 140.98581,279.5326 c 0,9.43928 0,9.43928 0,9.43928 l 0,0.0249"
         id="path4228"
         inkscape:connector-curvature="0" />
    </g>
  </g>
</svg>
